<svg width="115" height="86" viewBox="0 0 115 86" fill="none" xmlns="http://www.w3.org/2000/svg">
<path d="M9.96 70.78C10.1333 70.78 10.2733 70.84 10.38 70.96C10.5 71.08 10.56 71.2267 10.56 71.4V80.4C10.56 80.56 10.5 80.7 10.38 80.82C10.26 80.94 10.12 81 9.96 81C9.78667 81 9.64 80.94 9.52 80.82C9.41333 80.7 9.36 80.56 9.36 80.4V78.02L9.7 77.86C9.7 78.2333 9.59333 78.6133 9.38 79C9.18 79.3867 8.9 79.7467 8.54 80.08C8.18 80.4133 7.75333 80.6867 7.26 80.9C6.78 81.1 6.26 81.2 5.7 81.2C4.79333 81.2 3.98 80.9667 3.26 80.5C2.55333 80.0333 1.99333 79.3933 1.58 78.58C1.18 77.7667 0.98 76.8533 0.98 75.84C0.98 74.8 1.18667 73.8867 1.6 73.1C2.01333 72.3 2.57333 71.6733 3.28 71.22C3.98667 70.7667 4.78667 70.54 5.68 70.54C6.25333 70.54 6.78667 70.64 7.28 70.84C7.78667 71.04 8.22667 71.3133 8.6 71.66C8.97333 72.0067 9.26 72.4067 9.46 72.86C9.67333 73.3 9.78 73.76 9.78 74.24L9.36 73.94V71.4C9.36 71.2267 9.41333 71.08 9.52 70.96C9.64 70.84 9.78667 70.78 9.96 70.78ZM5.8 80.08C6.50667 80.08 7.13333 79.9 7.68 79.54C8.22667 79.1667 8.65333 78.66 8.96 78.02C9.28 77.3667 9.44 76.64 9.44 75.84C9.44 75.0533 9.28 74.3467 8.96 73.72C8.65333 73.0933 8.22667 72.5933 7.68 72.22C7.13333 71.8467 6.50667 71.66 5.8 71.66C5.10667 71.66 4.48 71.84 3.92 72.2C3.37333 72.56 2.94 73.0533 2.62 73.68C2.31333 74.3067 2.16 75.0267 2.16 75.84C2.16 76.64 2.31333 77.3667 2.62 78.02C2.94 78.66 3.37333 79.1667 3.92 79.54C4.46667 79.9 5.09333 80.08 5.8 80.08ZM17.4089 66.28C17.6089 66.28 17.8222 66.3 18.0489 66.34C18.2889 66.38 18.4956 66.4533 18.6689 66.56C18.8422 66.6533 18.9289 66.8 18.9289 67C18.9289 67.1467 18.8756 67.28 18.7689 67.4C18.6622 67.5067 18.5422 67.56 18.4089 67.56C18.2756 67.56 18.1089 67.5267 17.9089 67.46C17.7089 67.38 17.4956 67.34 17.2689 67.34C16.9889 67.34 16.7489 67.4067 16.5489 67.54C16.3489 67.66 16.1956 67.84 16.0889 68.08C15.9822 68.3067 15.9289 68.5867 15.9289 68.92V80.4C15.9289 80.56 15.8689 80.7 15.7489 80.82C15.6422 80.94 15.5022 81 15.3289 81C15.1556 81 15.0089 80.94 14.8889 80.82C14.7822 80.7 14.7289 80.56 14.7289 80.4V68.92C14.7289 68.0667 14.9756 67.4133 15.4689 66.96C15.9756 66.5067 16.6222 66.28 17.4089 66.28ZM18.1689 70.98C18.3289 70.98 18.4622 71.0333 18.5689 71.14C18.6756 71.2467 18.7289 71.38 18.7289 71.54C18.7289 71.7 18.6756 71.8333 18.5689 71.94C18.4622 72.0467 18.3289 72.1 18.1689 72.1H13.2689C13.1222 72.1 12.9889 72.0467 12.8689 71.94C12.7622 71.82 12.7089 71.6867 12.7089 71.54C12.7089 71.3667 12.7622 71.2333 12.8689 71.14C12.9889 71.0333 13.1222 70.98 13.2689 70.98H18.1689ZM20.3145 70.82H24.9745C25.1345 70.82 25.2679 70.88 25.3745 71C25.4812 71.1067 25.5345 71.24 25.5345 71.4C25.5345 71.5467 25.4812 71.6733 25.3745 71.78C25.2679 71.8867 25.1345 71.94 24.9745 71.94H20.3145C20.1545 71.94 20.0145 71.8867 19.8945 71.78C19.7879 71.66 19.7345 71.5267 19.7345 71.38C19.7345 71.22 19.7879 71.0867 19.8945 70.98C20.0145 70.8733 20.1545 70.82 20.3145 70.82ZM22.3745 68C22.5479 68 22.6879 68.06 22.7945 68.18C22.9145 68.3 22.9745 68.44 22.9745 68.6V78.64C22.9745 79.0133 23.0212 79.2933 23.1145 79.48C23.2212 79.6667 23.3545 79.7933 23.5145 79.86C23.6745 79.9133 23.8345 79.94 23.9945 79.94C24.1012 79.94 24.1945 79.9267 24.2745 79.9C24.3679 79.86 24.4679 79.84 24.5745 79.84C24.6945 79.84 24.7945 79.8867 24.8745 79.98C24.9679 80.0733 25.0145 80.1933 25.0145 80.34C25.0145 80.5267 24.9079 80.6867 24.6945 80.82C24.4812 80.94 24.2279 81 23.9345 81C23.8145 81 23.6345 80.9933 23.3945 80.98C23.1545 80.9533 22.9079 80.88 22.6545 80.76C22.4012 80.6267 22.1879 80.4 22.0145 80.08C21.8545 79.76 21.7745 79.3 21.7745 78.7V68.6C21.7745 68.44 21.8279 68.3 21.9345 68.18C22.0545 68.06 22.2012 68 22.3745 68ZM32.2742 81.2C31.2476 81.2 30.3409 80.98 29.5542 80.54C28.7676 80.1 28.1542 79.4867 27.7142 78.7C27.2742 77.9133 27.0542 76.9933 27.0542 75.94C27.0542 74.8067 27.2742 73.84 27.7142 73.04C28.1676 72.24 28.7476 71.6267 29.4542 71.2C30.1742 70.76 30.9342 70.54 31.7342 70.54C32.3209 70.54 32.8876 70.6467 33.4342 70.86C33.9942 71.06 34.4876 71.3667 34.9142 71.78C35.3542 72.18 35.7009 72.6733 35.9542 73.26C36.2209 73.8467 36.3676 74.5267 36.3942 75.3C36.3809 75.46 36.3142 75.6 36.1942 75.72C36.0742 75.8267 35.9342 75.88 35.7742 75.88H27.7542L27.5142 74.8H35.3942L35.1342 75.04V74.64C35.0809 74.0133 34.8809 73.48 34.5342 73.04C34.1876 72.6 33.7676 72.2667 33.2742 72.04C32.7809 71.8133 32.2676 71.7 31.7342 71.7C31.3342 71.7 30.9209 71.78 30.4942 71.94C30.0809 72.1 29.7009 72.3533 29.3542 72.7C29.0209 73.0333 28.7476 73.4667 28.5342 74C28.3209 74.52 28.2142 75.14 28.2142 75.86C28.2142 76.6467 28.3742 77.36 28.6942 78C29.0142 78.64 29.4742 79.1467 30.0742 79.52C30.6876 79.8933 31.4142 80.08 32.2542 80.08C32.7209 80.08 33.1409 80.0133 33.5142 79.88C33.8876 79.7467 34.2142 79.5733 34.4942 79.36C34.7742 79.1333 35.0076 78.9 35.1942 78.66C35.3409 78.54 35.4876 78.48 35.6342 78.48C35.7676 78.48 35.8809 78.5333 35.9742 78.64C36.0809 78.7467 36.1342 78.8667 36.1342 79C36.1342 79.16 36.0676 79.3 35.9342 79.42C35.5342 79.9 35.0142 80.32 34.3742 80.68C33.7342 81.0267 33.0342 81.2 32.2742 81.2ZM39.5628 81C39.3761 81 39.2295 80.94 39.1228 80.82C39.0161 80.7 38.9628 80.56 38.9628 80.4V71.44C38.9628 71.28 39.0161 71.14 39.1228 71.02C39.2428 70.9 39.3895 70.84 39.5628 70.84C39.7361 70.84 39.8761 70.9 39.9828 71.02C40.1028 71.14 40.1628 71.28 40.1628 71.44V74.44L39.8628 74.5C39.9028 74.0333 40.0161 73.5733 40.2028 73.12C40.4028 72.6533 40.6695 72.2267 41.0028 71.84C41.3361 71.4533 41.7295 71.14 42.1828 70.9C42.6495 70.66 43.1695 70.54 43.7428 70.54C43.9828 70.54 44.2161 70.5933 44.4428 70.7C44.6695 70.7933 44.7828 70.9533 44.7828 71.18C44.7828 71.38 44.7295 71.5333 44.6228 71.64C44.5161 71.7467 44.3895 71.8 44.2428 71.8C44.1228 71.8 43.9895 71.7667 43.8428 71.7C43.7095 71.6333 43.5295 71.6 43.3028 71.6C42.9295 71.6 42.5561 71.7133 42.1828 71.94C41.8095 72.1533 41.4695 72.4467 41.1628 72.82C40.8561 73.1933 40.6095 73.6133 40.4228 74.08C40.2495 74.5333 40.1628 74.9933 40.1628 75.46V80.4C40.1628 80.56 40.1028 80.7 39.9828 80.82C39.8628 80.94 39.7228 81 39.5628 81ZM56.7469 81.2C55.7202 81.2 54.8135 80.98 54.0269 80.54C53.2402 80.1 52.6269 79.4867 52.1869 78.7C51.7469 77.9133 51.5269 76.9933 51.5269 75.94C51.5269 74.8067 51.7469 73.84 52.1869 73.04C52.6402 72.24 53.2202 71.6267 53.9269 71.2C54.6469 70.76 55.4069 70.54 56.2069 70.54C56.7935 70.54 57.3602 70.6467 57.9069 70.86C58.4669 71.06 58.9602 71.3667 59.3869 71.78C59.8269 72.18 60.1735 72.6733 60.4269 73.26C60.6935 73.8467 60.8402 74.5267 60.8669 75.3C60.8535 75.46 60.7869 75.6 60.6669 75.72C60.5469 75.8267 60.4069 75.88 60.2469 75.88H52.2269L51.9869 74.8H59.8669L59.6069 75.04V74.64C59.5535 74.0133 59.3535 73.48 59.0069 73.04C58.6602 72.6 58.2402 72.2667 57.7469 72.04C57.2535 71.8133 56.7402 71.7 56.2069 71.7C55.8069 71.7 55.3935 71.78 54.9669 71.94C54.5535 72.1 54.1735 72.3533 53.8269 72.7C53.4935 73.0333 53.2202 73.4667 53.0069 74C52.7935 74.52 52.6869 75.14 52.6869 75.86C52.6869 76.6467 52.8469 77.36 53.1669 78C53.4869 78.64 53.9469 79.1467 54.5469 79.52C55.1602 79.8933 55.8869 80.08 56.7269 80.08C57.1935 80.08 57.6135 80.0133 57.9869 79.88C58.3602 79.7467 58.6869 79.5733 58.9669 79.36C59.2469 79.1333 59.4802 78.9 59.6669 78.66C59.8135 78.54 59.9602 78.48 60.1069 78.48C60.2402 78.48 60.3535 78.5333 60.4469 78.64C60.5535 78.7467 60.6069 78.8667 60.6069 79C60.6069 79.16 60.5402 79.3 60.4069 79.42C60.0069 79.9 59.4869 80.32 58.8469 80.68C58.2069 81.0267 57.5069 81.2 56.7469 81.2ZM67.1355 66.28C67.3355 66.28 67.5488 66.3 67.7755 66.34C68.0155 66.38 68.2221 66.4533 68.3955 66.56C68.5688 66.6533 68.6555 66.8 68.6555 67C68.6555 67.1467 68.6021 67.28 68.4955 67.4C68.3888 67.5067 68.2688 67.56 68.1355 67.56C68.0021 67.56 67.8355 67.5267 67.6355 67.46C67.4355 67.38 67.2221 67.34 66.9955 67.34C66.7155 67.34 66.4755 67.4067 66.2755 67.54C66.0755 67.66 65.9221 67.84 65.8155 68.08C65.7088 68.3067 65.6555 68.5867 65.6555 68.92V80.4C65.6555 80.56 65.5955 80.7 65.4755 80.82C65.3688 80.94 65.2288 81 65.0555 81C64.8821 81 64.7355 80.94 64.6155 80.82C64.5088 80.7 64.4555 80.56 64.4555 80.4V68.92C64.4555 68.0667 64.7021 67.4133 65.1955 66.96C65.7021 66.5067 66.3488 66.28 67.1355 66.28ZM67.8955 70.98C68.0555 70.98 68.1888 71.0333 68.2955 71.14C68.4021 71.2467 68.4555 71.38 68.4555 71.54C68.4555 71.7 68.4021 71.8333 68.2955 71.94C68.1888 72.0467 68.0555 72.1 67.8955 72.1H62.9955C62.8488 72.1 62.7155 72.0467 62.5955 71.94C62.4888 71.82 62.4355 71.6867 62.4355 71.54C62.4355 71.3667 62.4888 71.2333 62.5955 71.14C62.7155 71.0333 62.8488 70.98 62.9955 70.98H67.8955ZM74.3355 66.28C74.5355 66.28 74.7488 66.3 74.9755 66.34C75.2155 66.38 75.4221 66.4533 75.5955 66.56C75.7688 66.6533 75.8555 66.8 75.8555 67C75.8555 67.1467 75.8021 67.28 75.6955 67.4C75.5888 67.5067 75.4688 67.56 75.3355 67.56C75.2021 67.56 75.0355 67.5267 74.8355 67.46C74.6355 67.38 74.4221 67.34 74.1955 67.34C73.9155 67.34 73.6755 67.4067 73.4755 67.54C73.2755 67.66 73.1221 67.84 73.0155 68.08C72.9088 68.3067 72.8555 68.5867 72.8555 68.92V80.4C72.8555 80.56 72.7955 80.7 72.6755 80.82C72.5688 80.94 72.4288 81 72.2555 81C72.0821 81 71.9355 80.94 71.8155 80.82C71.7088 80.7 71.6555 80.56 71.6555 80.4V68.92C71.6555 68.0667 71.9021 67.4133 72.3955 66.96C72.9021 66.5067 73.5488 66.28 74.3355 66.28ZM75.0955 70.98C75.2555 70.98 75.3888 71.0333 75.4955 71.14C75.6021 71.2467 75.6555 71.38 75.6555 71.54C75.6555 71.7 75.6021 71.8333 75.4955 71.94C75.3888 72.0467 75.2555 72.1 75.0955 72.1H70.1955C70.0488 72.1 69.9155 72.0467 69.7955 71.94C69.6888 71.82 69.6355 71.6867 69.6355 71.54C69.6355 71.3667 69.6888 71.2333 69.7955 71.14C69.9155 71.0333 70.0488 70.98 70.1955 70.98H75.0955ZM82.45 81.2C81.4233 81.2 80.5167 80.98 79.73 80.54C78.9433 80.1 78.33 79.4867 77.89 78.7C77.45 77.9133 77.23 76.9933 77.23 75.94C77.23 74.8067 77.45 73.84 77.89 73.04C78.3433 72.24 78.9233 71.6267 79.63 71.2C80.35 70.76 81.11 70.54 81.91 70.54C82.4967 70.54 83.0633 70.6467 83.61 70.86C84.17 71.06 84.6633 71.3667 85.09 71.78C85.53 72.18 85.8767 72.6733 86.13 73.26C86.3967 73.8467 86.5433 74.5267 86.57 75.3C86.5567 75.46 86.49 75.6 86.37 75.72C86.25 75.8267 86.11 75.88 85.95 75.88H77.93L77.69 74.8H85.57L85.31 75.04V74.64C85.2567 74.0133 85.0567 73.48 84.71 73.04C84.3633 72.6 83.9433 72.2667 83.45 72.04C82.9567 71.8133 82.4433 71.7 81.91 71.7C81.51 71.7 81.0967 71.78 80.67 71.94C80.2567 72.1 79.8767 72.3533 79.53 72.7C79.1967 73.0333 78.9233 73.4667 78.71 74C78.4967 74.52 78.39 75.14 78.39 75.86C78.39 76.6467 78.55 77.36 78.87 78C79.19 78.64 79.65 79.1467 80.25 79.52C80.8633 79.8933 81.59 80.08 82.43 80.08C82.8967 80.08 83.3167 80.0133 83.69 79.88C84.0633 79.7467 84.39 79.5733 84.67 79.36C84.95 79.1333 85.1833 78.9 85.37 78.66C85.5167 78.54 85.6633 78.48 85.81 78.48C85.9433 78.48 86.0567 78.5333 86.15 78.64C86.2567 78.7467 86.31 78.8667 86.31 79C86.31 79.16 86.2433 79.3 86.11 79.42C85.71 79.9 85.19 80.32 84.55 80.68C83.91 81.0267 83.21 81.2 82.45 81.2ZM93.6386 70.54C94.2786 70.54 94.8653 70.6133 95.3986 70.76C95.9319 70.8933 96.3586 71.08 96.6786 71.32C97.0119 71.56 97.1786 71.82 97.1786 72.1C97.1786 72.2333 97.1319 72.3667 97.0386 72.5C96.9453 72.62 96.8186 72.68 96.6586 72.68C96.4986 72.68 96.3653 72.64 96.2586 72.56C96.1653 72.48 96.0653 72.3867 95.9586 72.28C95.8653 72.1733 95.7253 72.0733 95.5386 71.98C95.3653 71.9 95.1186 71.8267 94.7986 71.76C94.4786 71.6933 94.1119 71.66 93.6986 71.66C92.9519 71.66 92.2786 71.8467 91.6786 72.22C91.0786 72.5933 90.6053 73.1 90.2586 73.74C89.9119 74.3667 89.7386 75.0733 89.7386 75.86C89.7386 76.66 89.9053 77.38 90.2386 78.02C90.5719 78.66 91.0319 79.1667 91.6186 79.54C92.2053 79.9 92.8919 80.08 93.6786 80.08C94.2119 80.08 94.6253 80.0333 94.9186 79.94C95.2119 79.8467 95.4653 79.74 95.6786 79.62C95.9319 79.4733 96.1119 79.3333 96.2186 79.2C96.3386 79.0533 96.4919 78.98 96.6786 78.98C96.8519 78.98 96.9786 79.0333 97.0586 79.14C97.1519 79.2333 97.1986 79.36 97.1986 79.52C97.1986 79.7333 97.0386 79.9733 96.7186 80.24C96.4119 80.4933 95.9853 80.72 95.4386 80.92C94.8919 81.1067 94.2653 81.2 93.5586 81.2C92.5586 81.2 91.6786 80.9667 90.9186 80.5C90.1719 80.0333 89.5853 79.4 89.1586 78.6C88.7453 77.7867 88.5386 76.8733 88.5386 75.86C88.5386 74.8867 88.7519 74 89.1786 73.2C89.6053 72.4 90.1986 71.76 90.9586 71.28C91.7319 70.7867 92.6253 70.54 93.6386 70.54ZM98.8302 70.82H103.49C103.65 70.82 103.783 70.88 103.89 71C103.997 71.1067 104.05 71.24 104.05 71.4C104.05 71.5467 103.997 71.6733 103.89 71.78C103.783 71.8867 103.65 71.94 103.49 71.94H98.8302C98.6702 71.94 98.5302 71.8867 98.4102 71.78C98.3035 71.66 98.2502 71.5267 98.2502 71.38C98.2502 71.22 98.3035 71.0867 98.4102 70.98C98.5302 70.8733 98.6702 70.82 98.8302 70.82ZM100.89 68C101.063 68 101.203 68.06 101.31 68.18C101.43 68.3 101.49 68.44 101.49 68.6V78.64C101.49 79.0133 101.537 79.2933 101.63 79.48C101.737 79.6667 101.87 79.7933 102.03 79.86C102.19 79.9133 102.35 79.94 102.51 79.94C102.617 79.94 102.71 79.9267 102.79 79.9C102.883 79.86 102.983 79.84 103.09 79.84C103.21 79.84 103.31 79.8867 103.39 79.98C103.483 80.0733 103.53 80.1933 103.53 80.34C103.53 80.5267 103.423 80.6867 103.21 80.82C102.997 80.94 102.743 81 102.45 81C102.33 81 102.15 80.9933 101.91 80.98C101.67 80.9533 101.423 80.88 101.17 80.76C100.917 80.6267 100.703 80.4 100.53 80.08C100.37 79.76 100.29 79.3 100.29 78.7V68.6C100.29 68.44 100.343 68.3 100.45 68.18C100.57 68.06 100.717 68 100.89 68ZM106.078 79.38C105.971 79.22 105.918 79.0667 105.918 78.92C105.931 78.76 106.018 78.6333 106.178 78.54C106.285 78.4467 106.405 78.4067 106.538 78.42C106.685 78.4333 106.818 78.5 106.938 78.62C107.298 79.0867 107.731 79.4667 108.238 79.76C108.758 80.04 109.371 80.18 110.078 80.18C110.451 80.18 110.818 80.12 111.178 80C111.551 79.8667 111.858 79.6733 112.098 79.42C112.338 79.1533 112.458 78.82 112.458 78.42C112.458 78.0067 112.338 77.6733 112.098 77.42C111.858 77.1667 111.545 76.9667 111.158 76.82C110.785 76.6733 110.385 76.5467 109.958 76.44C109.505 76.32 109.065 76.1867 108.638 76.04C108.211 75.88 107.831 75.6867 107.498 75.46C107.178 75.22 106.918 74.9333 106.718 74.6C106.518 74.2667 106.418 73.86 106.418 73.38C106.418 72.82 106.571 72.3267 106.878 71.9C107.185 71.4733 107.598 71.14 108.118 70.9C108.651 70.66 109.251 70.54 109.918 70.54C110.251 70.54 110.611 70.5867 110.998 70.68C111.385 70.76 111.765 70.9 112.138 71.1C112.511 71.3 112.845 71.5733 113.138 71.92C113.258 72.04 113.318 72.18 113.318 72.34C113.318 72.4867 113.251 72.62 113.118 72.74C113.011 72.82 112.885 72.86 112.738 72.86C112.605 72.86 112.491 72.8067 112.398 72.7C112.078 72.34 111.698 72.0667 111.258 71.88C110.818 71.6933 110.345 71.6 109.838 71.6C109.451 71.6 109.085 71.6667 108.738 71.8C108.405 71.92 108.125 72.1067 107.898 72.36C107.671 72.6133 107.558 72.9467 107.558 73.36C107.585 73.7467 107.718 74.06 107.958 74.3C108.211 74.54 108.538 74.74 108.938 74.9C109.351 75.06 109.811 75.2067 110.318 75.34C110.745 75.4467 111.151 75.5733 111.538 75.72C111.938 75.8667 112.285 76.0533 112.578 76.28C112.885 76.4933 113.125 76.7667 113.298 77.1C113.485 77.4333 113.578 77.8533 113.578 78.36C113.578 78.9467 113.411 79.4533 113.078 79.88C112.758 80.3067 112.325 80.6333 111.778 80.86C111.231 81.0867 110.625 81.2 109.958 81.2C109.238 81.2 108.538 81.06 107.858 80.78C107.191 80.5 106.598 80.0333 106.078 79.38Z" fill="white"/>
<path d="M72.25 0H39.75C34.9175 0 31 3.91751 31 8.75V41.25C31 46.0825 34.9175 50 39.75 50H72.25C77.0825 50 81 46.0825 81 41.25V8.75C81 3.91751 77.0825 0 72.25 0Z" fill="#E7E7E7"/>
<path d="M52.0392 29.2253H45.1144L43.3263 34.9473C43.3046 35.1207 43.1962 35.2074 43.0012 35.2074H39.7501C39.5333 35.2074 39.4575 35.099 39.5225 34.8823L45.7971 15.7332C45.9488 15.3214 46.0355 14.7253 46.0572 13.9451C46.0572 13.815 46.1222 13.75 46.2523 13.75H50.8038C50.9338 13.75 51.0097 13.8042 51.0314 13.9126L58.0537 34.9148C58.1187 35.1099 58.0646 35.2074 57.8912 35.2074H54.25C54.0982 35.2074 53.9899 35.1424 53.9248 35.0123L52.0392 29.2253ZM45.8946 26.1368H51.2915C51.1614 25.6816 50.8905 24.793 50.4787 23.4709C50.0669 22.1487 49.6876 20.9133 49.3408 19.7646C48.994 18.6158 48.7339 17.7055 48.5605 17.0336H48.528C48.2896 18.1607 47.4118 21.1951 45.8946 26.1368Z" fill="black"/>
<path d="M68.7938 27.9899H62.8443C62.8659 29.3771 63.2561 30.4716 64.0147 31.2735C64.7732 32.0755 65.9111 32.4765 67.4283 32.4765C68.8154 32.4765 70.0508 32.238 71.1345 31.7612C71.2646 31.6745 71.3296 31.7179 71.3296 31.8913V34.2646C71.3296 34.4163 71.2646 34.5463 71.1345 34.6547C69.8991 35.2182 68.382 35.5 66.583 35.5C63.9171 35.5 61.9556 34.7414 60.6985 33.2242C59.4631 31.6854 58.8454 29.7672 58.8454 27.4697C58.8454 25.0856 59.4956 23.0916 60.7961 21.4877C62.0965 19.8838 63.8738 19.0818 66.1279 19.0818C68.2736 19.0818 69.8666 19.7429 70.907 21.065C71.969 22.3871 72.5 23.9368 72.5 25.7141C72.5 26.6028 72.4567 27.2313 72.37 27.5998C72.3483 27.7515 72.2616 27.8382 72.1099 27.8599C71.5463 27.9466 70.441 27.9899 68.7938 27.9899ZM62.8443 25.4865H67.1357C68.0677 25.4865 68.5987 25.4649 68.7287 25.4215C68.7504 25.3348 68.7612 25.1831 68.7612 24.9664C68.7612 24.1428 68.5445 23.4058 68.111 22.7556C67.6775 22.1054 66.9731 21.7803 65.9978 21.7803C65.0442 21.7803 64.3072 22.1271 63.7871 22.8206C63.2669 23.5142 62.9526 24.4028 62.8443 25.4865Z" fill="black"/>
</svg>
