<svg width="76" height="86" viewBox="0 0 76 86" fill="none" xmlns="http://www.w3.org/2000/svg">
<path d="M11.4401 70.54C12.3467 70.54 13.1467 70.7667 13.8401 71.22C14.5467 71.6733 15.1067 72.3 15.5201 73.1C15.9334 73.8867 16.1401 74.8 16.1401 75.84C16.1401 76.8533 15.9334 77.7667 15.5201 78.58C15.1067 79.3933 14.5467 80.0333 13.8401 80.5C13.1334 80.9667 12.3401 81.2 11.4601 81.2C10.9934 81.2 10.5467 81.1267 10.1201 80.98C9.70673 80.8333 9.32673 80.64 8.98006 80.4C8.63339 80.1467 8.32673 79.8533 8.06006 79.52C7.79339 79.1867 7.58006 78.8267 7.42006 78.44L7.78006 78.18V80.44C7.78006 80.6133 7.72006 80.76 7.60006 80.88C7.49339 80.9867 7.35339 81.04 7.18006 81.04C7.00673 81.04 6.86006 80.9867 6.74006 80.88C6.63339 80.76 6.58006 80.6133 6.58006 80.44V66.82C6.58006 66.6467 6.63339 66.5067 6.74006 66.4C6.84673 66.28 6.99339 66.22 7.18006 66.22C7.35339 66.22 7.49339 66.28 7.60006 66.4C7.72006 66.5067 7.78006 66.6467 7.78006 66.82V73.52L7.50006 73.36C7.63339 72.9467 7.82673 72.5733 8.08006 72.24C8.34673 71.8933 8.65339 71.5933 9.00006 71.34C9.34673 71.0867 9.72673 70.8933 10.1401 70.76C10.5534 70.6133 10.9867 70.54 11.4401 70.54ZM11.3401 71.66C10.6201 71.66 9.98673 71.84 9.44006 72.2C8.89339 72.56 8.46006 73.0533 8.14006 73.68C7.83339 74.3067 7.68006 75.0267 7.68006 75.84C7.68006 76.64 7.83339 77.3667 8.14006 78.02C8.46006 78.66 8.89339 79.1667 9.44006 79.54C9.98673 79.9 10.6201 80.08 11.3401 80.08C12.0467 80.08 12.6667 79.8933 13.2001 79.52C13.7467 79.1467 14.1801 78.64 14.5001 78C14.8201 77.3467 14.9801 76.6267 14.9801 75.84C14.9801 75.0267 14.8201 74.3067 14.5001 73.68C14.1801 73.0533 13.7467 72.56 13.2001 72.2C12.6667 71.84 12.0467 71.66 11.3401 71.66ZM20.029 80.4C20.029 80.56 19.969 80.7 19.849 80.82C19.729 80.94 19.589 81 19.429 81C19.2556 81 19.109 80.94 18.989 80.82C18.8823 80.7 18.829 80.56 18.829 80.4V66.8C18.829 66.64 18.889 66.5 19.009 66.38C19.129 66.26 19.269 66.2 19.429 66.2C19.6023 66.2 19.7423 66.26 19.849 66.38C19.969 66.5 20.029 66.64 20.029 66.8V80.4ZM27.743 81.2C26.7164 81.2 25.8097 80.98 25.023 80.54C24.2364 80.1 23.623 79.4867 23.183 78.7C22.743 77.9133 22.523 76.9933 22.523 75.94C22.523 74.8067 22.743 73.84 23.183 73.04C23.6364 72.24 24.2164 71.6267 24.923 71.2C25.643 70.76 26.403 70.54 27.203 70.54C27.7897 70.54 28.3564 70.6467 28.903 70.86C29.463 71.06 29.9564 71.3667 30.383 71.78C30.823 72.18 31.1697 72.6733 31.423 73.26C31.6897 73.8467 31.8364 74.5267 31.863 75.3C31.8497 75.46 31.783 75.6 31.663 75.72C31.543 75.8267 31.403 75.88 31.243 75.88H23.223L22.983 74.8H30.863L30.603 75.04V74.64C30.5497 74.0133 30.3497 73.48 30.003 73.04C29.6564 72.6 29.2364 72.2667 28.743 72.04C28.2497 71.8133 27.7364 71.7 27.203 71.7C26.803 71.7 26.3897 71.78 25.963 71.94C25.5497 72.1 25.1697 72.3533 24.823 72.7C24.4897 73.0333 24.2164 73.4667 24.003 74C23.7897 74.52 23.683 75.14 23.683 75.86C23.683 76.6467 23.843 77.36 24.163 78C24.483 78.64 24.943 79.1467 25.543 79.52C26.1564 79.8933 26.883 80.08 27.723 80.08C28.1897 80.08 28.6097 80.0133 28.983 79.88C29.3564 79.7467 29.683 79.5733 29.963 79.36C30.243 79.1333 30.4764 78.9 30.663 78.66C30.8097 78.54 30.9564 78.48 31.103 78.48C31.2364 78.48 31.3497 78.5333 31.443 78.64C31.5497 78.7467 31.603 78.8667 31.603 79C31.603 79.16 31.5364 79.3 31.403 79.42C31.003 79.9 30.483 80.32 29.843 80.68C29.203 81.0267 28.503 81.2 27.743 81.2ZM39.2516 70.54C40.1316 70.54 40.8316 70.72 41.3516 71.08C41.885 71.4267 42.265 71.9067 42.4916 72.52C42.7316 73.12 42.8516 73.7867 42.8516 74.52V80.4C42.8516 80.56 42.7916 80.7 42.6716 80.82C42.5516 80.94 42.4116 81 42.2516 81C42.065 81 41.9183 80.94 41.8116 80.82C41.705 80.7 41.6516 80.56 41.6516 80.4V74.58C41.6516 74.0467 41.565 73.56 41.3916 73.12C41.2183 72.68 40.9316 72.3267 40.5316 72.06C40.145 71.7933 39.6316 71.66 38.9916 71.66C38.4183 71.66 37.8716 71.7933 37.3516 72.06C36.845 72.3267 36.4316 72.68 36.1116 73.12C35.7916 73.56 35.6316 74.0467 35.6316 74.58V80.4C35.6316 80.56 35.5716 80.7 35.4516 80.82C35.3316 80.94 35.1916 81 35.0316 81C34.845 81 34.6983 80.94 34.5916 80.82C34.485 80.7 34.4316 80.56 34.4316 80.4V71.44C34.4316 71.28 34.485 71.14 34.5916 71.02C34.7116 70.9 34.8583 70.84 35.0316 70.84C35.205 70.84 35.345 70.9 35.4516 71.02C35.5716 71.14 35.6316 71.28 35.6316 71.44V73.12L35.1716 73.84C35.1983 73.4133 35.3316 73.0067 35.5716 72.62C35.825 72.22 36.145 71.8667 36.5316 71.56C36.9183 71.24 37.345 70.9933 37.8116 70.82C38.2916 70.6333 38.7716 70.54 39.2516 70.54ZM54.3741 66.2C54.5475 66.2 54.6875 66.26 54.7941 66.38C54.9141 66.4867 54.9741 66.6267 54.9741 66.8V80.4C54.9741 80.56 54.9141 80.7 54.7941 80.82C54.6741 80.94 54.5341 81 54.3741 81C54.2008 81 54.0541 80.94 53.9341 80.82C53.8275 80.7 53.7741 80.56 53.7741 80.4V78.02L54.1141 77.74C54.1141 78.1133 54.0141 78.5067 53.8141 78.92C53.6141 79.32 53.3275 79.6933 52.9541 80.04C52.5941 80.3867 52.1675 80.6667 51.6741 80.88C51.1941 81.0933 50.6741 81.2 50.1141 81.2C49.2208 81.2 48.4141 80.9667 47.6941 80.5C46.9875 80.0333 46.4275 79.4 46.0141 78.6C45.6008 77.8 45.3941 76.8867 45.3941 75.86C45.3941 74.8467 45.6008 73.94 46.0141 73.14C46.4275 72.3267 46.9875 71.6933 47.6941 71.24C48.4008 70.7733 49.2008 70.54 50.0941 70.54C50.6408 70.54 51.1608 70.64 51.6541 70.84C52.1475 71.04 52.5808 71.3133 52.9541 71.66C53.3408 72.0067 53.6408 72.4067 53.8541 72.86C54.0808 73.3 54.1941 73.76 54.1941 74.24L53.7741 73.94V66.8C53.7741 66.64 53.8275 66.5 53.9341 66.38C54.0541 66.26 54.2008 66.2 54.3741 66.2ZM50.2141 80.08C50.9341 80.08 51.5608 79.9 52.0941 79.54C52.6408 79.1667 53.0675 78.6667 53.3741 78.04C53.6941 77.4 53.8541 76.6733 53.8541 75.86C53.8541 75.06 53.6941 74.3467 53.3741 73.72C53.0675 73.08 52.6408 72.58 52.0941 72.22C51.5475 71.8467 50.9208 71.66 50.2141 71.66C49.5208 71.66 48.8941 71.8467 48.3341 72.22C47.7875 72.58 47.3541 73.08 47.0341 73.72C46.7275 74.3467 46.5741 75.06 46.5741 75.86C46.5741 76.66 46.7275 77.38 47.0341 78.02C47.3541 78.66 47.7875 79.1667 48.3341 79.54C48.8941 79.9 49.5208 80.08 50.2141 80.08ZM62.743 81.2C61.7164 81.2 60.8097 80.98 60.023 80.54C59.2364 80.1 58.623 79.4867 58.183 78.7C57.743 77.9133 57.523 76.9933 57.523 75.94C57.523 74.8067 57.743 73.84 58.183 73.04C58.6364 72.24 59.2164 71.6267 59.923 71.2C60.643 70.76 61.403 70.54 62.203 70.54C62.7897 70.54 63.3564 70.6467 63.903 70.86C64.463 71.06 64.9564 71.3667 65.383 71.78C65.823 72.18 66.1697 72.6733 66.423 73.26C66.6897 73.8467 66.8364 74.5267 66.863 75.3C66.8497 75.46 66.783 75.6 66.663 75.72C66.543 75.8267 66.403 75.88 66.243 75.88H58.223L57.983 74.8H65.863L65.603 75.04V74.64C65.5497 74.0133 65.3497 73.48 65.003 73.04C64.6564 72.6 64.2364 72.2667 63.743 72.04C63.2497 71.8133 62.7364 71.7 62.203 71.7C61.803 71.7 61.3897 71.78 60.963 71.94C60.5497 72.1 60.1697 72.3533 59.823 72.7C59.4897 73.0333 59.2164 73.4667 59.003 74C58.7897 74.52 58.683 75.14 58.683 75.86C58.683 76.6467 58.843 77.36 59.163 78C59.483 78.64 59.943 79.1467 60.543 79.52C61.1564 79.8933 61.883 80.08 62.723 80.08C63.1897 80.08 63.6097 80.0133 63.983 79.88C64.3564 79.7467 64.683 79.5733 64.963 79.36C65.243 79.1333 65.4764 78.9 65.663 78.66C65.8097 78.54 65.9564 78.48 66.103 78.48C66.2364 78.48 66.3497 78.5333 66.443 78.64C66.5497 78.7467 66.603 78.8667 66.603 79C66.603 79.16 66.5364 79.3 66.403 79.42C66.003 79.9 65.483 80.32 64.843 80.68C64.203 81.0267 63.503 81.2 62.743 81.2ZM70.0316 81C69.845 81 69.6983 80.94 69.5916 80.82C69.485 80.7 69.4316 80.56 69.4316 80.4V71.44C69.4316 71.28 69.485 71.14 69.5916 71.02C69.7116 70.9 69.8583 70.84 70.0316 70.84C70.205 70.84 70.345 70.9 70.4516 71.02C70.5716 71.14 70.6316 71.28 70.6316 71.44V74.44L70.3316 74.5C70.3716 74.0333 70.485 73.5733 70.6716 73.12C70.8716 72.6533 71.1383 72.2267 71.4716 71.84C71.805 71.4533 72.1983 71.14 72.6516 70.9C73.1183 70.66 73.6383 70.54 74.2116 70.54C74.4516 70.54 74.685 70.5933 74.9116 70.7C75.1383 70.7933 75.2516 70.9533 75.2516 71.18C75.2516 71.38 75.1983 71.5333 75.0916 71.64C74.985 71.7467 74.8583 71.8 74.7116 71.8C74.5916 71.8 74.4583 71.7667 74.3116 71.7C74.1783 71.6333 73.9983 71.6 73.7716 71.6C73.3983 71.6 73.025 71.7133 72.6516 71.94C72.2783 72.1533 71.9383 72.4467 71.6316 72.82C71.325 73.1933 71.0783 73.6133 70.8916 74.08C70.7183 74.5333 70.6316 74.9933 70.6316 75.46V80.4C70.6316 80.56 70.5716 80.7 70.4516 80.82C70.3316 80.94 70.1916 81 70.0316 81Z" fill="white"/>
<path d="M25.1306 27.7418C25.3549 23.7407 27.3142 20.2157 30.2701 17.7169C33.1688 15.2625 37.0705 13.7624 41.3276 13.7624C45.5805 13.7624 49.4822 15.2625 52.3831 17.7169C55.3368 20.2157 57.2961 23.7407 57.5225 27.7376C57.7468 31.8486 56.0943 35.6677 53.1956 38.4987C50.2397 41.3784 46.0354 43.1853 41.3276 43.1853C36.6198 43.1853 32.4071 41.3784 29.4534 38.4987C26.5525 35.6677 24.9042 31.8486 25.1306 27.7418V27.7418Z" fill="#E7E7E7"/>
<path d="M33.0047 28.1035C33.1198 26.0505 34.1251 24.2418 35.6418 22.9597C37.1291 21.7003 39.1311 20.9306 41.3154 20.9306C43.4976 20.9306 45.4996 21.7003 46.9881 22.9597C48.5036 24.2418 49.509 26.0505 49.6251 28.1013C49.7402 30.2108 48.8923 32.1704 47.405 33.623C45.8883 35.1005 43.7311 36.0277 41.3154 36.0277C38.8998 36.0277 36.7383 35.1005 35.2227 33.623C33.7342 32.1704 32.8885 30.2107 33.0047 28.1035V28.1035Z" fill="#808080"/>
<path d="M19.7704 32.2615C19.7845 33.0649 20.0408 34.6261 20.4251 35.8452C21.2328 38.4258 22.6029 40.8132 24.5094 42.9172C26.4657 45.0798 28.8748 46.8168 31.6574 48.0501C34.5822 49.3453 37.7512 50.0054 41.043 50C44.3293 49.9956 47.4984 49.3225 50.4231 48.0175C53.2057 46.7723 55.6126 45.0277 57.5657 42.864C59.4711 40.7513 60.839 38.3596 61.6489 35.779C62.056 34.4751 62.3133 33.1517 62.4165 31.824C62.5175 30.5158 62.4751 29.2054 62.2895 27.8961C61.9268 25.3448 61.0442 22.9509 59.6849 20.7688C58.4418 18.7636 56.8394 17.0081 54.9341 15.5305L54.9384 15.5273L35.7102 0.763464C35.6928 0.750436 35.6787 0.736344 35.6602 0.724402C34.3987 -0.243999 32.2773 -0.240737 30.8898 0.729836C29.4871 1.71126 29.3265 3.33429 30.575 4.35806L30.5695 4.3635L38.5894 10.885L14.1456 10.9111H14.113C12.0926 10.9132 10.1504 12.2388 9.76603 13.914C9.37085 15.6206 10.7431 17.0363 12.8439 17.0439L12.8406 17.0515L25.2302 17.0276L3.12174 33.9975C3.09351 34.0181 3.06311 34.0398 3.03706 34.0604C0.951492 35.6574 0.277309 38.3129 1.59096 39.9935C2.92416 41.7023 5.75884 41.7056 7.86611 40.0033L19.9322 30.1282C19.9322 30.1282 19.7563 31.4614 19.7704 32.2615V32.2615ZM50.776 36.7257C48.2898 39.2585 44.8091 40.6948 41.043 40.7024C37.2714 40.709 33.7907 39.2857 31.3045 36.7572C30.0897 35.525 29.1973 34.1071 28.6468 32.597C28.1073 31.1129 27.8977 29.5376 28.0367 27.9482C28.1681 26.3946 28.6306 24.9127 29.3688 23.5719C30.094 22.2539 31.0928 21.063 32.3262 20.0555C34.7429 18.0861 37.8196 17.02 41.0376 17.0157C44.2587 17.0113 47.3333 18.0677 49.7522 20.0305C50.9833 21.0337 51.9811 22.2203 52.7063 23.5361C53.4478 24.8758 53.907 26.3523 54.0438 27.9102C54.1806 29.4974 53.9711 31.0705 53.4315 32.5557C52.88 34.0702 51.9908 35.488 50.776 36.7257V36.7257Z" fill="#A9A9A9"/>
</svg>
