<svg width="50" height="86" viewBox="0 0 50 86" fill="none" xmlns="http://www.w3.org/2000/svg">
<g clip-path="url(#clip0_2_500)">
<path d="M8.85417 4.03008e-06H41.1458C42.3089 -0.00112026 43.4607 0.233004 44.5355 0.688979C45.6102 1.14495 46.5867 1.81383 47.4091 2.65732C48.2315 3.50081 48.8837 4.50236 49.3283 5.60465C49.7728 6.70694 50.0011 7.88832 50 9.0812V40.9188C50.0011 42.1117 49.7728 43.2931 49.3283 44.3954C48.8837 45.4976 48.2315 46.4992 47.4091 47.3427C46.5867 48.1862 45.6102 48.855 44.5355 49.311C43.4607 49.767 42.3089 50.0011 41.1458 50H8.85417C7.69112 50.0011 6.53926 49.767 5.46453 49.311C4.3898 48.855 3.41329 48.1862 2.59088 47.3427C1.76848 46.4992 1.11633 45.4976 0.671755 44.3954C0.227179 43.2931 -0.00109226 42.1117 3.92932e-06 40.9188V9.0812C-0.00109226 7.88832 0.227179 6.70694 0.671755 5.60465C1.11633 4.50236 1.76848 3.50081 2.59088 2.65732C3.41329 1.81383 4.3898 1.14495 5.46453 0.688979C6.53926 0.233004 7.69112 -0.00112026 8.85417 4.03008e-06V4.03008e-06Z" fill="#E7E7E7"/>
<path d="M21.7672 40.5345C13.211 40.5345 6.25 33.5735 6.25 25.0172C6.25 16.461 13.211 9.5 21.7672 9.5C27.2883 9.5 32.4375 12.4711 35.205 17.2538L28.4896 21.1398C27.1044 18.7458 24.5284 17.2586 21.7672 17.2586C17.489 17.2586 14.0086 20.739 14.0086 25.0172C14.0086 29.2953 17.489 32.7759 21.7672 32.7759C24.5287 32.7759 27.1047 31.2886 28.49 28.8943L35.2055 32.7801C32.4379 37.5632 27.2886 40.5345 21.7672 40.5345Z" fill="black"/>
<path d="M37.2845 24.1551H35.5602V22.431H33.8363V24.1551H32.1121V25.8792H33.8363V27.6034H35.5602V25.8792H37.2845V24.1551Z" fill="black"/>
<path d="M43.75 24.1551H42.0257V22.431H40.3018V24.1551H38.5776V25.8792H40.3018V27.6034H42.0257V25.8792H43.75V24.1551Z" fill="black"/>
</g>
<path d="M14.1626 70.54C14.8026 70.54 15.3893 70.6133 15.9226 70.76C16.456 70.8933 16.8826 71.08 17.2026 71.32C17.536 71.56 17.7026 71.82 17.7026 72.1C17.7026 72.2333 17.656 72.3667 17.5626 72.5C17.4693 72.62 17.3426 72.68 17.1826 72.68C17.0226 72.68 16.8893 72.64 16.7826 72.56C16.6893 72.48 16.5893 72.3867 16.4826 72.28C16.3893 72.1733 16.2493 72.0733 16.0626 71.98C15.8893 71.9 15.6426 71.8267 15.3226 71.76C15.0026 71.6933 14.636 71.66 14.2226 71.66C13.476 71.66 12.8026 71.8467 12.2026 72.22C11.6026 72.5933 11.1293 73.1 10.7826 73.74C10.436 74.3667 10.2626 75.0733 10.2626 75.86C10.2626 76.66 10.4293 77.38 10.7626 78.02C11.096 78.66 11.556 79.1667 12.1426 79.54C12.7293 79.9 13.416 80.08 14.2026 80.08C14.736 80.08 15.1493 80.0333 15.4426 79.94C15.736 79.8467 15.9893 79.74 16.2026 79.62C16.456 79.4733 16.636 79.3333 16.7426 79.2C16.8626 79.0533 17.016 78.98 17.2026 78.98C17.376 78.98 17.5026 79.0333 17.5826 79.14C17.676 79.2333 17.7226 79.36 17.7226 79.52C17.7226 79.7333 17.5626 79.9733 17.2426 80.24C16.936 80.4933 16.5093 80.72 15.9626 80.92C15.416 81.1067 14.7893 81.2 14.0826 81.2C13.0826 81.2 12.2026 80.9667 11.4426 80.5C10.696 80.0333 10.1093 79.4 9.68264 78.6C9.26931 77.7867 9.06264 76.8733 9.06264 75.86C9.06264 74.8867 9.27597 74 9.70264 73.2C10.1293 72.4 10.7226 71.76 11.4826 71.28C12.256 70.7867 13.1493 70.54 14.1626 70.54ZM19.9742 74.92C19.8142 74.92 19.6742 74.8667 19.5542 74.76C19.4475 74.64 19.3942 74.4933 19.3942 74.32C19.3942 74.16 19.4475 74.0333 19.5542 73.94C19.6742 73.8333 19.8142 73.78 19.9742 73.78H28.2342C28.3942 73.78 28.5275 73.8333 28.6342 73.94C28.7542 74.0467 28.8142 74.1867 28.8142 74.36C28.8142 74.5067 28.7542 74.64 28.6342 74.76C28.5275 74.8667 28.3942 74.92 28.2342 74.92H19.9742ZM24.0942 79.24C23.9075 79.24 23.7542 79.18 23.6342 79.06C23.5142 78.94 23.4542 78.7867 23.4542 78.6V70.14C23.4542 69.94 23.5142 69.78 23.6342 69.66C23.7675 69.54 23.9209 69.48 24.0942 69.48C24.2942 69.48 24.4475 69.54 24.5542 69.66C24.6742 69.78 24.7342 69.9333 24.7342 70.12V78.6C24.7342 78.7867 24.6742 78.94 24.5542 79.06C24.4342 79.18 24.2809 79.24 24.0942 79.24ZM31.2047 74.92C31.0447 74.92 30.9047 74.8667 30.7847 74.76C30.678 74.64 30.6247 74.4933 30.6247 74.32C30.6247 74.16 30.678 74.0333 30.7847 73.94C30.9047 73.8333 31.0447 73.78 31.2047 73.78H39.4647C39.6247 73.78 39.758 73.8333 39.8647 73.94C39.9847 74.0467 40.0447 74.1867 40.0447 74.36C40.0447 74.5067 39.9847 74.64 39.8647 74.76C39.758 74.8667 39.6247 74.92 39.4647 74.92H31.2047ZM35.3247 79.24C35.138 79.24 34.9847 79.18 34.8647 79.06C34.7447 78.94 34.6847 78.7867 34.6847 78.6V70.14C34.6847 69.94 34.7447 69.78 34.8647 69.66C34.998 69.54 35.1513 69.48 35.3247 69.48C35.5247 69.48 35.678 69.54 35.7847 69.66C35.9047 69.78 35.9647 69.9333 35.9647 70.12V78.6C35.9647 78.7867 35.9047 78.94 35.7847 79.06C35.6647 79.18 35.5113 79.24 35.3247 79.24Z" fill="#E7E7E7"/>
<defs>
<clipPath id="clip0_2_500">
<rect width="50" height="50" fill="white"/>
</clipPath>
</defs>
</svg>
