<svg width="43" height="86" viewBox="0 0 43 86" fill="none" xmlns="http://www.w3.org/2000/svg">
<path d="M0 0L3.89509 44.1741L21.4286 50L38.9621 44.1741L42.8571 0H0ZM34.9442 8.92857L34.4085 14.2076L21.5402 19.7098L21.5067 19.721H33.9509L32.5223 36.0826L21.5625 39.2857L10.5357 36.0268L9.82143 27.779H15.279L15.6362 32.0536L21.5067 33.5379L27.6116 31.8192L28.0246 24.9442L9.46429 24.8884V24.8772L9.44196 24.8884L9.04018 19.721L21.5513 14.5089L22.2768 14.2076H8.56027L7.91295 8.92857H34.9442Z" fill="#E7E7E7"/>
<path d="M12.883 70.54C13.523 70.54 14.1097 70.6133 14.643 70.76C15.1764 70.8933 15.603 71.08 15.923 71.32C16.2564 71.56 16.423 71.82 16.423 72.1C16.423 72.2333 16.3764 72.3667 16.283 72.5C16.1897 72.62 16.063 72.68 15.903 72.68C15.743 72.68 15.6097 72.64 15.503 72.56C15.4097 72.48 15.3097 72.3867 15.203 72.28C15.1097 72.1733 14.9697 72.0733 14.783 71.98C14.6097 71.9 14.363 71.8267 14.043 71.76C13.723 71.6933 13.3564 71.66 12.943 71.66C12.1964 71.66 11.523 71.8467 10.923 72.22C10.323 72.5933 9.84971 73.1 9.50304 73.74C9.15637 74.3667 8.98304 75.0733 8.98304 75.86C8.98304 76.66 9.14971 77.38 9.48304 78.02C9.81637 78.66 10.2764 79.1667 10.863 79.54C11.4497 79.9 12.1364 80.08 12.923 80.08C13.4564 80.08 13.8697 80.0333 14.163 79.94C14.4564 79.8467 14.7097 79.74 14.923 79.62C15.1764 79.4733 15.3564 79.3333 15.463 79.2C15.583 79.0533 15.7364 78.98 15.923 78.98C16.0964 78.98 16.223 79.0333 16.303 79.14C16.3964 79.2333 16.443 79.36 16.443 79.52C16.443 79.7333 16.283 79.9733 15.963 80.24C15.6564 80.4933 15.2297 80.72 14.683 80.92C14.1364 81.1067 13.5097 81.2 12.803 81.2C11.803 81.2 10.923 80.9667 10.163 80.5C9.41637 80.0333 8.82971 79.4 8.40304 78.6C7.98971 77.7867 7.78304 76.8733 7.78304 75.86C7.78304 74.8867 7.99637 74 8.42304 73.2C8.84971 72.4 9.44304 71.76 10.203 71.28C10.9764 70.7867 11.8697 70.54 12.883 70.54ZM18.1546 79.38C18.0479 79.22 17.9946 79.0667 17.9946 78.92C18.0079 78.76 18.0946 78.6333 18.2546 78.54C18.3613 78.4467 18.4813 78.4067 18.6146 78.42C18.7613 78.4333 18.8946 78.5 19.0146 78.62C19.3746 79.0867 19.8079 79.4667 20.3146 79.76C20.8346 80.04 21.4479 80.18 22.1546 80.18C22.5279 80.18 22.8946 80.12 23.2546 80C23.6279 79.8667 23.9346 79.6733 24.1746 79.42C24.4146 79.1533 24.5346 78.82 24.5346 78.42C24.5346 78.0067 24.4146 77.6733 24.1746 77.42C23.9346 77.1667 23.6213 76.9667 23.2346 76.82C22.8613 76.6733 22.4613 76.5467 22.0346 76.44C21.5813 76.32 21.1413 76.1867 20.7146 76.04C20.2879 75.88 19.9079 75.6867 19.5746 75.46C19.2546 75.22 18.9946 74.9333 18.7946 74.6C18.5946 74.2667 18.4946 73.86 18.4946 73.38C18.4946 72.82 18.6479 72.3267 18.9546 71.9C19.2613 71.4733 19.6746 71.14 20.1946 70.9C20.7279 70.66 21.3279 70.54 21.9946 70.54C22.3279 70.54 22.6879 70.5867 23.0746 70.68C23.4613 70.76 23.8413 70.9 24.2146 71.1C24.5879 71.3 24.9213 71.5733 25.2146 71.92C25.3346 72.04 25.3946 72.18 25.3946 72.34C25.3946 72.4867 25.3279 72.62 25.1946 72.74C25.0879 72.82 24.9613 72.86 24.8146 72.86C24.6813 72.86 24.5679 72.8067 24.4746 72.7C24.1546 72.34 23.7746 72.0667 23.3346 71.88C22.8946 71.6933 22.4213 71.6 21.9146 71.6C21.5279 71.6 21.1613 71.6667 20.8146 71.8C20.4813 71.92 20.2013 72.1067 19.9746 72.36C19.7479 72.6133 19.6346 72.9467 19.6346 73.36C19.6613 73.7467 19.7946 74.06 20.0346 74.3C20.2879 74.54 20.6146 74.74 21.0146 74.9C21.4279 75.06 21.8879 75.2067 22.3946 75.34C22.8213 75.4467 23.2279 75.5733 23.6146 75.72C24.0146 75.8667 24.3613 76.0533 24.6546 76.28C24.9613 76.4933 25.2013 76.7667 25.3746 77.1C25.5613 77.4333 25.6546 77.8533 25.6546 78.36C25.6546 78.9467 25.4879 79.4533 25.1546 79.88C24.8346 80.3067 24.4013 80.6333 23.8546 80.86C23.3079 81.0867 22.7013 81.2 22.0346 81.2C21.3146 81.2 20.6146 81.06 19.9346 80.78C19.2679 80.5 18.6746 80.0333 18.1546 79.38ZM27.5296 79.38C27.4229 79.22 27.3696 79.0667 27.3696 78.92C27.3829 78.76 27.4696 78.6333 27.6296 78.54C27.7363 78.4467 27.8563 78.4067 27.9896 78.42C28.1363 78.4333 28.2696 78.5 28.3896 78.62C28.7496 79.0867 29.1829 79.4667 29.6896 79.76C30.2096 80.04 30.8229 80.18 31.5296 80.18C31.9029 80.18 32.2696 80.12 32.6296 80C33.0029 79.8667 33.3096 79.6733 33.5496 79.42C33.7896 79.1533 33.9096 78.82 33.9096 78.42C33.9096 78.0067 33.7896 77.6733 33.5496 77.42C33.3096 77.1667 32.9963 76.9667 32.6096 76.82C32.2363 76.6733 31.8363 76.5467 31.4096 76.44C30.9563 76.32 30.5163 76.1867 30.0896 76.04C29.6629 75.88 29.2829 75.6867 28.9496 75.46C28.6296 75.22 28.3696 74.9333 28.1696 74.6C27.9696 74.2667 27.8696 73.86 27.8696 73.38C27.8696 72.82 28.0229 72.3267 28.3296 71.9C28.6363 71.4733 29.0496 71.14 29.5696 70.9C30.1029 70.66 30.7029 70.54 31.3696 70.54C31.7029 70.54 32.0629 70.5867 32.4496 70.68C32.8363 70.76 33.2163 70.9 33.5896 71.1C33.9629 71.3 34.2963 71.5733 34.5896 71.92C34.7096 72.04 34.7696 72.18 34.7696 72.34C34.7696 72.4867 34.7029 72.62 34.5696 72.74C34.4629 72.82 34.3363 72.86 34.1896 72.86C34.0563 72.86 33.9429 72.8067 33.8496 72.7C33.5296 72.34 33.1496 72.0667 32.7096 71.88C32.2696 71.6933 31.7963 71.6 31.2896 71.6C30.9029 71.6 30.5363 71.6667 30.1896 71.8C29.8563 71.92 29.5763 72.1067 29.3496 72.36C29.1229 72.6133 29.0096 72.9467 29.0096 73.36C29.0363 73.7467 29.1696 74.06 29.4096 74.3C29.6629 74.54 29.9896 74.74 30.3896 74.9C30.8029 75.06 31.2629 75.2067 31.7696 75.34C32.1963 75.4467 32.6029 75.5733 32.9896 75.72C33.3896 75.8667 33.7363 76.0533 34.0296 76.28C34.3363 76.4933 34.5763 76.7667 34.7496 77.1C34.9363 77.4333 35.0296 77.8533 35.0296 78.36C35.0296 78.9467 34.8629 79.4533 34.5296 79.88C34.2096 80.3067 33.7763 80.6333 33.2296 80.86C32.6829 81.0867 32.0763 81.2 31.4096 81.2C30.6896 81.2 29.9896 81.06 29.3096 80.78C28.6429 80.5 28.0496 80.0333 27.5296 79.38Z" fill="white"/>
</svg>
