<svg width="72" height="86" viewBox="0 0 72 86" fill="none" xmlns="http://www.w3.org/2000/svg">
<path d="M13.96 66.2C14.1333 66.2 14.2733 66.26 14.38 66.38C14.5 66.4867 14.56 66.6267 14.56 66.8V80.4C14.56 80.56 14.5 80.7 14.38 80.82C14.26 80.94 14.12 81 13.96 81C13.7867 81 13.64 80.94 13.52 80.82C13.4133 80.7 13.36 80.56 13.36 80.4V78.02L13.7 77.74C13.7 78.1133 13.6 78.5067 13.4 78.92C13.2 79.32 12.9133 79.6933 12.54 80.04C12.18 80.3867 11.7533 80.6667 11.26 80.88C10.78 81.0933 10.26 81.2 9.7 81.2C8.80667 81.2 8 80.9667 7.28 80.5C6.57333 80.0333 6.01333 79.4 5.6 78.6C5.18667 77.8 4.98 76.8867 4.98 75.86C4.98 74.8467 5.18667 73.94 5.6 73.14C6.01333 72.3267 6.57333 71.6933 7.28 71.24C7.98667 70.7733 8.78667 70.54 9.68 70.54C10.2267 70.54 10.7467 70.64 11.24 70.84C11.7333 71.04 12.1667 71.3133 12.54 71.66C12.9267 72.0067 13.2267 72.4067 13.44 72.86C13.6667 73.3 13.78 73.76 13.78 74.24L13.36 73.94V66.8C13.36 66.64 13.4133 66.5 13.52 66.38C13.64 66.26 13.7867 66.2 13.96 66.2ZM9.8 80.08C10.52 80.08 11.1467 79.9 11.68 79.54C12.2267 79.1667 12.6533 78.6667 12.96 78.04C13.28 77.4 13.44 76.6733 13.44 75.86C13.44 75.06 13.28 74.3467 12.96 73.72C12.6533 73.08 12.2267 72.58 11.68 72.22C11.1333 71.8467 10.5067 71.66 9.8 71.66C9.10667 71.66 8.48 71.8467 7.92 72.22C7.37333 72.58 6.94 73.08 6.62 73.72C6.31333 74.3467 6.16 75.06 6.16 75.86C6.16 76.66 6.31333 77.38 6.62 78.02C6.94 78.66 7.37333 79.1667 7.92 79.54C8.48 79.9 9.10667 80.08 9.8 80.08ZM27.2289 75.88C27.2289 76.8933 27.0089 77.8067 26.5689 78.62C26.1289 79.42 25.5289 80.0533 24.7689 80.52C24.0089 80.9733 23.1422 81.2 22.1689 81.2C21.2222 81.2 20.3622 80.9733 19.5889 80.52C18.8289 80.0533 18.2222 79.42 17.7689 78.62C17.3289 77.8067 17.1089 76.8933 17.1089 75.88C17.1089 74.8533 17.3289 73.94 17.7689 73.14C18.2222 72.34 18.8289 71.7067 19.5889 71.24C20.3622 70.7733 21.2222 70.54 22.1689 70.54C23.1422 70.54 24.0089 70.7733 24.7689 71.24C25.5289 71.7067 26.1289 72.34 26.5689 73.14C27.0089 73.94 27.2289 74.8533 27.2289 75.88ZM26.0289 75.88C26.0289 75.0667 25.8622 74.3467 25.5289 73.72C25.1956 73.08 24.7356 72.58 24.1489 72.22C23.5756 71.8467 22.9156 71.66 22.1689 71.66C21.4489 71.66 20.7956 71.8467 20.2089 72.22C19.6222 72.58 19.1556 73.08 18.8089 73.72C18.4756 74.3467 18.3089 75.0667 18.3089 75.88C18.3089 76.6933 18.4756 77.4133 18.8089 78.04C19.1556 78.6667 19.6222 79.1667 20.2089 79.54C20.7956 79.9 21.4489 80.08 22.1689 80.08C22.9156 80.08 23.5756 79.9 24.1489 79.54C24.7356 79.1667 25.1956 78.6667 25.5289 78.04C25.8622 77.4133 26.0289 76.6933 26.0289 75.88ZM34.2792 70.54C34.9192 70.54 35.5059 70.6133 36.0392 70.76C36.5726 70.8933 36.9992 71.08 37.3192 71.32C37.6526 71.56 37.8192 71.82 37.8192 72.1C37.8192 72.2333 37.7726 72.3667 37.6792 72.5C37.5859 72.62 37.4592 72.68 37.2992 72.68C37.1392 72.68 37.0059 72.64 36.8992 72.56C36.8059 72.48 36.7059 72.3867 36.5992 72.28C36.5059 72.1733 36.3659 72.0733 36.1792 71.98C36.0059 71.9 35.7592 71.8267 35.4392 71.76C35.1192 71.6933 34.7526 71.66 34.3392 71.66C33.5926 71.66 32.9192 71.8467 32.3192 72.22C31.7192 72.5933 31.2459 73.1 30.8992 73.74C30.5526 74.3667 30.3792 75.0733 30.3792 75.86C30.3792 76.66 30.5459 77.38 30.8792 78.02C31.2126 78.66 31.6726 79.1667 32.2592 79.54C32.8459 79.9 33.5326 80.08 34.3192 80.08C34.8526 80.08 35.2659 80.0333 35.5592 79.94C35.8526 79.8467 36.1059 79.74 36.3192 79.62C36.5726 79.4733 36.7526 79.3333 36.8592 79.2C36.9792 79.0533 37.1326 78.98 37.3192 78.98C37.4926 78.98 37.6192 79.0333 37.6992 79.14C37.7926 79.2333 37.8392 79.36 37.8392 79.52C37.8392 79.7333 37.6792 79.9733 37.3592 80.24C37.0526 80.4933 36.6259 80.72 36.0792 80.92C35.5326 81.1067 34.9059 81.2 34.1992 81.2C33.1992 81.2 32.3192 80.9667 31.5592 80.5C30.8126 80.0333 30.2259 79.4 29.7992 78.6C29.3859 77.7867 29.1792 76.8733 29.1792 75.86C29.1792 74.8867 29.3926 74 29.8192 73.2C30.2459 72.4 30.8392 71.76 31.5992 71.28C32.3726 70.7867 33.2659 70.54 34.2792 70.54ZM40.8508 81C40.6774 81 40.5308 80.94 40.4108 80.82C40.3041 80.7 40.2508 80.56 40.2508 80.4V66.8C40.2508 66.64 40.3041 66.5 40.4108 66.38C40.5308 66.26 40.6774 66.2 40.8508 66.2C41.0241 66.2 41.1641 66.26 41.2708 66.38C41.3908 66.5 41.4508 66.64 41.4508 66.8V80.4C41.4508 80.56 41.3908 80.7 41.2708 80.82C41.1641 80.94 41.0241 81 40.8508 81ZM47.6508 70.74C47.7974 70.74 47.9308 70.8067 48.0508 70.94C48.1708 71.06 48.2308 71.1933 48.2308 71.34C48.2308 71.5133 48.1574 71.6667 48.0108 71.8L41.2908 77.52L41.2308 76.1L47.2308 70.94C47.3508 70.8067 47.4908 70.74 47.6508 70.74ZM47.8108 81C47.6374 81 47.4908 80.9267 47.3708 80.78L42.8108 75.94L43.7108 75.12L48.2308 79.94C48.3508 80.0733 48.4108 80.2267 48.4108 80.4C48.4108 80.5867 48.3374 80.7333 48.1908 80.84C48.0441 80.9467 47.9174 81 47.8108 81ZM55.0047 81.2C53.978 81.2 53.0714 80.98 52.2847 80.54C51.498 80.1 50.8847 79.4867 50.4447 78.7C50.0047 77.9133 49.7847 76.9933 49.7847 75.94C49.7847 74.8067 50.0047 73.84 50.4447 73.04C50.898 72.24 51.478 71.6267 52.1847 71.2C52.9047 70.76 53.6647 70.54 54.4647 70.54C55.0514 70.54 55.618 70.6467 56.1647 70.86C56.7247 71.06 57.218 71.3667 57.6447 71.78C58.0847 72.18 58.4314 72.6733 58.6847 73.26C58.9514 73.8467 59.098 74.5267 59.1247 75.3C59.1114 75.46 59.0447 75.6 58.9247 75.72C58.8047 75.8267 58.6647 75.88 58.5047 75.88H50.4847L50.2447 74.8H58.1247L57.8647 75.04V74.64C57.8114 74.0133 57.6114 73.48 57.2647 73.04C56.918 72.6 56.498 72.2667 56.0047 72.04C55.5114 71.8133 54.998 71.7 54.4647 71.7C54.0647 71.7 53.6514 71.78 53.2247 71.94C52.8114 72.1 52.4314 72.3533 52.0847 72.7C51.7514 73.0333 51.478 73.4667 51.2647 74C51.0514 74.52 50.9447 75.14 50.9447 75.86C50.9447 76.6467 51.1047 77.36 51.4247 78C51.7447 78.64 52.2047 79.1467 52.8047 79.52C53.418 79.8933 54.1447 80.08 54.9847 80.08C55.4514 80.08 55.8714 80.0133 56.2447 79.88C56.618 79.7467 56.9447 79.5733 57.2247 79.36C57.5047 79.1333 57.738 78.9 57.9247 78.66C58.0714 78.54 58.218 78.48 58.3647 78.48C58.498 78.48 58.6114 78.5333 58.7047 78.64C58.8114 78.7467 58.8647 78.8667 58.8647 79C58.8647 79.16 58.798 79.3 58.6647 79.42C58.2647 79.9 57.7447 80.32 57.1047 80.68C56.4647 81.0267 55.7647 81.2 55.0047 81.2ZM62.2933 81C62.1066 81 61.9599 80.94 61.8533 80.82C61.7466 80.7 61.6933 80.56 61.6933 80.4V71.44C61.6933 71.28 61.7466 71.14 61.8533 71.02C61.9733 70.9 62.1199 70.84 62.2933 70.84C62.4666 70.84 62.6066 70.9 62.7133 71.02C62.8333 71.14 62.8933 71.28 62.8933 71.44V74.44L62.5933 74.5C62.6333 74.0333 62.7466 73.5733 62.9333 73.12C63.1333 72.6533 63.3999 72.2267 63.7333 71.84C64.0666 71.4533 64.4599 71.14 64.9133 70.9C65.3799 70.66 65.8999 70.54 66.4733 70.54C66.7133 70.54 66.9466 70.5933 67.1733 70.7C67.3999 70.7933 67.5133 70.9533 67.5133 71.18C67.5133 71.38 67.4599 71.5333 67.3533 71.64C67.2466 71.7467 67.1199 71.8 66.9733 71.8C66.8533 71.8 66.7199 71.7667 66.5733 71.7C66.4399 71.6333 66.2599 71.6 66.0333 71.6C65.6599 71.6 65.2866 71.7133 64.9133 71.94C64.5399 72.1533 64.1999 72.4467 63.8933 72.82C63.5866 73.1933 63.3399 73.6133 63.1533 74.08C62.9799 74.5333 62.8933 74.9933 62.8933 75.46V80.4C62.8933 80.56 62.8333 80.7 62.7133 80.82C62.5933 80.94 62.4533 81 62.2933 81Z" fill="white"/>
<path d="M39.0475 22.7963H31.6719V16.1683H39.0475V22.7963ZM39.0475 0H31.6719V6.77304H39.0475V0ZM47.7732 16.1571H40.3976V22.7851H47.7732V16.1571ZM30.3329 8.11203H22.9573V14.8181H30.3329V8.11203ZM39.0475 8.11203H31.6719V14.8181H39.0475V8.11203ZM69.9334 19.2703C68.3267 18.1879 64.6221 17.7974 61.7768 18.333C61.4086 15.655 59.9134 13.3229 57.1908 11.2252L55.6286 10.1875L54.5909 11.7496C52.5378 14.8516 51.9799 19.9621 54.178 23.3318C53.2073 23.8563 51.2992 24.5704 48.7775 24.5258H0.272661C-0.698104 30.1942 0.919838 37.5586 5.18228 42.6133C9.32198 47.5117 15.526 50 23.638 50C41.201 50 54.2004 41.9103 60.2816 27.2149C62.6694 27.2595 67.8245 27.2261 70.469 22.1714C70.6364 21.8924 71.2055 20.6985 71.4175 20.2633L69.9334 19.2703ZM12.9038 16.1571H5.53934V22.7851H12.9149V16.1571H12.9038ZM21.6183 16.1571H14.2428V22.7851H21.6183V16.1571ZM30.3329 16.1571H22.9573V22.7851H30.3329V16.1571ZM21.6183 8.11203H14.2428V14.8181H21.6183V8.11203Z" fill="#E7E7E7"/>
</svg>
