<svg width="55" height="86" viewBox="0 0 55 86" fill="none" xmlns="http://www.w3.org/2000/svg">
<g clip-path="url(#clip0_2_497)">
<path d="M18.3335 50C22.9358 50 26.6668 46.269 26.6668 41.6666V33.3333H18.3335C13.7311 33.3333 10.0001 37.0643 10.0001 41.6666C10.0001 46.269 13.7311 50 18.3335 50Z" fill="#E7E7E7"/>
<path d="M10.0001 25C10.0001 20.3976 13.7311 16.6667 18.3335 16.6667H26.6668V33.3334H18.3335C13.7311 33.3334 10.0001 29.6024 10.0001 25Z" fill="#E7E7E7"/>
<path d="M10.0003 8.33333C10.0003 3.73096 13.7313 0 18.3337 0H26.667V16.6667H18.3337C13.7313 16.6667 10.0003 12.9357 10.0003 8.33333Z" fill="#E7E7E7"/>
<path d="M26.6668 0H35.0001C39.6025 0 43.3335 3.73096 43.3335 8.33333C43.3335 12.9357 39.6025 16.6667 35.0001 16.6667H26.6668V0Z" fill="#E7E7E7"/>
<path d="M43.3335 25C43.3335 29.6024 39.6025 33.3334 35.0001 33.3334C30.3978 33.3334 26.6668 29.6024 26.6668 25C26.6668 20.3976 30.3978 16.6667 35.0001 16.6667C39.6025 16.6667 43.3335 20.3976 43.3335 25Z" fill="#E7E7E7"/>
</g>
<path d="M5.28 66.28C5.48 66.28 5.69333 66.3 5.92 66.34C6.16 66.38 6.36667 66.4533 6.54 66.56C6.71333 66.6533 6.8 66.8 6.8 67C6.8 67.1467 6.74667 67.28 6.64 67.4C6.53333 67.5067 6.41333 67.56 6.28 67.56C6.14667 67.56 5.98 67.5267 5.78 67.46C5.58 67.38 5.36667 67.34 5.14 67.34C4.86 67.34 4.62 67.4067 4.42 67.54C4.22 67.66 4.06667 67.84 3.96 68.08C3.85333 68.3067 3.8 68.5867 3.8 68.92V80.4C3.8 80.56 3.74 80.7 3.62 80.82C3.51333 80.94 3.37333 81 3.2 81C3.02667 81 2.88 80.94 2.76 80.82C2.65333 80.7 2.6 80.56 2.6 80.4V68.92C2.6 68.0667 2.84667 67.4133 3.34 66.96C3.84667 66.5067 4.49333 66.28 5.28 66.28ZM6.04 70.98C6.2 70.98 6.33333 71.0333 6.44 71.14C6.54667 71.2467 6.6 71.38 6.6 71.54C6.6 71.7 6.54667 71.8333 6.44 71.94C6.33333 72.0467 6.2 72.1 6.04 72.1H1.14C0.993333 72.1 0.86 72.0467 0.74 71.94C0.633333 71.82 0.58 71.6867 0.58 71.54C0.58 71.3667 0.633333 71.2333 0.74 71.14C0.86 71.0333 0.993333 70.98 1.14 70.98H6.04ZM9.94 80.4C9.94 80.56 9.88 80.7 9.76 80.82C9.64 80.94 9.5 81 9.34 81C9.16667 81 9.02 80.94 8.9 80.82C8.79333 80.7 8.74 80.56 8.74 80.4V71.2C8.74 71.04 8.79333 70.9 8.9 70.78C9.02 70.66 9.16667 70.6 9.34 70.6C9.51333 70.6 9.65333 70.66 9.76 70.78C9.88 70.9 9.94 71.04 9.94 71.2V80.4ZM9.34 69.26C9.06 69.26 8.84667 69.2 8.7 69.08C8.56667 68.9467 8.5 68.76 8.5 68.52V68.32C8.5 68.08 8.57333 67.9 8.72 67.78C8.88 67.6467 9.09333 67.58 9.36 67.58C9.61333 67.58 9.80667 67.6467 9.94 67.78C10.0867 67.9 10.16 68.08 10.16 68.32V68.52C10.16 68.76 10.0867 68.9467 9.94 69.08C9.80667 69.2 9.60667 69.26 9.34 69.26ZM17.3048 70.54C17.9048 70.54 18.4582 70.6467 18.9648 70.86C19.4715 71.06 19.9115 71.3267 20.2848 71.66C20.6715 71.98 20.9715 72.3267 21.1848 72.7C21.3982 73.06 21.5048 73.4067 21.5048 73.74L21.1648 73.26V71.4C21.1648 71.2267 21.2182 71.08 21.3248 70.96C21.4448 70.84 21.5915 70.78 21.7648 70.78C21.9515 70.78 22.0982 70.84 22.2048 70.96C22.3115 71.08 22.3648 71.2267 22.3648 71.4V80.06C22.3648 81.1267 22.1448 82.0267 21.7048 82.76C21.2648 83.4933 20.6648 84.0467 19.9048 84.42C19.1582 84.8067 18.3048 85 17.3448 85C16.8782 85 16.3848 84.94 15.8648 84.82C15.3582 84.7 14.9182 84.5467 14.5448 84.36C14.1848 84.1733 13.9848 83.98 13.9448 83.78C13.8382 83.66 13.7848 83.54 13.7848 83.42C13.7982 83.3133 13.8582 83.22 13.9648 83.14C14.0982 83.0467 14.2382 83.0333 14.3848 83.1C14.5315 83.18 14.7515 83.28 15.0448 83.4C15.1782 83.44 15.3582 83.5 15.5848 83.58C15.8115 83.66 16.0782 83.7267 16.3848 83.78C16.7048 83.8467 17.0382 83.88 17.3848 83.88C18.5848 83.88 19.5115 83.5333 20.1648 82.84C20.8315 82.16 21.1648 81.26 21.1648 80.14V78.22L21.3848 78.28C21.2648 78.76 21.0648 79.18 20.7848 79.54C20.5182 79.9 20.1982 80.2067 19.8248 80.46C19.4515 80.7 19.0448 80.88 18.6048 81C18.1782 81.1333 17.7515 81.2 17.3248 81.2C16.4048 81.2 15.5782 80.9667 14.8448 80.5C14.1115 80.0333 13.5248 79.4 13.0848 78.6C12.6582 77.8 12.4448 76.8867 12.4448 75.86C12.4448 74.8467 12.6582 73.94 13.0848 73.14C13.5248 72.3267 14.1048 71.6933 14.8248 71.24C15.5582 70.7733 16.3848 70.54 17.3048 70.54ZM17.4448 71.66C16.7115 71.66 16.0515 71.8467 15.4648 72.22C14.8915 72.58 14.4382 73.08 14.1048 73.72C13.7848 74.3467 13.6248 75.06 13.6248 75.86C13.6248 76.66 13.7848 77.38 14.1048 78.02C14.4382 78.66 14.8915 79.1667 15.4648 79.54C16.0515 79.9 16.7115 80.08 17.4448 80.08C18.1782 80.08 18.8315 79.9 19.4048 79.54C19.9782 79.18 20.4315 78.6867 20.7648 78.06C21.0982 77.42 21.2648 76.6867 21.2648 75.86C21.2648 75.0333 21.0982 74.3067 20.7648 73.68C20.4315 73.04 19.9782 72.5467 19.4048 72.2C18.8315 71.84 18.1782 71.66 17.4448 71.66ZM30.1253 70.7C30.952 70.7 31.6586 70.92 32.2453 71.36C32.832 71.7867 33.232 72.4267 33.4453 73.28L33.1653 73.36L33.2853 73C33.4586 72.6 33.7453 72.2267 34.1453 71.88C34.5586 71.52 35.0253 71.2333 35.5453 71.02C36.0653 70.8067 36.592 70.7 37.1253 70.7C37.9653 70.7 38.6386 70.88 39.1453 71.24C39.6653 71.6 40.0386 72.0867 40.2653 72.7C40.5053 73.3 40.6253 73.98 40.6253 74.74V80.4C40.6253 80.56 40.5653 80.7 40.4453 80.82C40.3386 80.94 40.1986 81 40.0253 81C39.852 81 39.7053 80.94 39.5853 80.82C39.4786 80.7 39.4253 80.56 39.4253 80.4V74.8C39.4253 74.2533 39.3386 73.7533 39.1653 73.3C38.992 72.8467 38.7186 72.4867 38.3453 72.22C37.972 71.9533 37.472 71.82 36.8453 71.82C36.2986 71.82 35.772 71.9533 35.2653 72.22C34.772 72.4867 34.3653 72.8467 34.0453 73.3C33.7386 73.7533 33.5853 74.2533 33.5853 74.8V80.4C33.5853 80.56 33.5253 80.7 33.4053 80.82C33.2986 80.94 33.1586 81 32.9853 81C32.812 81 32.6653 80.94 32.5453 80.82C32.4386 80.7 32.3853 80.56 32.3853 80.4V74.74C32.3853 74.1933 32.3053 73.7 32.1453 73.26C31.9853 72.82 31.7253 72.4733 31.3653 72.22C31.0053 71.9533 30.5186 71.82 29.9053 71.82C29.3586 71.82 28.8386 71.9533 28.3453 72.22C27.8653 72.4733 27.472 72.82 27.1653 73.26C26.872 73.7 26.7253 74.1933 26.7253 74.74V80.4C26.7253 80.56 26.6653 80.7 26.5453 80.82C26.4253 80.94 26.2853 81 26.1253 81C25.9386 81 25.792 80.94 25.6853 80.82C25.5786 80.7 25.5253 80.56 25.5253 80.4V71.44C25.5253 71.28 25.5786 71.14 25.6853 71.02C25.8053 70.9 25.952 70.84 26.1253 70.84C26.2986 70.84 26.4386 70.9 26.5453 71.02C26.6653 71.14 26.7253 71.28 26.7253 71.44V73.3L26.1853 74.04C26.2253 73.64 26.352 73.24 26.5653 72.84C26.792 72.44 27.0853 72.08 27.4453 71.76C27.8053 71.44 28.212 71.1867 28.6653 71C29.132 70.8 29.6186 70.7 30.1253 70.7ZM52.1475 70.78C52.3208 70.78 52.4608 70.84 52.5675 70.96C52.6875 71.08 52.7475 71.2267 52.7475 71.4V80.4C52.7475 80.56 52.6875 80.7 52.5675 80.82C52.4475 80.94 52.3075 81 52.1475 81C51.9742 81 51.8275 80.94 51.7075 80.82C51.6008 80.7 51.5475 80.56 51.5475 80.4V78.02L51.8875 77.86C51.8875 78.2333 51.7808 78.6133 51.5675 79C51.3675 79.3867 51.0875 79.7467 50.7275 80.08C50.3675 80.4133 49.9408 80.6867 49.4475 80.9C48.9675 81.1 48.4475 81.2 47.8875 81.2C46.9808 81.2 46.1675 80.9667 45.4475 80.5C44.7408 80.0333 44.1808 79.3933 43.7675 78.58C43.3675 77.7667 43.1675 76.8533 43.1675 75.84C43.1675 74.8 43.3742 73.8867 43.7875 73.1C44.2008 72.3 44.7608 71.6733 45.4675 71.22C46.1742 70.7667 46.9742 70.54 47.8675 70.54C48.4408 70.54 48.9742 70.64 49.4675 70.84C49.9742 71.04 50.4142 71.3133 50.7875 71.66C51.1608 72.0067 51.4475 72.4067 51.6475 72.86C51.8608 73.3 51.9675 73.76 51.9675 74.24L51.5475 73.94V71.4C51.5475 71.2267 51.6008 71.08 51.7075 70.96C51.8275 70.84 51.9742 70.78 52.1475 70.78ZM47.9875 80.08C48.6942 80.08 49.3208 79.9 49.8675 79.54C50.4142 79.1667 50.8408 78.66 51.1475 78.02C51.4675 77.3667 51.6275 76.64 51.6275 75.84C51.6275 75.0533 51.4675 74.3467 51.1475 73.72C50.8408 73.0933 50.4142 72.5933 49.8675 72.22C49.3208 71.8467 48.6942 71.66 47.9875 71.66C47.2942 71.66 46.6675 71.84 46.1075 72.2C45.5608 72.56 45.1275 73.0533 44.8075 73.68C44.5008 74.3067 44.3475 75.0267 44.3475 75.84C44.3475 76.64 44.5008 77.3667 44.8075 78.02C45.1275 78.66 45.5608 79.1667 46.1075 79.54C46.6542 79.9 47.2808 80.08 47.9875 80.08Z" fill="white"/>
<defs>
<clipPath id="clip0_2_497">
<rect width="33.2" height="50" fill="white" transform="translate(10)"/>
</clipPath>
</defs>
</svg>
