<svg width="50" height="86" viewBox="0 0 50 86" fill="none" xmlns="http://www.w3.org/2000/svg">
<path d="M48.7408 22.8023L27.1962 1.25951C25.9566 0.0187202 23.9444 0.0187202 22.7032 1.25951L18.2298 5.73361L23.9042 11.4083C25.2234 10.9629 26.7354 11.2615 27.7865 12.3128C28.843 13.3707 29.1395 14.8957 28.6829 16.2193L34.1521 21.6887C35.4753 21.2327 37.0019 21.5273 38.0584 22.5858C39.5356 24.0626 39.5356 26.4555 38.0584 27.9326C36.5811 29.4103 34.1883 29.4103 32.7101 27.9326C31.5994 26.821 31.3247 25.189 31.8873 23.8205L26.7866 18.7197L26.7862 32.1424C27.1463 32.3207 27.4862 32.5587 27.7863 32.8575C29.263 34.3341 29.263 36.7265 27.7863 38.2056C26.3091 39.6821 23.9152 39.6821 22.4397 38.2056C20.9627 36.7267 20.9627 34.3342 22.4397 32.8575C22.8047 32.4931 23.227 32.2173 23.6776 32.0325V18.485C23.2268 18.3009 22.8049 18.0272 22.4394 17.6599C21.3207 16.542 21.0513 14.9001 21.625 13.5263L16.0311 7.93129L1.2598 22.7027C0.0186657 23.9445 0.0186657 25.9567 1.2598 27.1976L22.803 48.7404C24.0433 49.9812 26.0548 49.9812 27.2969 48.7404L48.7405 27.2994C49.9812 26.058 49.9812 24.0451 48.7405 22.8041" fill="#E7E7E7"/>
<path d="M18.9226 70.54C19.5226 70.54 20.076 70.6467 20.5826 70.86C21.0893 71.06 21.5293 71.3267 21.9026 71.66C22.2893 71.98 22.5893 72.3267 22.8026 72.7C23.016 73.06 23.1226 73.4067 23.1226 73.74L22.7826 73.26V71.4C22.7826 71.2267 22.836 71.08 22.9426 70.96C23.0626 70.84 23.2093 70.78 23.3826 70.78C23.5693 70.78 23.716 70.84 23.8226 70.96C23.9293 71.08 23.9826 71.2267 23.9826 71.4V80.06C23.9826 81.1267 23.7626 82.0267 23.3226 82.76C22.8826 83.4933 22.2826 84.0467 21.5226 84.42C20.776 84.8067 19.9226 85 18.9626 85C18.496 85 18.0026 84.94 17.4826 84.82C16.976 84.7 16.536 84.5467 16.1626 84.36C15.8026 84.1733 15.6026 83.98 15.5626 83.78C15.456 83.66 15.4026 83.54 15.4026 83.42C15.416 83.3133 15.476 83.22 15.5826 83.14C15.716 83.0467 15.856 83.0333 16.0026 83.1C16.1493 83.18 16.3693 83.28 16.6626 83.4C16.796 83.44 16.976 83.5 17.2026 83.58C17.4293 83.66 17.696 83.7267 18.0026 83.78C18.3226 83.8467 18.656 83.88 19.0026 83.88C20.2026 83.88 21.1293 83.5333 21.7826 82.84C22.4493 82.16 22.7826 81.26 22.7826 80.14V78.22L23.0026 78.28C22.8826 78.76 22.6826 79.18 22.4026 79.54C22.136 79.9 21.816 80.2067 21.4426 80.46C21.0693 80.7 20.6626 80.88 20.2226 81C19.796 81.1333 19.3693 81.2 18.9426 81.2C18.0226 81.2 17.196 80.9667 16.4626 80.5C15.7293 80.0333 15.1426 79.4 14.7026 78.6C14.276 77.8 14.0626 76.8867 14.0626 75.86C14.0626 74.8467 14.276 73.94 14.7026 73.14C15.1426 72.3267 15.7226 71.6933 16.4426 71.24C17.176 70.7733 18.0026 70.54 18.9226 70.54ZM19.0626 71.66C18.3293 71.66 17.6693 71.8467 17.0826 72.22C16.5093 72.58 16.056 73.08 15.7226 73.72C15.4026 74.3467 15.2426 75.06 15.2426 75.86C15.2426 76.66 15.4026 77.38 15.7226 78.02C16.056 78.66 16.5093 79.1667 17.0826 79.54C17.6693 79.9 18.3293 80.08 19.0626 80.08C19.796 80.08 20.4493 79.9 21.0226 79.54C21.596 79.18 22.0493 78.6867 22.3826 78.06C22.716 77.42 22.8826 76.6867 22.8826 75.86C22.8826 75.0333 22.716 74.3067 22.3826 73.68C22.0493 73.04 21.596 72.5467 21.0226 72.2C20.4493 71.84 19.796 71.66 19.0626 71.66ZM28.3031 80.4C28.3031 80.56 28.2431 80.7 28.1231 80.82C28.0031 80.94 27.8631 81 27.7031 81C27.5298 81 27.3831 80.94 27.2631 80.82C27.1564 80.7 27.1031 80.56 27.1031 80.4V71.2C27.1031 71.04 27.1564 70.9 27.2631 70.78C27.3831 70.66 27.5298 70.6 27.7031 70.6C27.8764 70.6 28.0164 70.66 28.1231 70.78C28.2431 70.9 28.3031 71.04 28.3031 71.2V80.4ZM27.7031 69.26C27.4231 69.26 27.2098 69.2 27.0631 69.08C26.9298 68.9467 26.8631 68.76 26.8631 68.52V68.32C26.8631 68.08 26.9364 67.9 27.0831 67.78C27.2431 67.6467 27.4564 67.58 27.7231 67.58C27.9764 67.58 28.1698 67.6467 28.3031 67.78C28.4498 67.9 28.5231 68.08 28.5231 68.32V68.52C28.5231 68.76 28.4498 68.9467 28.3031 69.08C28.1698 69.2 27.9698 69.26 27.7031 69.26ZM30.7605 70.82H35.4205C35.5805 70.82 35.7138 70.88 35.8205 71C35.9271 71.1067 35.9805 71.24 35.9805 71.4C35.9805 71.5467 35.9271 71.6733 35.8205 71.78C35.7138 71.8867 35.5805 71.94 35.4205 71.94H30.7605C30.6005 71.94 30.4605 71.8867 30.3405 71.78C30.2338 71.66 30.1805 71.5267 30.1805 71.38C30.1805 71.22 30.2338 71.0867 30.3405 70.98C30.4605 70.8733 30.6005 70.82 30.7605 70.82ZM32.8205 68C32.9938 68 33.1338 68.06 33.2405 68.18C33.3605 68.3 33.4205 68.44 33.4205 68.6V78.64C33.4205 79.0133 33.4671 79.2933 33.5605 79.48C33.6671 79.6667 33.8005 79.7933 33.9605 79.86C34.1205 79.9133 34.2805 79.94 34.4405 79.94C34.5471 79.94 34.6405 79.9267 34.7205 79.9C34.8138 79.86 34.9138 79.84 35.0205 79.84C35.1405 79.84 35.2405 79.8867 35.3205 79.98C35.4138 80.0733 35.4605 80.1933 35.4605 80.34C35.4605 80.5267 35.3538 80.6867 35.1405 80.82C34.9271 80.94 34.6738 81 34.3805 81C34.2605 81 34.0805 80.9933 33.8405 80.98C33.6005 80.9533 33.3538 80.88 33.1005 80.76C32.8471 80.6267 32.6338 80.4 32.4605 80.08C32.3005 79.76 32.2205 79.3 32.2205 78.7V68.6C32.2205 68.44 32.2738 68.3 32.3805 68.18C32.5005 68.06 32.6471 68 32.8205 68Z" fill="white"/>
</svg>
