<svg width="59" height="86" viewBox="0 0 59 86" fill="none" xmlns="http://www.w3.org/2000/svg">
<path d="M5.84 70.54C6.44 70.54 6.99333 70.6467 7.5 70.86C8.00667 71.06 8.44667 71.3267 8.82 71.66C9.20667 71.98 9.50667 72.3267 9.72 72.7C9.93333 73.06 10.04 73.4067 10.04 73.74L9.7 73.26V71.4C9.7 71.2267 9.75333 71.08 9.86 70.96C9.98 70.84 10.1267 70.78 10.3 70.78C10.4867 70.78 10.6333 70.84 10.74 70.96C10.8467 71.08 10.9 71.2267 10.9 71.4V80.06C10.9 81.1267 10.68 82.0267 10.24 82.76C9.8 83.4933 9.2 84.0467 8.44 84.42C7.69333 84.8067 6.84 85 5.88 85C5.41333 85 4.92 84.94 4.4 84.82C3.89333 84.7 3.45333 84.5467 3.08 84.36C2.72 84.1733 2.52 83.98 2.48 83.78C2.37333 83.66 2.32 83.54 2.32 83.42C2.33333 83.3133 2.39333 83.22 2.5 83.14C2.63333 83.0467 2.77333 83.0333 2.92 83.1C3.06667 83.18 3.28667 83.28 3.58 83.4C3.71333 83.44 3.89333 83.5 4.12 83.58C4.34667 83.66 4.61333 83.7267 4.92 83.78C5.24 83.8467 5.57333 83.88 5.92 83.88C7.12 83.88 8.04667 83.5333 8.7 82.84C9.36667 82.16 9.7 81.26 9.7 80.14V78.22L9.92 78.28C9.8 78.76 9.6 79.18 9.32 79.54C9.05333 79.9 8.73333 80.2067 8.36 80.46C7.98667 80.7 7.58 80.88 7.14 81C6.71333 81.1333 6.28667 81.2 5.86 81.2C4.94 81.2 4.11333 80.9667 3.38 80.5C2.64667 80.0333 2.06 79.4 1.62 78.6C1.19333 77.8 0.98 76.8867 0.98 75.86C0.98 74.8467 1.19333 73.94 1.62 73.14C2.06 72.3267 2.64 71.6933 3.36 71.24C4.09333 70.7733 4.92 70.54 5.84 70.54ZM5.98 71.66C5.24667 71.66 4.58667 71.8467 4 72.22C3.42667 72.58 2.97333 73.08 2.64 73.72C2.32 74.3467 2.16 75.06 2.16 75.86C2.16 76.66 2.32 77.38 2.64 78.02C2.97333 78.66 3.42667 79.1667 4 79.54C4.58667 79.9 5.24667 80.08 5.98 80.08C6.71333 80.08 7.36667 79.9 7.94 79.54C8.51333 79.18 8.96667 78.6867 9.3 78.06C9.63333 77.42 9.8 76.6867 9.8 75.86C9.8 75.0333 9.63333 74.3067 9.3 73.68C8.96667 73.04 8.51333 72.5467 7.94 72.2C7.36667 71.84 6.71333 71.66 5.98 71.66ZM15.2205 80.4C15.2205 80.56 15.1605 80.7 15.0405 80.82C14.9205 80.94 14.7805 81 14.6205 81C14.4471 81 14.3005 80.94 14.1805 80.82C14.0738 80.7 14.0205 80.56 14.0205 80.4V71.2C14.0205 71.04 14.0738 70.9 14.1805 70.78C14.3005 70.66 14.4471 70.6 14.6205 70.6C14.7938 70.6 14.9338 70.66 15.0405 70.78C15.1605 70.9 15.2205 71.04 15.2205 71.2V80.4ZM14.6205 69.26C14.3405 69.26 14.1271 69.2 13.9805 69.08C13.8471 68.9467 13.7805 68.76 13.7805 68.52V68.32C13.7805 68.08 13.8538 67.9 14.0005 67.78C14.1605 67.6467 14.3738 67.58 14.6405 67.58C14.8938 67.58 15.0871 67.6467 15.2205 67.78C15.3671 67.9 15.4405 68.08 15.4405 68.32V68.52C15.4405 68.76 15.3671 68.9467 15.2205 69.08C15.0871 69.2 14.8871 69.26 14.6205 69.26ZM17.6778 70.82H22.3378C22.4978 70.82 22.6311 70.88 22.7378 71C22.8445 71.1067 22.8978 71.24 22.8978 71.4C22.8978 71.5467 22.8445 71.6733 22.7378 71.78C22.6311 71.8867 22.4978 71.94 22.3378 71.94H17.6778C17.5178 71.94 17.3778 71.8867 17.2578 71.78C17.1511 71.66 17.0978 71.5267 17.0978 71.38C17.0978 71.22 17.1511 71.0867 17.2578 70.98C17.3778 70.8733 17.5178 70.82 17.6778 70.82ZM19.7378 68C19.9111 68 20.0511 68.06 20.1578 68.18C20.2778 68.3 20.3378 68.44 20.3378 68.6V78.64C20.3378 79.0133 20.3845 79.2933 20.4778 79.48C20.5845 79.6667 20.7178 79.7933 20.8778 79.86C21.0378 79.9133 21.1978 79.94 21.3578 79.94C21.4645 79.94 21.5578 79.9267 21.6378 79.9C21.7311 79.86 21.8311 79.84 21.9378 79.84C22.0578 79.84 22.1578 79.8867 22.2378 79.98C22.3311 80.0733 22.3778 80.1933 22.3778 80.34C22.3778 80.5267 22.2711 80.6867 22.0578 80.82C21.8445 80.94 21.5911 81 21.2978 81C21.1778 81 20.9978 80.9933 20.7578 80.98C20.5178 80.9533 20.2711 80.88 20.0178 80.76C19.7645 80.6267 19.5511 80.4 19.3778 80.08C19.2178 79.76 19.1378 79.3 19.1378 78.7V68.6C19.1378 68.44 19.1911 68.3 19.2978 68.18C19.4178 68.06 19.5645 68 19.7378 68ZM29.7752 70.7C30.6152 70.7 31.2952 70.88 31.8152 71.24C32.3352 71.6 32.7152 72.0867 32.9552 72.7C33.2085 73.3133 33.3352 73.9933 33.3352 74.74V80.4C33.3352 80.56 33.2752 80.7 33.1552 80.82C33.0352 80.94 32.8952 81 32.7352 81C32.5485 81 32.4018 80.94 32.2952 80.82C32.1885 80.7 32.1352 80.56 32.1352 80.4V74.74C32.1352 74.1933 32.0485 73.7 31.8752 73.26C31.7152 72.82 31.4485 72.4733 31.0752 72.22C30.7018 71.9533 30.2018 71.82 29.5752 71.82C29.0152 71.82 28.4818 71.9533 27.9752 72.22C27.4818 72.4733 27.0818 72.82 26.7752 73.26C26.4685 73.7 26.3152 74.1933 26.3152 74.74V80.4C26.3152 80.56 26.2552 80.7 26.1352 80.82C26.0152 80.94 25.8752 81 25.7152 81C25.5285 81 25.3818 80.94 25.2752 80.82C25.1685 80.7 25.1152 80.56 25.1152 80.4V66.8C25.1152 66.64 25.1685 66.5 25.2752 66.38C25.3952 66.26 25.5418 66.2 25.7152 66.2C25.8885 66.2 26.0285 66.26 26.1352 66.38C26.2552 66.5 26.3152 66.64 26.3152 66.8V73.28L25.8552 73.98C25.8818 73.5667 26.0085 73.1667 26.2352 72.78C26.4752 72.38 26.7818 72.0267 27.1552 71.72C27.5285 71.4 27.9418 71.1533 28.3952 70.98C28.8485 70.7933 29.3085 70.7 29.7752 70.7ZM44.1223 70.84C44.2957 70.84 44.4357 70.9 44.5423 71.02C44.6623 71.14 44.7223 71.28 44.7223 71.44V77.08C44.7223 78.4 44.349 79.4067 43.6023 80.1C42.8557 80.7933 41.849 81.14 40.5823 81.14C39.329 81.14 38.329 80.7933 37.5823 80.1C36.849 79.4067 36.4823 78.4 36.4823 77.08V71.44C36.4823 71.28 36.5357 71.14 36.6423 71.02C36.7623 70.9 36.909 70.84 37.0823 70.84C37.2557 70.84 37.3957 70.9 37.5023 71.02C37.6223 71.14 37.6823 71.28 37.6823 71.44V77.08C37.6823 78.04 37.9357 78.7733 38.4423 79.28C38.9623 79.7733 39.6757 80.02 40.5823 80.02C41.5023 80.02 42.2223 79.7733 42.7423 79.28C43.2623 78.7733 43.5223 78.04 43.5223 77.08V71.44C43.5223 71.28 43.5757 71.14 43.6823 71.02C43.789 70.9 43.9357 70.84 44.1223 70.84ZM52.7291 70.54C53.6357 70.54 54.4357 70.7667 55.1291 71.22C55.8357 71.6733 56.3957 72.3 56.8091 73.1C57.2224 73.8867 57.4291 74.8 57.4291 75.84C57.4291 76.8533 57.2224 77.7667 56.8091 78.58C56.3957 79.3933 55.8357 80.0333 55.1291 80.5C54.4224 80.9667 53.6291 81.2 52.7491 81.2C52.2824 81.2 51.8357 81.1267 51.4091 80.98C50.9957 80.8333 50.6157 80.64 50.2691 80.4C49.9224 80.1467 49.6157 79.8533 49.3491 79.52C49.0824 79.1867 48.8691 78.8267 48.7091 78.44L49.0691 78.18V80.44C49.0691 80.6133 49.0091 80.76 48.8891 80.88C48.7824 80.9867 48.6424 81.04 48.4691 81.04C48.2957 81.04 48.1491 80.9867 48.0291 80.88C47.9224 80.76 47.8691 80.6133 47.8691 80.44V66.82C47.8691 66.6467 47.9224 66.5067 48.0291 66.4C48.1357 66.28 48.2824 66.22 48.4691 66.22C48.6424 66.22 48.7824 66.28 48.8891 66.4C49.0091 66.5067 49.0691 66.6467 49.0691 66.82V73.52L48.7891 73.36C48.9224 72.9467 49.1157 72.5733 49.3691 72.24C49.6357 71.8933 49.9424 71.5933 50.2891 71.34C50.6357 71.0867 51.0157 70.8933 51.4291 70.76C51.8424 70.6133 52.2757 70.54 52.7291 70.54ZM52.6291 71.66C51.9091 71.66 51.2757 71.84 50.7291 72.2C50.1824 72.56 49.7491 73.0533 49.4291 73.68C49.1224 74.3067 48.9691 75.0267 48.9691 75.84C48.9691 76.64 49.1224 77.3667 49.4291 78.02C49.7491 78.66 50.1824 79.1667 50.7291 79.54C51.2757 79.9 51.9091 80.08 52.6291 80.08C53.3357 80.08 53.9557 79.8933 54.4891 79.52C55.0357 79.1467 55.4691 78.64 55.7891 78C56.1091 77.3467 56.2691 76.6267 56.2691 75.84C56.2691 75.0267 56.1091 74.3067 55.7891 73.68C55.4691 73.0533 55.0357 72.56 54.4891 72.2C53.9557 71.84 53.3357 71.66 52.6291 71.66Z" fill="white"/>
<path d="M21.1523 40.2599C21.1523 40.4667 20.9145 40.6321 20.6147 40.6321C20.2735 40.6631 20.0357 40.4977 20.0357 40.2599C20.0357 40.0531 20.2735 39.8877 20.5734 39.8877C20.8835 39.8567 21.1523 40.0221 21.1523 40.2599ZM17.9369 39.7947C17.8646 40.0014 18.0713 40.2392 18.3815 40.3013C18.6503 40.4047 18.9605 40.3013 19.0225 40.0945C19.0845 39.8877 18.8881 39.6499 18.5779 39.5569C18.3091 39.4845 18.0093 39.5879 17.9369 39.7947ZM22.5067 39.6189C22.2069 39.6913 22.0001 39.8877 22.0312 40.1255C22.0622 40.3323 22.331 40.4667 22.6412 40.3943C22.941 40.322 23.1478 40.1255 23.1167 39.9187C23.0857 39.7223 22.8066 39.5879 22.5067 39.6189ZM29.3098 0C14.9696 0 4 10.8869 4 25.2271C4 36.693 11.2166 46.5047 21.5245 49.9579C22.8479 50.1957 23.3132 49.3789 23.3132 48.7069C23.3132 48.0658 23.2822 44.5299 23.2822 42.3587C23.2822 42.3587 16.0449 43.9096 14.5251 39.2777C14.5251 39.2777 13.3464 36.2691 11.6508 35.4937C11.6508 35.4937 9.28321 33.8704 11.8163 33.9015C11.8163 33.9015 14.3907 34.1082 15.8071 36.5689C18.0713 40.5598 21.8657 39.4121 23.3442 38.7298C23.582 37.0755 24.254 35.9279 24.9984 35.2455C19.219 34.6045 13.3878 33.7671 13.3878 23.821C13.3878 20.9778 14.1735 19.551 15.8278 17.7313C15.559 17.0593 14.6802 14.2884 16.0966 10.7112C18.2574 10.0391 23.2305 13.5027 23.2305 13.5027C25.2983 12.9237 27.5211 12.6239 29.7233 12.6239C31.9255 12.6239 34.1484 12.9237 36.2162 13.5027C36.2162 13.5027 41.1893 10.0288 43.3501 10.7112C44.7665 14.2988 43.8877 17.0593 43.6189 17.7313C45.2731 19.5613 46.2864 20.9881 46.2864 23.821C46.2864 33.7981 40.1967 34.5942 34.4172 35.2455C35.3684 36.0623 36.1749 37.6131 36.1749 40.0428C36.1749 43.527 36.1438 47.8384 36.1438 48.6862C36.1438 49.3582 36.6194 50.175 37.9325 49.9372C48.2714 46.5047 55.2813 36.693 55.2813 25.2271C55.2813 10.8869 43.6499 0 29.3098 0ZM14.0495 35.6591C13.9151 35.7625 13.9461 36.0003 14.1218 36.1967C14.2873 36.3621 14.5251 36.4345 14.6595 36.3001C14.7939 36.1967 14.7629 35.9589 14.5871 35.7625C14.4217 35.5971 14.1839 35.5247 14.0495 35.6591ZM12.9329 34.8216C12.8605 34.956 12.9639 35.1215 13.1707 35.2249C13.3361 35.3282 13.5429 35.2972 13.6152 35.1525C13.6876 35.0181 13.5842 34.8526 13.3774 34.7493C13.1707 34.6872 13.0052 34.7182 12.9329 34.8216ZM16.2827 38.5023C16.1173 38.6367 16.1793 38.9469 16.4171 39.1433C16.6549 39.3811 16.9547 39.4121 17.0891 39.2467C17.2235 39.1123 17.1615 38.8021 16.9547 38.6057C16.7273 38.3679 16.4171 38.3369 16.2827 38.5023ZM15.104 36.9825C14.9386 37.0859 14.9386 37.3547 15.104 37.5925C15.2695 37.8303 15.5486 37.9337 15.683 37.8303C15.8485 37.6959 15.8485 37.427 15.683 37.1893C15.5383 36.9515 15.2695 36.8481 15.104 36.9825Z" fill="#E7E7E7"/>
</svg>
