<svg width="43" height="86" viewBox="0 0 43 86" fill="none" xmlns="http://www.w3.org/2000/svg">
<path d="M0 0L3.89509 44.1741L21.3728 50L38.9621 44.1741L42.8571 0H0ZM34.3973 14.2746H13.8839L14.3415 19.7879H33.9397L32.4219 36.3504L21.4955 39.3638V39.3973H21.3728L10.3571 36.3504L9.6875 27.8906H15.0112L15.4018 32.1429L21.3728 33.7612L27.3661 32.1429L28.0357 25.2009H9.40848L7.97991 8.95089H34.8884L34.3973 14.2746Z" fill="#E7E7E7"/>
<path d="M8.03999 70.7C8.87999 70.7 9.55999 70.88 10.08 71.24C10.6 71.6 10.98 72.0867 11.22 72.7C11.4733 73.3133 11.6 73.9933 11.6 74.74V80.4C11.6 80.56 11.54 80.7 11.42 80.82C11.3 80.94 11.16 81 11 81C10.8133 81 10.6667 80.94 10.56 80.82C10.4533 80.7 10.4 80.56 10.4 80.4V74.74C10.4 74.1933 10.3133 73.7 10.14 73.26C9.97999 72.82 9.71332 72.4733 9.33999 72.22C8.96665 71.9533 8.46665 71.82 7.83999 71.82C7.27999 71.82 6.74665 71.9533 6.23999 72.22C5.74665 72.4733 5.34665 72.82 5.03999 73.26C4.73332 73.7 4.57999 74.1933 4.57999 74.74V80.4C4.57999 80.56 4.51999 80.7 4.39999 80.82C4.27999 80.94 4.13999 81 3.97999 81C3.79332 81 3.64665 80.94 3.53999 80.82C3.43332 80.7 3.37999 80.56 3.37999 80.4V66.8C3.37999 66.64 3.43332 66.5 3.53999 66.38C3.65999 66.26 3.80665 66.2 3.97999 66.2C4.15332 66.2 4.29332 66.26 4.39999 66.38C4.51999 66.5 4.57999 66.64 4.57999 66.8V73.28L4.11999 73.98C4.14665 73.5667 4.27332 73.1667 4.49999 72.78C4.73999 72.38 5.04665 72.0267 5.41999 71.72C5.79332 71.4 6.20665 71.1533 6.65999 70.98C7.11332 70.7933 7.57332 70.7 8.03999 70.7ZM14.0872 70.82H18.7472C18.9072 70.82 19.0405 70.88 19.1472 71C19.2538 71.1067 19.3072 71.24 19.3072 71.4C19.3072 71.5467 19.2538 71.6733 19.1472 71.78C19.0405 71.8867 18.9072 71.94 18.7472 71.94H14.0872C13.9272 71.94 13.7872 71.8867 13.6672 71.78C13.5605 71.66 13.5072 71.5267 13.5072 71.38C13.5072 71.22 13.5605 71.0867 13.6672 70.98C13.7872 70.8733 13.9272 70.82 14.0872 70.82ZM16.1472 68C16.3205 68 16.4605 68.06 16.5672 68.18C16.6872 68.3 16.7472 68.44 16.7472 68.6V78.64C16.7472 79.0133 16.7938 79.2933 16.8872 79.48C16.9938 79.6667 17.1272 79.7933 17.2872 79.86C17.4472 79.9133 17.6072 79.94 17.7672 79.94C17.8738 79.94 17.9672 79.9267 18.0472 79.9C18.1405 79.86 18.2405 79.84 18.3472 79.84C18.4672 79.84 18.5672 79.8867 18.6472 79.98C18.7405 80.0733 18.7872 80.1933 18.7872 80.34C18.7872 80.5267 18.6805 80.6867 18.4672 80.82C18.2538 80.94 18.0005 81 17.7072 81C17.5872 81 17.4072 80.9933 17.1672 80.98C16.9272 80.9533 16.6805 80.88 16.4272 80.76C16.1738 80.6267 15.9605 80.4 15.7872 80.08C15.6272 79.76 15.5472 79.3 15.5472 78.7V68.6C15.5472 68.44 15.6005 68.3 15.7072 68.18C15.8272 68.06 15.9738 68 16.1472 68ZM26.1245 70.7C26.9512 70.7 27.6579 70.92 28.2445 71.36C28.8312 71.7867 29.2312 72.4267 29.4445 73.28L29.1645 73.36L29.2845 73C29.4579 72.6 29.7445 72.2267 30.1445 71.88C30.5579 71.52 31.0245 71.2333 31.5445 71.02C32.0645 70.8067 32.5912 70.7 33.1245 70.7C33.9645 70.7 34.6379 70.88 35.1445 71.24C35.6645 71.6 36.0379 72.0867 36.2645 72.7C36.5045 73.3 36.6245 73.98 36.6245 74.74V80.4C36.6245 80.56 36.5645 80.7 36.4445 80.82C36.3379 80.94 36.1979 81 36.0245 81C35.8512 81 35.7045 80.94 35.5845 80.82C35.4779 80.7 35.4245 80.56 35.4245 80.4V74.8C35.4245 74.2533 35.3379 73.7533 35.1645 73.3C34.9912 72.8467 34.7179 72.4867 34.3445 72.22C33.9712 71.9533 33.4712 71.82 32.8445 71.82C32.2979 71.82 31.7712 71.9533 31.2645 72.22C30.7712 72.4867 30.3645 72.8467 30.0445 73.3C29.7379 73.7533 29.5845 74.2533 29.5845 74.8V80.4C29.5845 80.56 29.5245 80.7 29.4045 80.82C29.2979 80.94 29.1579 81 28.9845 81C28.8112 81 28.6645 80.94 28.5445 80.82C28.4379 80.7 28.3845 80.56 28.3845 80.4V74.74C28.3845 74.1933 28.3045 73.7 28.1445 73.26C27.9845 72.82 27.7245 72.4733 27.3645 72.22C27.0045 71.9533 26.5179 71.82 25.9045 71.82C25.3579 71.82 24.8379 71.9533 24.3445 72.22C23.8645 72.4733 23.4712 72.82 23.1645 73.26C22.8712 73.7 22.7245 74.1933 22.7245 74.74V80.4C22.7245 80.56 22.6645 80.7 22.5445 80.82C22.4245 80.94 22.2845 81 22.1245 81C21.9379 81 21.7912 80.94 21.6845 80.82C21.5779 80.7 21.5245 80.56 21.5245 80.4V71.44C21.5245 71.28 21.5779 71.14 21.6845 71.02C21.8045 70.9 21.9512 70.84 22.1245 70.84C22.2979 70.84 22.4379 70.9 22.5445 71.02C22.6645 71.14 22.7245 71.28 22.7245 71.44V73.3L22.1845 74.04C22.2245 73.64 22.3512 73.24 22.5645 72.84C22.7912 72.44 23.0845 72.08 23.4445 71.76C23.8045 71.44 24.2112 71.1867 24.6645 71C25.1312 70.8 25.6179 70.7 26.1245 70.7ZM41.0867 80.4C41.0867 80.56 41.0267 80.7 40.9067 80.82C40.7867 80.94 40.6467 81 40.4867 81C40.3134 81 40.1667 80.94 40.0467 80.82C39.94 80.7 39.8867 80.56 39.8867 80.4V66.8C39.8867 66.64 39.9467 66.5 40.0667 66.38C40.1867 66.26 40.3267 66.2 40.4867 66.2C40.66 66.2 40.8 66.26 40.9067 66.38C41.0267 66.5 41.0867 66.64 41.0867 66.8V80.4Z" fill="white"/>
</svg>
