<svg width="41" height="86" viewBox="0 0 41 86" fill="none" xmlns="http://www.w3.org/2000/svg">
<path d="M29.8881 30.5562C30.8451 29.9019 32.1733 29.3355 32.1733 29.3355C32.1733 29.3355 28.394 30.0191 24.6343 30.3316C20.0347 30.7125 15.0934 30.7906 12.613 30.4586C6.74391 29.6773 15.8356 27.5192 15.8356 27.5192C15.8356 27.5192 12.3102 27.2848 7.96459 29.3746C2.83771 31.855 20.6597 32.9878 29.8881 30.5562ZM21.5484 27.4215C19.693 23.2516 13.4333 19.5896 21.5484 13.1834C31.6713 5.19524 26.48 0 26.48 0C28.5796 8.25184 19.0973 10.7518 15.6696 15.8787C13.3356 19.3845 16.8121 23.1442 21.5484 27.4215ZM32.7397 10.2147C32.7494 10.2147 15.6305 14.492 23.8042 23.9059C26.2163 26.6793 23.1695 29.1793 23.1695 29.1793C23.1695 29.1793 29.2924 26.0153 26.48 22.0603C23.8531 18.3689 21.8414 16.533 32.7397 10.2147ZM32.144 36.6304C32.0906 36.7234 32.0249 36.8088 31.9486 36.8843C44.4778 33.5933 39.8685 25.2731 33.8822 27.3825C33.5589 27.5013 33.2795 27.7159 33.0814 27.9977C33.431 27.8712 33.7903 27.7732 34.1557 27.7047C37.183 27.07 41.5286 31.7574 32.144 36.6304ZM36.7494 42.7143C36.7494 42.7143 38.1654 43.8764 35.1967 44.7846C29.5424 46.4935 11.6813 47.0111 6.72047 44.8529C4.93338 44.0814 8.28295 42.9975 9.33762 42.7729C10.4314 42.5385 11.0661 42.5776 11.0661 42.5776C9.08372 41.1811 -1.75598 45.3217 5.55837 46.5033C25.5034 49.7454 41.9251 45.0482 36.7494 42.7143ZM14.9176 38.6714C7.23218 40.8198 19.5953 45.2533 29.3803 41.0639C28.426 40.6932 27.5048 40.2423 26.6265 39.7163C22.2613 40.5463 20.2398 40.6049 16.275 40.1557C13.0036 39.7846 14.9176 38.6714 14.9176 38.6714ZM32.476 48.1634C24.7905 49.6087 15.3082 49.4427 9.69309 48.515C9.69309 48.5052 10.8454 49.4622 16.7633 49.8431C25.7671 50.4193 39.595 49.5208 39.9173 45.2631C39.9173 45.2631 39.2923 46.8744 32.476 48.1634ZM28.2182 34.4722C22.4371 35.5855 19.0875 35.5562 14.859 35.1167C11.5876 34.7749 13.7262 33.1929 13.7262 33.1929C5.24978 36.0054 18.4332 39.1889 30.2787 35.7222C29.5132 35.4519 28.8117 35.0263 28.2182 34.4722Z" fill="#E7E7E7"/>
<path d="M4.04 81.92C4.04 82.56 3.88667 83.1 3.58 83.54C3.28667 83.9933 2.92 84.34 2.48 84.58C2.04 84.82 1.6 84.94 1.16 84.94C0.986667 84.94 0.853333 84.8867 0.76 84.78C0.653333 84.6733 0.6 84.5467 0.6 84.4V84.32C0.6 84.16 0.653333 84.0333 0.76 83.94C0.866667 83.8467 0.986667 83.7867 1.12 83.76C1.42667 83.6933 1.70667 83.58 1.96 83.42C2.22667 83.26 2.44 83.04 2.6 82.76C2.76 82.48 2.84 82.14 2.84 81.74V71.42C2.84 71.26 2.89333 71.12 3 71C3.12 70.88 3.26667 70.82 3.44 70.82C3.61333 70.82 3.75333 70.88 3.86 71C3.98 71.12 4.04 71.26 4.04 71.42V81.92ZM3.44 69.24C3.16 69.24 2.94667 69.18 2.8 69.06C2.66667 68.9267 2.6 68.74 2.6 68.5V68.3C2.6 68.06 2.67333 67.88 2.82 67.76C2.98 67.6267 3.19333 67.56 3.46 67.56C3.71333 67.56 3.90667 67.6267 4.04 67.76C4.18667 67.88 4.26 68.06 4.26 68.3V68.5C4.26 68.74 4.18667 68.9267 4.04 69.06C3.90667 69.18 3.70667 69.24 3.44 69.24ZM16.3506 70.78C16.524 70.78 16.664 70.84 16.7706 70.96C16.8906 71.08 16.9506 71.2267 16.9506 71.4V80.4C16.9506 80.56 16.8906 80.7 16.7706 80.82C16.6506 80.94 16.5106 81 16.3506 81C16.1773 81 16.0306 80.94 15.9106 80.82C15.804 80.7 15.7506 80.56 15.7506 80.4V78.02L16.0906 77.86C16.0906 78.2333 15.984 78.6133 15.7706 79C15.5706 79.3867 15.2906 79.7467 14.9306 80.08C14.5706 80.4133 14.144 80.6867 13.6506 80.9C13.1706 81.1 12.6506 81.2 12.0906 81.2C11.184 81.2 10.3706 80.9667 9.65063 80.5C8.94396 80.0333 8.38396 79.3933 7.97063 78.58C7.57063 77.7667 7.37063 76.8533 7.37063 75.84C7.37063 74.8 7.57729 73.8867 7.99063 73.1C8.40396 72.3 8.96396 71.6733 9.67063 71.22C10.3773 70.7667 11.1773 70.54 12.0706 70.54C12.644 70.54 13.1773 70.64 13.6706 70.84C14.1773 71.04 14.6173 71.3133 14.9906 71.66C15.364 72.0067 15.6506 72.4067 15.8506 72.86C16.064 73.3 16.1706 73.76 16.1706 74.24L15.7506 73.94V71.4C15.7506 71.2267 15.804 71.08 15.9106 70.96C16.0306 70.84 16.1773 70.78 16.3506 70.78ZM12.1906 80.08C12.8973 80.08 13.524 79.9 14.0706 79.54C14.6173 79.1667 15.044 78.66 15.3506 78.02C15.6706 77.3667 15.8306 76.64 15.8306 75.84C15.8306 75.0533 15.6706 74.3467 15.3506 73.72C15.044 73.0933 14.6173 72.5933 14.0706 72.22C13.524 71.8467 12.8973 71.66 12.1906 71.66C11.4973 71.66 10.8706 71.84 10.3106 72.2C9.76396 72.56 9.33063 73.0533 9.01063 73.68C8.70396 74.3067 8.55063 75.0267 8.55063 75.84C8.55063 76.64 8.70396 77.3667 9.01063 78.02C9.33063 78.66 9.76396 79.1667 10.3106 79.54C10.8573 79.9 11.484 80.08 12.1906 80.08ZM19.6252 70.56C19.7318 70.56 19.8385 70.5933 19.9452 70.66C20.0518 70.7267 20.1318 70.8267 20.1852 70.96L23.6852 79.28L23.4252 79.44L27.0052 70.96C27.1118 70.6933 27.3052 70.5667 27.5852 70.58C27.7185 70.58 27.8452 70.6267 27.9652 70.72C28.0852 70.8 28.1452 70.92 28.1452 71.08C28.1452 71.16 28.1318 71.2267 28.1052 71.28C28.0918 71.32 28.0785 71.3667 28.0652 71.42L24.1452 80.62C24.0385 80.86 23.8585 80.9867 23.6052 81C23.4852 81.0133 23.3652 80.9867 23.2452 80.92C23.1385 80.84 23.0585 80.74 23.0052 80.62L19.0652 71.42C19.0518 71.3933 19.0385 71.3533 19.0252 71.3C19.0118 71.2467 19.0052 71.1933 19.0052 71.14C19.0052 70.9933 19.0585 70.86 19.1652 70.74C19.2718 70.62 19.4252 70.56 19.6252 70.56ZM38.792 70.78C38.9654 70.78 39.1054 70.84 39.212 70.96C39.332 71.08 39.392 71.2267 39.392 71.4V80.4C39.392 80.56 39.332 80.7 39.212 80.82C39.092 80.94 38.952 81 38.792 81C38.6187 81 38.472 80.94 38.352 80.82C38.2454 80.7 38.192 80.56 38.192 80.4V78.02L38.532 77.86C38.532 78.2333 38.4254 78.6133 38.212 79C38.012 79.3867 37.732 79.7467 37.372 80.08C37.012 80.4133 36.5854 80.6867 36.092 80.9C35.612 81.1 35.092 81.2 34.532 81.2C33.6254 81.2 32.812 80.9667 32.092 80.5C31.3854 80.0333 30.8254 79.3933 30.412 78.58C30.012 77.7667 29.812 76.8533 29.812 75.84C29.812 74.8 30.0187 73.8867 30.432 73.1C30.8454 72.3 31.4054 71.6733 32.112 71.22C32.8187 70.7667 33.6187 70.54 34.512 70.54C35.0854 70.54 35.6187 70.64 36.112 70.84C36.6187 71.04 37.0587 71.3133 37.432 71.66C37.8054 72.0067 38.092 72.4067 38.292 72.86C38.5054 73.3 38.612 73.76 38.612 74.24L38.192 73.94V71.4C38.192 71.2267 38.2454 71.08 38.352 70.96C38.472 70.84 38.6187 70.78 38.792 70.78ZM34.632 80.08C35.3387 80.08 35.9654 79.9 36.512 79.54C37.0587 79.1667 37.4854 78.66 37.792 78.02C38.112 77.3667 38.272 76.64 38.272 75.84C38.272 75.0533 38.112 74.3467 37.792 73.72C37.4854 73.0933 37.0587 72.5933 36.512 72.22C35.9654 71.8467 35.3387 71.66 34.632 71.66C33.9387 71.66 33.312 71.84 32.752 72.2C32.2054 72.56 31.772 73.0533 31.452 73.68C31.1454 74.3067 30.992 75.0267 30.992 75.84C30.992 76.64 31.1454 77.3667 31.452 78.02C31.772 78.66 32.2054 79.1667 32.752 79.54C33.2987 79.9 33.9254 80.08 34.632 80.08Z" fill="white"/>
</svg>
