<svg width="37" height="50" viewBox="0 0 37 50" fill="none" xmlns="http://www.w3.org/2000/svg">
<path d="M26.8341 30.5562C27.7911 29.9019 29.1192 29.3356 29.1192 29.3356C29.1192 29.3356 25.3399 30.0191 21.5802 30.3316C16.9807 30.7125 12.0393 30.7906 9.55889 30.4586C3.68983 29.6773 12.7815 27.5192 12.7815 27.5192C12.7815 27.5192 9.25616 27.2848 4.91052 29.3746C-0.216369 31.855 17.6057 32.9878 26.8341 30.5562ZM18.4943 27.4215C16.6389 23.2516 10.3792 19.5896 18.4943 13.1834C28.6172 5.19524 23.4259 0 23.4259 0C25.5255 8.25184 16.0432 10.7518 12.6155 15.8787C10.2815 19.3845 13.7581 23.1442 18.4943 27.4215ZM29.6856 10.2147C29.6953 10.2147 12.5764 14.492 20.7502 23.9059C23.1622 26.6793 20.1154 29.1793 20.1154 29.1793C20.1154 29.1793 26.2384 26.0153 23.4259 22.0603C20.799 18.3689 18.7873 16.533 29.6856 10.2147ZM29.0899 36.6304C29.0365 36.7234 28.9708 36.8088 28.8946 36.8843C41.4237 33.5933 36.8144 25.2731 30.8281 27.3825C30.5048 27.5013 30.2255 27.7159 30.0274 27.9977C30.3769 27.8712 30.7362 27.7732 31.1016 27.7047C34.1289 27.07 38.4745 31.7574 29.0899 36.6304ZM33.6953 42.7143C33.6953 42.7143 35.1113 43.8764 32.1426 44.7846C26.4884 46.4935 8.62726 47.0111 3.66639 44.8529C1.87931 44.0814 5.22887 42.9975 6.28355 42.7729C7.37728 42.5385 8.01204 42.5776 8.01204 42.5776C6.02964 41.1811 -4.81006 45.3217 2.5043 46.5033C22.4493 49.7454 38.871 45.0482 33.6953 42.7143ZM11.8635 38.6714C4.1781 40.8198 16.5412 45.2533 26.3262 41.0639C25.3719 40.6932 24.4507 40.2423 23.5724 39.7163C19.2072 40.5463 17.1857 40.6049 13.221 40.1557C9.94951 39.7846 11.8635 38.6714 11.8635 38.6714ZM29.4219 48.1634C21.7365 49.6087 12.2542 49.4427 6.63901 48.515C6.63901 48.5052 7.79134 49.4622 13.7092 49.8431C22.713 50.4193 36.541 49.5208 36.8632 45.2631C36.8632 45.2631 36.2382 46.8744 29.4219 48.1634ZM25.1642 34.4722C19.383 35.5855 16.0334 35.5562 11.805 35.1167C8.53351 34.7749 10.6722 33.1929 10.6722 33.1929C2.19571 36.0054 15.3791 39.1889 27.2247 35.7222C26.4591 35.4519 25.7576 35.0263 25.1642 34.4722Z" fill="#E7E7E7"/>
</svg>
