<svg width="99" height="86" viewBox="0 0 99 86" fill="none" xmlns="http://www.w3.org/2000/svg">
<path d="M12.3198 82.5236C12.3198 83.1636 12.1665 83.7036 11.8598 84.1436C11.5665 84.597 11.1998 84.9436 10.7598 85.1836C10.3198 85.4236 9.87982 85.5436 9.43982 85.5436C9.26648 85.5436 9.13315 85.4903 9.03982 85.3836C8.93315 85.277 8.87982 85.1503 8.87982 85.0036V84.9236C8.87982 84.7636 8.93315 84.637 9.03982 84.5436C9.14648 84.4503 9.26648 84.3903 9.39982 84.3636C9.70648 84.297 9.98648 84.1836 10.2398 84.0236C10.5065 83.8636 10.7198 83.6436 10.8798 83.3636C11.0398 83.0836 11.1198 82.7436 11.1198 82.3436V72.0236C11.1198 71.8636 11.1731 71.7236 11.2798 71.6036C11.3998 71.4836 11.5465 71.4236 11.7198 71.4236C11.8931 71.4236 12.0331 71.4836 12.1398 71.6036C12.2598 71.7236 12.3198 71.8636 12.3198 72.0236V82.5236ZM11.7198 69.8436C11.4398 69.8436 11.2265 69.7836 11.0798 69.6636C10.9465 69.5303 10.8798 69.3436 10.8798 69.1036V68.9036C10.8798 68.6636 10.9531 68.4836 11.0998 68.3636C11.2598 68.2303 11.4731 68.1636 11.7398 68.1636C11.9931 68.1636 12.1865 68.2303 12.3198 68.3636C12.4665 68.4836 12.5398 68.6636 12.5398 68.9036V69.1036C12.5398 69.3436 12.4665 69.5303 12.3198 69.6636C12.1865 69.7836 11.9865 69.8436 11.7198 69.8436ZM20.8704 81.8036C19.8438 81.8036 18.9371 81.5836 18.1504 81.1436C17.3638 80.7036 16.7504 80.0903 16.3104 79.3036C15.8704 78.517 15.6504 77.597 15.6504 76.5436C15.6504 75.4103 15.8704 74.4436 16.3104 73.6436C16.7638 72.8436 17.3438 72.2303 18.0504 71.8036C18.7704 71.3636 19.5304 71.1436 20.3304 71.1436C20.9171 71.1436 21.4838 71.2503 22.0304 71.4636C22.5904 71.6636 23.0838 71.9703 23.5104 72.3836C23.9504 72.7836 24.2971 73.277 24.5504 73.8636C24.8171 74.4503 24.9638 75.1303 24.9904 75.9036C24.9771 76.0636 24.9104 76.2036 24.7904 76.3236C24.6704 76.4303 24.5304 76.4836 24.3704 76.4836H16.3504L16.1104 75.4036H23.9904L23.7304 75.6436V75.2436C23.6771 74.617 23.4771 74.0836 23.1304 73.6436C22.7838 73.2036 22.3638 72.8703 21.8704 72.6436C21.3771 72.417 20.8638 72.3036 20.3304 72.3036C19.9304 72.3036 19.5171 72.3836 19.0904 72.5436C18.6771 72.7036 18.2971 72.957 17.9504 73.3036C17.6171 73.637 17.3438 74.0703 17.1304 74.6036C16.9171 75.1236 16.8104 75.7436 16.8104 76.4636C16.8104 77.2503 16.9704 77.9636 17.2904 78.6036C17.6104 79.2436 18.0704 79.7503 18.6704 80.1236C19.2838 80.497 20.0104 80.6836 20.8504 80.6836C21.3171 80.6836 21.7371 80.617 22.1104 80.4836C22.4838 80.3503 22.8104 80.177 23.0904 79.9636C23.3704 79.737 23.6038 79.5036 23.7904 79.2636C23.9371 79.1436 24.0838 79.0836 24.2304 79.0836C24.3638 79.0836 24.4771 79.137 24.5704 79.2436C24.6771 79.3503 24.7304 79.4703 24.7304 79.6036C24.7304 79.7636 24.6638 79.9036 24.5304 80.0236C24.1304 80.5036 23.6104 80.9236 22.9704 81.2836C22.3304 81.6303 21.6304 81.8036 20.8704 81.8036ZM26.899 71.4236H31.559C31.719 71.4236 31.8524 71.4836 31.959 71.6036C32.0657 71.7103 32.119 71.8436 32.119 72.0036C32.119 72.1503 32.0657 72.277 31.959 72.3836C31.8524 72.4903 31.719 72.5436 31.559 72.5436H26.899C26.739 72.5436 26.599 72.4903 26.479 72.3836C26.3724 72.2636 26.319 72.1303 26.319 71.9836C26.319 71.8236 26.3724 71.6903 26.479 71.5836C26.599 71.477 26.739 71.4236 26.899 71.4236ZM28.959 68.6036C29.1324 68.6036 29.2724 68.6636 29.379 68.7836C29.499 68.9036 29.559 69.0436 29.559 69.2036V79.2436C29.559 79.617 29.6057 79.897 29.699 80.0836C29.8057 80.2703 29.939 80.397 30.099 80.4636C30.259 80.517 30.419 80.5436 30.579 80.5436C30.6857 80.5436 30.779 80.5303 30.859 80.5036C30.9524 80.4636 31.0524 80.4436 31.159 80.4436C31.279 80.4436 31.379 80.4903 31.459 80.5836C31.5524 80.677 31.599 80.797 31.599 80.9436C31.599 81.1303 31.4924 81.2903 31.279 81.4236C31.0657 81.5436 30.8124 81.6036 30.519 81.6036C30.399 81.6036 30.219 81.597 29.979 81.5836C29.739 81.557 29.4924 81.4836 29.239 81.3636C28.9857 81.2303 28.7724 81.0036 28.599 80.6836C28.439 80.3636 28.359 79.9036 28.359 79.3036V69.2036C28.359 69.0436 28.4124 68.9036 28.519 68.7836C28.639 68.6636 28.7857 68.6036 28.959 68.6036ZM39.1964 71.1436C40.103 71.1436 40.903 71.3703 41.5964 71.8236C42.303 72.277 42.863 72.9036 43.2764 73.7036C43.6897 74.4903 43.8964 75.4036 43.8964 76.4436C43.8964 77.457 43.6897 78.3703 43.2764 79.1836C42.863 79.997 42.303 80.637 41.5964 81.1036C40.8897 81.5703 40.0964 81.8036 39.2164 81.8036C38.7497 81.8036 38.303 81.7303 37.8764 81.5836C37.463 81.437 37.083 81.2436 36.7364 81.0036C36.3897 80.7503 36.083 80.457 35.8164 80.1236C35.5497 79.7903 35.3364 79.4303 35.1764 79.0436L35.5364 78.7836V81.0436C35.5364 81.217 35.4764 81.3636 35.3564 81.4836C35.2497 81.5903 35.1097 81.6436 34.9364 81.6436C34.763 81.6436 34.6164 81.5903 34.4964 81.4836C34.3897 81.3636 34.3364 81.217 34.3364 81.0436V67.4236C34.3364 67.2503 34.3897 67.1103 34.4964 67.0036C34.603 66.8836 34.7497 66.8236 34.9364 66.8236C35.1097 66.8236 35.2497 66.8836 35.3564 67.0036C35.4764 67.1103 35.5364 67.2503 35.5364 67.4236V74.1236L35.2564 73.9636C35.3897 73.5503 35.583 73.177 35.8364 72.8436C36.103 72.497 36.4097 72.197 36.7564 71.9436C37.103 71.6903 37.483 71.497 37.8964 71.3636C38.3097 71.217 38.743 71.1436 39.1964 71.1436ZM39.0964 72.2636C38.3764 72.2636 37.743 72.4436 37.1964 72.8036C36.6497 73.1636 36.2164 73.657 35.8964 74.2836C35.5897 74.9103 35.4364 75.6303 35.4364 76.4436C35.4364 77.2436 35.5897 77.9703 35.8964 78.6236C36.2164 79.2636 36.6497 79.7703 37.1964 80.1436C37.743 80.5036 38.3764 80.6836 39.0964 80.6836C39.803 80.6836 40.423 80.497 40.9564 80.1236C41.503 79.7503 41.9364 79.2436 42.2564 78.6036C42.5764 77.9503 42.7364 77.2303 42.7364 76.4436C42.7364 75.6303 42.5764 74.9103 42.2564 74.2836C41.9364 73.657 41.503 73.1636 40.9564 72.8036C40.423 72.4436 39.803 72.2636 39.0964 72.2636ZM47.0653 81.6036C46.8786 81.6036 46.732 81.5436 46.6253 81.4236C46.5186 81.3036 46.4653 81.1636 46.4653 81.0036V72.0436C46.4653 71.8836 46.5186 71.7436 46.6253 71.6236C46.7453 71.5036 46.892 71.4436 47.0653 71.4436C47.2386 71.4436 47.3786 71.5036 47.4853 71.6236C47.6053 71.7436 47.6653 71.8836 47.6653 72.0436V75.0436L47.3653 75.1036C47.4053 74.637 47.5186 74.177 47.7053 73.7236C47.9053 73.257 48.172 72.8303 48.5053 72.4436C48.8386 72.057 49.232 71.7436 49.6853 71.5036C50.152 71.2636 50.672 71.1436 51.2453 71.1436C51.4853 71.1436 51.7186 71.197 51.9453 71.3036C52.172 71.397 52.2853 71.557 52.2853 71.7836C52.2853 71.9836 52.232 72.137 52.1253 72.2436C52.0186 72.3503 51.892 72.4036 51.7453 72.4036C51.6253 72.4036 51.492 72.3703 51.3453 72.3036C51.212 72.237 51.032 72.2036 50.8053 72.2036C50.432 72.2036 50.0586 72.317 49.6853 72.5436C49.312 72.757 48.972 73.0503 48.6653 73.4236C48.3586 73.797 48.112 74.217 47.9253 74.6836C47.752 75.137 47.6653 75.597 47.6653 76.0636V81.0036C47.6653 81.1636 47.6053 81.3036 47.4853 81.4236C47.3653 81.5436 47.2253 81.6036 47.0653 81.6036ZM62.3062 71.3836C62.4796 71.3836 62.6196 71.4436 62.7262 71.5636C62.8462 71.6836 62.9062 71.8303 62.9062 72.0036V81.0036C62.9062 81.1636 62.8462 81.3036 62.7262 81.4236C62.6062 81.5436 62.4662 81.6036 62.3062 81.6036C62.1329 81.6036 61.9862 81.5436 61.8662 81.4236C61.7596 81.3036 61.7062 81.1636 61.7062 81.0036V78.6236L62.0462 78.4636C62.0462 78.837 61.9396 79.217 61.7262 79.6036C61.5262 79.9903 61.2462 80.3503 60.8862 80.6836C60.5262 81.017 60.0996 81.2903 59.6062 81.5036C59.1262 81.7036 58.6062 81.8036 58.0462 81.8036C57.1396 81.8036 56.3262 81.5703 55.6062 81.1036C54.8996 80.637 54.3396 79.997 53.9262 79.1836C53.5262 78.3703 53.3262 77.457 53.3262 76.4436C53.3262 75.4036 53.5329 74.4903 53.9462 73.7036C54.3596 72.9036 54.9196 72.277 55.6262 71.8236C56.3329 71.3703 57.1329 71.1436 58.0262 71.1436C58.5996 71.1436 59.1329 71.2436 59.6262 71.4436C60.1329 71.6436 60.5729 71.917 60.9462 72.2636C61.3196 72.6103 61.6062 73.0103 61.8062 73.4636C62.0196 73.9036 62.1262 74.3636 62.1262 74.8436L61.7062 74.5436V72.0036C61.7062 71.8303 61.7596 71.6836 61.8662 71.5636C61.9862 71.4436 62.1329 71.3836 62.3062 71.3836ZM58.1462 80.6836C58.8529 80.6836 59.4796 80.5036 60.0262 80.1436C60.5729 79.7703 60.9996 79.2636 61.3062 78.6236C61.6262 77.9703 61.7862 77.2436 61.7862 76.4436C61.7862 75.657 61.6262 74.9503 61.3062 74.3236C60.9996 73.697 60.5729 73.197 60.0262 72.8236C59.4796 72.4503 58.8529 72.2636 58.1462 72.2636C57.4529 72.2636 56.8262 72.4436 56.2662 72.8036C55.7196 73.1636 55.2862 73.657 54.9662 74.2836C54.6596 74.9103 54.5062 75.6303 54.5062 76.4436C54.5062 77.2436 54.6596 77.9703 54.9662 78.6236C55.2862 79.2636 55.7196 79.7703 56.2662 80.1436C56.8129 80.5036 57.4396 80.6836 58.1462 80.6836ZM67.2151 81.0036C67.2151 81.1636 67.1551 81.3036 67.0351 81.4236C66.9151 81.5436 66.7751 81.6036 66.6151 81.6036C66.4418 81.6036 66.2951 81.5436 66.1751 81.4236C66.0685 81.3036 66.0151 81.1636 66.0151 81.0036V71.8036C66.0151 71.6436 66.0685 71.5036 66.1751 71.3836C66.2951 71.2636 66.4418 71.2036 66.6151 71.2036C66.7885 71.2036 66.9285 71.2636 67.0351 71.3836C67.1551 71.5036 67.2151 71.6436 67.2151 71.8036V81.0036ZM66.6151 69.8636C66.3351 69.8636 66.1218 69.8036 65.9751 69.6836C65.8418 69.5503 65.7751 69.3636 65.7751 69.1236V68.9236C65.7751 68.6836 65.8485 68.5036 65.9951 68.3836C66.1551 68.2503 66.3685 68.1836 66.6351 68.1836C66.8885 68.1836 67.0818 68.2503 67.2151 68.3836C67.3618 68.5036 67.4351 68.6836 67.4351 68.9236V69.1236C67.4351 69.3636 67.3618 69.5503 67.2151 69.6836C67.0818 69.8036 66.8818 69.8636 66.6151 69.8636ZM75.1525 71.1436C76.0325 71.1436 76.7325 71.3236 77.2525 71.6836C77.7858 72.0303 78.1658 72.5103 78.3925 73.1236C78.6325 73.7236 78.7525 74.3903 78.7525 75.1236V81.0036C78.7525 81.1636 78.6925 81.3036 78.5725 81.4236C78.4525 81.5436 78.3125 81.6036 78.1525 81.6036C77.9658 81.6036 77.8191 81.5436 77.7125 81.4236C77.6058 81.3036 77.5525 81.1636 77.5525 81.0036V75.1836C77.5525 74.6503 77.4658 74.1636 77.2925 73.7236C77.1191 73.2836 76.8325 72.9303 76.4325 72.6636C76.0458 72.397 75.5325 72.2636 74.8925 72.2636C74.3191 72.2636 73.7725 72.397 73.2525 72.6636C72.7458 72.9303 72.3325 73.2836 72.0125 73.7236C71.6925 74.1636 71.5325 74.6503 71.5325 75.1836V81.0036C71.5325 81.1636 71.4725 81.3036 71.3525 81.4236C71.2325 81.5436 71.0925 81.6036 70.9325 81.6036C70.7458 81.6036 70.5991 81.5436 70.4925 81.4236C70.3858 81.3036 70.3325 81.1636 70.3325 81.0036V72.0436C70.3325 71.8836 70.3858 71.7436 70.4925 71.6236C70.6125 71.5036 70.7591 71.4436 70.9325 71.4436C71.1058 71.4436 71.2458 71.5036 71.3525 71.6236C71.4725 71.7436 71.5325 71.8836 71.5325 72.0436V73.7236L71.0725 74.4436C71.0991 74.017 71.2325 73.6103 71.4725 73.2236C71.7258 72.8236 72.0458 72.4703 72.4325 72.1636C72.8191 71.8436 73.2458 71.597 73.7125 71.4236C74.1925 71.237 74.6725 71.1436 75.1525 71.1436ZM81.315 79.9836C81.2083 79.8236 81.155 79.6703 81.155 79.5236C81.1683 79.3636 81.255 79.237 81.415 79.1436C81.5216 79.0503 81.6416 79.0103 81.775 79.0236C81.9216 79.037 82.055 79.1036 82.175 79.2236C82.535 79.6903 82.9683 80.0703 83.475 80.3636C83.995 80.6436 84.6083 80.7836 85.315 80.7836C85.6883 80.7836 86.055 80.7236 86.415 80.6036C86.7883 80.4703 87.095 80.277 87.335 80.0236C87.575 79.757 87.695 79.4236 87.695 79.0236C87.695 78.6103 87.575 78.277 87.335 78.0236C87.095 77.7703 86.7816 77.5703 86.395 77.4236C86.0216 77.277 85.6216 77.1503 85.195 77.0436C84.7416 76.9236 84.3016 76.7903 83.875 76.6436C83.4483 76.4836 83.0683 76.2903 82.735 76.0636C82.415 75.8236 82.155 75.537 81.955 75.2036C81.755 74.8703 81.655 74.4636 81.655 73.9836C81.655 73.4236 81.8083 72.9303 82.115 72.5036C82.4216 72.077 82.835 71.7436 83.355 71.5036C83.8883 71.2636 84.4883 71.1436 85.155 71.1436C85.4883 71.1436 85.8483 71.1903 86.235 71.2836C86.6216 71.3636 87.0016 71.5036 87.375 71.7036C87.7483 71.9036 88.0816 72.177 88.375 72.5236C88.495 72.6436 88.555 72.7836 88.555 72.9436C88.555 73.0903 88.4883 73.2236 88.355 73.3436C88.2483 73.4236 88.1216 73.4636 87.975 73.4636C87.8416 73.4636 87.7283 73.4103 87.635 73.3036C87.315 72.9436 86.935 72.6703 86.495 72.4836C86.055 72.297 85.5816 72.2036 85.075 72.2036C84.6883 72.2036 84.3216 72.2703 83.975 72.4036C83.6416 72.5236 83.3616 72.7103 83.135 72.9636C82.9083 73.217 82.795 73.5503 82.795 73.9636C82.8216 74.3503 82.955 74.6636 83.195 74.9036C83.4483 75.1436 83.775 75.3436 84.175 75.5036C84.5883 75.6636 85.0483 75.8103 85.555 75.9436C85.9816 76.0503 86.3883 76.177 86.775 76.3236C87.175 76.4703 87.5216 76.657 87.815 76.8836C88.1216 77.097 88.3616 77.3703 88.535 77.7036C88.7216 78.037 88.815 78.457 88.815 78.9636C88.815 79.5503 88.6483 80.057 88.315 80.4836C87.995 80.9103 87.5616 81.237 87.015 81.4636C86.4683 81.6903 85.8616 81.8036 85.195 81.8036C84.475 81.8036 83.775 81.6636 83.095 81.3836C82.4283 81.1036 81.835 80.637 81.315 79.9836Z" fill="white"/>
<g clip-path="url(#clip0_21_198)">
<path d="M24 0H74V50H24V0Z" fill="#E7E7E7"/>
<path d="M29.4417 40.625H48.1917V43.75H29.4417V40.625ZM28.6583 12.8917L30.05 11.575C30.3186 11.9989 30.7741 12.2685 31.275 12.3C31.8083 12.3 32.1583 11.925 32.1583 11.2V6.26666H34.3083V11.2167C34.3733 12.0226 34.0949 12.8186 33.5417 13.4083C33.0147 13.9229 32.3153 14.2189 31.5835 14.2417L31.4 14.2417C30.3801 14.2827 29.406 13.835 28.773 13.044L28.6583 12.8917ZM35.275 6.26666H41.55V8.09166H37.3833V9.28333H41.125V10.95H37.4167V12.1917H41.5833V14.025H35.25L35.275 6.26666ZM44.6083 8.15833H42.275V6.26666H49.1167V8.15833H46.775V14.0667H44.6083V8.15833ZM29.525 17.15H33.2083C33.9807 17.0865 34.7463 17.3357 35.3333 17.8417C35.668 18.1771 35.8516 18.6345 35.8417 19.1083C35.8544 19.8881 35.3682 20.589 34.6333 20.85C35.5493 21.0179 36.2068 21.8274 36.1833 22.7583C36.1833 24.1667 35.0917 25 33.225 25H29.525V17.15ZM33.6917 19.5583C33.6917 19.125 33.3417 18.8917 32.7083 18.8917H31.6333V20.2583H32.675C33.325 20.2583 33.7083 20.0333 33.7083 19.5833L33.6917 19.5583ZM32.9417 21.775H31.6333V23.2167H32.9833C33.65 23.2167 34.0167 22.9583 34.0167 22.5C34.0011 22.0878 33.7242 21.8135 33.0979 21.7787L32.9417 21.775ZM41.325 25L39.75 22.6333H39.025V25H36.8583L36.875 17.15H40.3333C41.2581 17.0747 42.1743 17.3751 42.875 17.9833C43.3085 18.4262 43.5552 19.0162 43.5688 19.6316L43.5667 19.8C43.5974 20.8632 42.9522 21.8294 41.9583 22.2083L43.4808 24.4858L46.575 17.0917H48.6583L51.9917 24.9583H49.6667L49.1083 23.55H46.0833L45.525 25H41.325ZM47.6 19.6583L46.7167 21.8667H48.475L47.6 19.6583ZM40.2 19.025H39.0417V20.9167L40.2083 20.9C40.9333 20.9 41.375 20.5417 41.375 19.9667C41.375 19.3417 40.9167 19.025 40.2 19.025ZM52.3333 17.125H54.5V24.9333H52.3333V17.125ZM55.3 17.125H57.3333L60.1417 21.2917V17.125H62.2833V24.9333H60.3917L57.45 20.65V24.9333H55.3V17.125ZM62.6417 23.775L63.8417 22.3333C64.5445 22.9209 65.4258 23.2529 66.3417 23.275C66.9333 23.275 67.2417 23.0667 67.2417 22.7333C67.2417 22.4816 67.1059 22.3248 66.6044 22.1598L66.3664 22.0882C66.3228 22.0761 66.2772 22.0639 66.2294 22.0515L65.9167 21.975L65.7457 21.9351L65.413 21.8527L65.094 21.7652C63.8482 21.4021 62.975 20.8644 62.975 19.5333C62.975 18.0833 64.125 17.0333 66 17.0333C67.159 16.9899 68.2959 17.359 69.2083 18.075L68.1667 19.5583C67.5363 19.082 66.7731 18.814 65.9833 18.7917C65.4583 18.7917 65.2 19 65.2 19.2917C65.2 19.5557 65.3448 19.7111 65.8577 19.8714L66.1007 19.9406C66.1452 19.9523 66.1917 19.9642 66.2404 19.9761L66.5583 20.05C68.35 20.4417 69.4583 21.025 69.4583 22.4833C69.4583 24.0219 68.2825 24.922 66.4954 24.9803L66.3083 24.9833C65.0629 25.0364 63.8393 24.6621 62.8387 23.9268L62.6417 23.775Z" fill="black"/>
</g>
<defs>
<clipPath id="clip0_21_198">
<rect width="50" height="50" fill="white" transform="translate(24)"/>
</clipPath>
</defs>
</svg>
