<svg width="51" height="50" viewBox="0 0 51 50" fill="none" xmlns="http://www.w3.org/2000/svg">
<path d="M44.7 0H5.41427C2.45668 0 0.0571289 2.39955 0.0571289 5.35714V44.6429C0.0571289 47.6004 2.45668 50 5.41427 50H44.7C47.6576 50 50.0571 47.6004 50.0571 44.6429V5.35714C50.0571 2.39955 47.6576 0 44.7 0ZM27.267 38.9955C27.267 43.8616 24.4098 46.0826 20.2469 46.0826C16.4857 46.0826 14.3094 44.1406 13.1933 41.7857L17.0214 39.4754C17.758 40.7812 18.4277 41.8862 20.046 41.8862C21.5861 41.8862 22.5683 41.2835 22.5683 38.9286V22.9576H27.267V38.9955ZM38.383 46.0826C34.0192 46.0826 31.1955 44.0067 29.8228 41.2835L33.6509 39.0737C34.6553 40.7143 35.9723 41.9308 38.2826 41.9308C40.2245 41.9308 41.4745 40.9598 41.4745 39.6094C41.4745 38.0022 40.2022 37.433 38.0482 36.4844L36.8763 35.9821C33.4835 34.5424 31.2402 32.7232 31.2402 28.8951C31.2402 25.3683 33.9299 22.6897 38.1152 22.6897C41.1062 22.6897 43.2491 23.7277 44.7893 26.4509L41.1286 28.7946C40.325 27.3549 39.4544 26.7857 38.104 26.7857C36.7312 26.7857 35.8607 27.6562 35.8607 28.7946C35.8607 30.2009 36.7312 30.7701 38.7513 31.6518L39.9232 32.154C43.9187 33.8616 46.162 35.6138 46.162 39.5424C46.162 43.7612 42.8361 46.0826 38.383 46.0826Z" fill="#E7E7E7"/>
</svg>
