<svg width="92" height="86" viewBox="0 0 92 86" fill="none" xmlns="http://www.w3.org/2000/svg">
<path d="M66.7 0H27.4143C24.4567 0 22.0571 2.39955 22.0571 5.35714V44.6429C22.0571 47.6004 24.4567 50 27.4143 50H66.7C69.6576 50 72.0571 47.6004 72.0571 44.6429V5.35714C72.0571 2.39955 69.6576 0 66.7 0ZM49.267 38.9955C49.267 43.8616 46.4098 46.0826 42.2469 46.0826C38.4857 46.0826 36.3094 44.1406 35.1933 41.7857L39.0214 39.4754C39.758 40.7813 40.4277 41.8862 42.046 41.8862C43.5861 41.8862 44.5683 41.2835 44.5683 38.9286V22.9576H49.267V38.9955ZM60.383 46.0826C56.0192 46.0826 53.1955 44.0067 51.8228 41.2835L55.6509 39.0737C56.6553 40.7143 57.9723 41.9308 60.2826 41.9308C62.2245 41.9308 63.4745 40.9598 63.4745 39.6094C63.4745 38.0022 62.2022 37.433 60.0482 36.4844L58.8763 35.9821C55.4835 34.5424 53.2402 32.7232 53.2402 28.8951C53.2402 25.3683 55.9299 22.6897 60.1152 22.6897C63.1062 22.6897 65.2491 23.7277 66.7893 26.4509L63.1286 28.7946C62.325 27.3549 61.4544 26.7857 60.104 26.7857C58.7312 26.7857 57.8607 27.6562 57.8607 28.7946C57.8607 30.2009 58.7312 30.7701 60.7513 31.6518L61.9232 32.154C65.9187 33.8616 68.162 35.6138 68.162 39.5424C68.162 43.7612 64.8361 46.0826 60.383 46.0826Z" fill="#E7E7E7"/>
<path d="M4.04 81.92C4.04 82.56 3.88667 83.1 3.58 83.54C3.28667 83.9933 2.92 84.34 2.48 84.58C2.04 84.82 1.6 84.94 1.16 84.94C0.986667 84.94 0.853333 84.8867 0.76 84.78C0.653333 84.6733 0.6 84.5467 0.6 84.4V84.32C0.6 84.16 0.653333 84.0333 0.76 83.94C0.866667 83.8467 0.986667 83.7867 1.12 83.76C1.42667 83.6933 1.70667 83.58 1.96 83.42C2.22667 83.26 2.44 83.04 2.6 82.76C2.76 82.48 2.84 82.14 2.84 81.74V71.42C2.84 71.26 2.89333 71.12 3 71C3.12 70.88 3.26667 70.82 3.44 70.82C3.61333 70.82 3.75333 70.88 3.86 71C3.98 71.12 4.04 71.26 4.04 71.42V81.92ZM3.44 69.24C3.16 69.24 2.94667 69.18 2.8 69.06C2.66667 68.9267 2.6 68.74 2.6 68.5V68.3C2.6 68.06 2.67333 67.88 2.82 67.76C2.98 67.6267 3.19333 67.56 3.46 67.56C3.71333 67.56 3.90667 67.6267 4.04 67.76C4.18667 67.88 4.26 68.06 4.26 68.3V68.5C4.26 68.74 4.18667 68.9267 4.04 69.06C3.90667 69.18 3.70667 69.24 3.44 69.24ZM16.3506 70.78C16.524 70.78 16.664 70.84 16.7706 70.96C16.8906 71.08 16.9506 71.2267 16.9506 71.4V80.4C16.9506 80.56 16.8906 80.7 16.7706 80.82C16.6506 80.94 16.5106 81 16.3506 81C16.1773 81 16.0306 80.94 15.9106 80.82C15.804 80.7 15.7506 80.56 15.7506 80.4V78.02L16.0906 77.86C16.0906 78.2333 15.984 78.6133 15.7706 79C15.5706 79.3867 15.2906 79.7467 14.9306 80.08C14.5706 80.4133 14.144 80.6867 13.6506 80.9C13.1706 81.1 12.6506 81.2 12.0906 81.2C11.184 81.2 10.3706 80.9667 9.65063 80.5C8.94396 80.0333 8.38396 79.3933 7.97063 78.58C7.57063 77.7667 7.37063 76.8533 7.37063 75.84C7.37063 74.8 7.57729 73.8867 7.99063 73.1C8.40396 72.3 8.96396 71.6733 9.67063 71.22C10.3773 70.7667 11.1773 70.54 12.0706 70.54C12.644 70.54 13.1773 70.64 13.6706 70.84C14.1773 71.04 14.6173 71.3133 14.9906 71.66C15.364 72.0067 15.6506 72.4067 15.8506 72.86C16.064 73.3 16.1706 73.76 16.1706 74.24L15.7506 73.94V71.4C15.7506 71.2267 15.804 71.08 15.9106 70.96C16.0306 70.84 16.1773 70.78 16.3506 70.78ZM12.1906 80.08C12.8973 80.08 13.524 79.9 14.0706 79.54C14.6173 79.1667 15.044 78.66 15.3506 78.02C15.6706 77.3667 15.8306 76.64 15.8306 75.84C15.8306 75.0533 15.6706 74.3467 15.3506 73.72C15.044 73.0933 14.6173 72.5933 14.0706 72.22C13.524 71.8467 12.8973 71.66 12.1906 71.66C11.4973 71.66 10.8706 71.84 10.3106 72.2C9.76396 72.56 9.33063 73.0533 9.01063 73.68C8.70396 74.3067 8.55063 75.0267 8.55063 75.84C8.55063 76.64 8.70396 77.3667 9.01063 78.02C9.33063 78.66 9.76396 79.1667 10.3106 79.54C10.8573 79.9 11.484 80.08 12.1906 80.08ZM19.6252 70.56C19.7318 70.56 19.8385 70.5933 19.9452 70.66C20.0518 70.7267 20.1318 70.8267 20.1852 70.96L23.6852 79.28L23.4252 79.44L27.0052 70.96C27.1118 70.6933 27.3052 70.5667 27.5852 70.58C27.7185 70.58 27.8452 70.6267 27.9652 70.72C28.0852 70.8 28.1452 70.92 28.1452 71.08C28.1452 71.16 28.1318 71.2267 28.1052 71.28C28.0918 71.32 28.0785 71.3667 28.0652 71.42L24.1452 80.62C24.0385 80.86 23.8585 80.9867 23.6052 81C23.4852 81.0133 23.3652 80.9867 23.2452 80.92C23.1385 80.84 23.0585 80.74 23.0052 80.62L19.0652 71.42C19.0518 71.3933 19.0385 71.3533 19.0252 71.3C19.0118 71.2467 19.0052 71.1933 19.0052 71.14C19.0052 70.9933 19.0585 70.86 19.1652 70.74C19.2718 70.62 19.4252 70.56 19.6252 70.56ZM38.792 70.78C38.9654 70.78 39.1054 70.84 39.212 70.96C39.332 71.08 39.392 71.2267 39.392 71.4V80.4C39.392 80.56 39.332 80.7 39.212 80.82C39.092 80.94 38.952 81 38.792 81C38.6187 81 38.472 80.94 38.352 80.82C38.2454 80.7 38.192 80.56 38.192 80.4V78.02L38.532 77.86C38.532 78.2333 38.4254 78.6133 38.212 79C38.012 79.3867 37.732 79.7467 37.372 80.08C37.012 80.4133 36.5854 80.6867 36.092 80.9C35.612 81.1 35.092 81.2 34.532 81.2C33.6254 81.2 32.812 80.9667 32.092 80.5C31.3854 80.0333 30.8254 79.3933 30.412 78.58C30.012 77.7667 29.812 76.8533 29.812 75.84C29.812 74.8 30.0187 73.8867 30.432 73.1C30.8454 72.3 31.4054 71.6733 32.112 71.22C32.8187 70.7667 33.6187 70.54 34.512 70.54C35.0854 70.54 35.6187 70.64 36.112 70.84C36.6187 71.04 37.0587 71.3133 37.432 71.66C37.8054 72.0067 38.092 72.4067 38.292 72.86C38.5054 73.3 38.612 73.76 38.612 74.24L38.192 73.94V71.4C38.192 71.2267 38.2454 71.08 38.352 70.96C38.472 70.84 38.6187 70.78 38.792 70.78ZM34.632 80.08C35.3387 80.08 35.9654 79.9 36.512 79.54C37.0587 79.1667 37.4854 78.66 37.792 78.02C38.112 77.3667 38.272 76.64 38.272 75.84C38.272 75.0533 38.112 74.3467 37.792 73.72C37.4854 73.0933 37.0587 72.5933 36.512 72.22C35.9654 71.8467 35.3387 71.66 34.632 71.66C33.9387 71.66 33.312 71.84 32.752 72.2C32.2054 72.56 31.772 73.0533 31.452 73.68C31.1454 74.3067 30.992 75.0267 30.992 75.84C30.992 76.64 31.1454 77.3667 31.452 78.02C31.772 78.66 32.2054 79.1667 32.752 79.54C33.2987 79.9 33.9254 80.08 34.632 80.08ZM41.9609 79.38C41.8543 79.22 41.8009 79.0667 41.8009 78.92C41.8143 78.76 41.9009 78.6333 42.0609 78.54C42.1676 78.4467 42.2876 78.4067 42.4209 78.42C42.5676 78.4333 42.7009 78.5 42.8209 78.62C43.1809 79.0867 43.6143 79.4667 44.1209 79.76C44.6409 80.04 45.2543 80.18 45.9609 80.18C46.3343 80.18 46.7009 80.12 47.0609 80C47.4343 79.8667 47.7409 79.6733 47.9809 79.42C48.2209 79.1533 48.3409 78.82 48.3409 78.42C48.3409 78.0067 48.2209 77.6733 47.9809 77.42C47.7409 77.1667 47.4276 76.9667 47.0409 76.82C46.6676 76.6733 46.2676 76.5467 45.8409 76.44C45.3876 76.32 44.9476 76.1867 44.5209 76.04C44.0943 75.88 43.7143 75.6867 43.3809 75.46C43.0609 75.22 42.8009 74.9333 42.6009 74.6C42.4009 74.2667 42.3009 73.86 42.3009 73.38C42.3009 72.82 42.4543 72.3267 42.7609 71.9C43.0676 71.4733 43.4809 71.14 44.0009 70.9C44.5343 70.66 45.1343 70.54 45.8009 70.54C46.1343 70.54 46.4943 70.5867 46.8809 70.68C47.2676 70.76 47.6476 70.9 48.0209 71.1C48.3943 71.3 48.7276 71.5733 49.0209 71.92C49.1409 72.04 49.2009 72.18 49.2009 72.34C49.2009 72.4867 49.1343 72.62 49.0009 72.74C48.8943 72.82 48.7676 72.86 48.6209 72.86C48.4876 72.86 48.3743 72.8067 48.2809 72.7C47.9609 72.34 47.5809 72.0667 47.1409 71.88C46.7009 71.6933 46.2276 71.6 45.7209 71.6C45.3343 71.6 44.9676 71.6667 44.6209 71.8C44.2876 71.92 44.0076 72.1067 43.7809 72.36C43.5543 72.6133 43.4409 72.9467 43.4409 73.36C43.4676 73.7467 43.6009 74.06 43.8409 74.3C44.0943 74.54 44.4209 74.74 44.8209 74.9C45.2343 75.06 45.6943 75.2067 46.2009 75.34C46.6276 75.4467 47.0343 75.5733 47.4209 75.72C47.8209 75.8667 48.1676 76.0533 48.4609 76.28C48.7676 76.4933 49.0076 76.7667 49.1809 77.1C49.3676 77.4333 49.4609 77.8533 49.4609 78.36C49.4609 78.9467 49.2943 79.4533 48.9609 79.88C48.6409 80.3067 48.2076 80.6333 47.6609 80.86C47.1143 81.0867 46.5076 81.2 45.8409 81.2C45.1209 81.2 44.4209 81.06 43.7409 80.78C43.0743 80.5 42.4809 80.0333 41.9609 79.38ZM56.4159 70.54C57.0559 70.54 57.6426 70.6133 58.1759 70.76C58.7093 70.8933 59.1359 71.08 59.4559 71.32C59.7893 71.56 59.9559 71.82 59.9559 72.1C59.9559 72.2333 59.9093 72.3667 59.8159 72.5C59.7226 72.62 59.5959 72.68 59.4359 72.68C59.2759 72.68 59.1426 72.64 59.0359 72.56C58.9426 72.48 58.8426 72.3867 58.7359 72.28C58.6426 72.1733 58.5026 72.0733 58.3159 71.98C58.1426 71.9 57.8959 71.8267 57.5759 71.76C57.2559 71.6933 56.8893 71.66 56.4759 71.66C55.7293 71.66 55.0559 71.8467 54.4559 72.22C53.8559 72.5933 53.3826 73.1 53.0359 73.74C52.6893 74.3667 52.5159 75.0733 52.5159 75.86C52.5159 76.66 52.6826 77.38 53.0159 78.02C53.3493 78.66 53.8093 79.1667 54.3959 79.54C54.9826 79.9 55.6693 80.08 56.4559 80.08C56.9893 80.08 57.4026 80.0333 57.6959 79.94C57.9893 79.8467 58.2426 79.74 58.4559 79.62C58.7093 79.4733 58.8893 79.3333 58.9959 79.2C59.1159 79.0533 59.2693 78.98 59.4559 78.98C59.6293 78.98 59.7559 79.0333 59.8359 79.14C59.9293 79.2333 59.9759 79.36 59.9759 79.52C59.9759 79.7333 59.8159 79.9733 59.4959 80.24C59.1893 80.4933 58.7626 80.72 58.2159 80.92C57.6693 81.1067 57.0426 81.2 56.3359 81.2C55.3359 81.2 54.4559 80.9667 53.6959 80.5C52.9493 80.0333 52.3626 79.4 51.9359 78.6C51.5226 77.7867 51.3159 76.8733 51.3159 75.86C51.3159 74.8867 51.5293 74 51.9559 73.2C52.3826 72.4 52.9759 71.76 53.7359 71.28C54.5093 70.7867 55.4026 70.54 56.4159 70.54ZM62.8675 81C62.6808 81 62.5342 80.94 62.4275 80.82C62.3208 80.7 62.2675 80.56 62.2675 80.4V71.44C62.2675 71.28 62.3208 71.14 62.4275 71.02C62.5475 70.9 62.6942 70.84 62.8675 70.84C63.0408 70.84 63.1808 70.9 63.2875 71.02C63.4075 71.14 63.4675 71.28 63.4675 71.44V74.44L63.1675 74.5C63.2075 74.0333 63.3208 73.5733 63.5075 73.12C63.7075 72.6533 63.9742 72.2267 64.3075 71.84C64.6408 71.4533 65.0342 71.14 65.4875 70.9C65.9542 70.66 66.4742 70.54 67.0475 70.54C67.2875 70.54 67.5208 70.5933 67.7475 70.7C67.9742 70.7933 68.0875 70.9533 68.0875 71.18C68.0875 71.38 68.0342 71.5333 67.9275 71.64C67.8208 71.7467 67.6942 71.8 67.5475 71.8C67.4275 71.8 67.2942 71.7667 67.1475 71.7C67.0142 71.6333 66.8342 71.6 66.6075 71.6C66.2342 71.6 65.8608 71.7133 65.4875 71.94C65.1142 72.1533 64.7742 72.4467 64.4675 72.82C64.1608 73.1933 63.9142 73.6133 63.7275 74.08C63.5542 74.5333 63.4675 74.9933 63.4675 75.46V80.4C63.4675 80.56 63.4075 80.7 63.2875 80.82C63.1675 80.94 63.0275 81 62.8675 81ZM71.1228 80.4C71.1228 80.56 71.0628 80.7 70.9428 80.82C70.8228 80.94 70.6828 81 70.5228 81C70.3495 81 70.2028 80.94 70.0828 80.82C69.9761 80.7 69.9228 80.56 69.9228 80.4V71.2C69.9228 71.04 69.9761 70.9 70.0828 70.78C70.2028 70.66 70.3495 70.6 70.5228 70.6C70.6961 70.6 70.8361 70.66 70.9428 70.78C71.0628 70.9 71.1228 71.04 71.1228 71.2V80.4ZM70.5228 69.26C70.2428 69.26 70.0295 69.2 69.8828 69.08C69.7495 68.9467 69.6828 68.76 69.6828 68.52V68.32C69.6828 68.08 69.7561 67.9 69.9028 67.78C70.0628 67.6467 70.2761 67.58 70.5428 67.58C70.7961 67.58 70.9895 67.6467 71.1228 67.78C71.2695 67.9 71.3428 68.08 71.3428 68.32V68.52C71.3428 68.76 71.2695 68.9467 71.1228 69.08C70.9895 69.2 70.7895 69.26 70.5228 69.26ZM79.1002 70.7C80.0068 70.7 80.8068 70.9267 81.5002 71.38C82.2068 71.82 82.7668 72.4333 83.1802 73.22C83.5935 73.9933 83.8002 74.8867 83.8002 75.9C83.8002 76.9133 83.5935 77.8133 83.1802 78.6C82.7668 79.3867 82.2068 80.0067 81.5002 80.46C80.7935 80.9133 80.0002 81.14 79.1202 81.14C78.6535 81.14 78.2068 81.0733 77.7802 80.94C77.3668 80.7933 76.9868 80.6 76.6402 80.36C76.2935 80.12 75.9868 79.84 75.7202 79.52C75.4535 79.1867 75.2402 78.8267 75.0802 78.44L75.4402 78.18V84.4C75.4402 84.56 75.3802 84.7 75.2602 84.82C75.1535 84.94 75.0135 85 74.8402 85C74.6668 85 74.5202 84.94 74.4002 84.82C74.2935 84.7 74.2402 84.56 74.2402 84.4V71.36C74.2402 71.1867 74.2935 71.04 74.4002 70.92C74.5068 70.8 74.6535 70.74 74.8402 70.74C75.0135 70.74 75.1535 70.8 75.2602 70.92C75.3802 71.04 75.4402 71.1867 75.4402 71.36V73.52L75.1602 73.36C75.2935 72.9467 75.4868 72.58 75.7402 72.26C76.0068 71.9267 76.3135 71.6467 76.6602 71.42C77.0068 71.18 77.3868 71 77.8002 70.88C78.2135 70.76 78.6468 70.7 79.1002 70.7ZM79.0002 71.82C78.2802 71.82 77.6468 72 77.1002 72.36C76.5535 72.7067 76.1202 73.1867 75.8002 73.8C75.4935 74.4 75.3402 75.1 75.3402 75.9C75.3402 76.6867 75.4935 77.3933 75.8002 78.02C76.1202 78.6467 76.5535 79.14 77.1002 79.5C77.6468 79.8467 78.2802 80.02 79.0002 80.02C79.7068 80.02 80.3268 79.8467 80.8602 79.5C81.4068 79.14 81.8402 78.6467 82.1602 78.02C82.4802 77.3933 82.6402 76.6867 82.6402 75.9C82.6402 75.1133 82.4802 74.4133 82.1602 73.8C81.8402 73.1867 81.4068 72.7067 80.8602 72.36C80.3268 72 79.7068 71.82 79.0002 71.82ZM85.7091 70.82H90.3691C90.5291 70.82 90.6624 70.88 90.7691 71C90.8757 71.1067 90.9291 71.24 90.9291 71.4C90.9291 71.5467 90.8757 71.6733 90.7691 71.78C90.6624 71.8867 90.5291 71.94 90.3691 71.94H85.7091C85.5491 71.94 85.4091 71.8867 85.2891 71.78C85.1824 71.66 85.1291 71.5267 85.1291 71.38C85.1291 71.22 85.1824 71.0867 85.2891 70.98C85.4091 70.8733 85.5491 70.82 85.7091 70.82ZM87.7691 68C87.9424 68 88.0824 68.06 88.1891 68.18C88.3091 68.3 88.3691 68.44 88.3691 68.6V78.64C88.3691 79.0133 88.4157 79.2933 88.5091 79.48C88.6157 79.6667 88.7491 79.7933 88.9091 79.86C89.0691 79.9133 89.2291 79.94 89.3891 79.94C89.4957 79.94 89.5891 79.9267 89.6691 79.9C89.7624 79.86 89.8624 79.84 89.9691 79.84C90.0891 79.84 90.1891 79.8867 90.2691 79.98C90.3624 80.0733 90.4091 80.1933 90.4091 80.34C90.4091 80.5267 90.3024 80.6867 90.0891 80.82C89.8757 80.94 89.6224 81 89.3291 81C89.2091 81 89.0291 80.9933 88.7891 80.98C88.5491 80.9533 88.3024 80.88 88.0491 80.76C87.7957 80.6267 87.5824 80.4 87.4091 80.08C87.2491 79.76 87.1691 79.3 87.1691 78.7V68.6C87.1691 68.44 87.2224 68.3 87.3291 68.18C87.4491 68.06 87.5957 68 87.7691 68Z" fill="white"/>
</svg>
