<svg width="50" height="50" viewBox="0 0 50 50" fill="none" xmlns="http://www.w3.org/2000/svg">
<g clip-path="url(#clip0_28_33)">
<path d="M24.8437 0.135925L26.1781 2.64218C26.4781 3.10468 26.8031 3.51405 27.1859 3.8953C28.3031 5.01249 29.3641 6.1828 30.3172 7.43593C32.5781 10.4047 34.1031 13.7015 35.1922 17.2672C35.8453 19.4453 36.2 21.6797 36.2266 23.9391C36.3359 30.6937 34.0203 36.4937 29.3516 41.3141C28.5891 42.0766 27.7734 42.7828 26.8984 43.4109C26.4359 43.4109 26.2172 43.0562 26.0266 42.7297C25.6719 42.1312 25.4547 41.4484 25.3453 40.7687C25.1812 39.9515 25.0734 39.1344 25.1266 38.2906V37.9094C25.0891 37.8281 24.6812 0.328113 24.8437 0.135925Z" fill="#E7E7E7"/>
<path d="M24.8437 0.0531444C24.789 -0.0562306 24.7343 0.0265818 24.6796 0.0797068C24.7062 0.626582 24.5156 1.11408 24.2171 1.57971C23.889 2.04221 23.4546 2.39689 23.0187 2.77814C20.5968 4.87502 18.6906 7.40783 17.164 10.2406C15.1328 14.0531 14.0859 18.1391 13.789 22.4406C13.6531 23.9922 14.2796 29.4672 14.7687 31.0469C16.1031 35.2406 18.4999 38.7547 21.6046 41.8047C22.3671 42.5391 23.1828 43.2203 24.0265 43.875C24.2718 43.875 24.2984 43.6563 24.3546 43.4938C24.4622 43.1461 24.5442 42.7909 24.6 42.4313L25.1468 38.3469L24.8437 0.0531444Z" fill="#AEAEAE"/>
<path d="M26.1782 45.0703C26.2329 44.4453 26.5329 43.9266 26.8594 43.4094C26.5313 43.2734 26.2875 43.0031 26.0969 42.7016C25.9329 42.4297 25.7969 42.1031 25.6907 41.8031C25.3094 40.6594 25.2282 39.4594 25.1188 38.2906V37.5828C24.9829 37.6922 24.9547 38.6172 24.9547 38.7547C24.8752 39.99 24.7113 41.2184 24.4641 42.4313C24.3829 42.9219 24.3282 43.411 24.0266 43.8469C24.0266 43.9016 24.0266 43.9563 24.0532 44.0375C24.5438 45.4813 24.6782 46.9516 24.761 48.45V48.9969C24.761 49.65 24.7344 49.5125 25.2766 49.7313C25.4954 49.8125 25.7391 49.8406 25.9579 50.0031C26.1219 50.0031 26.1485 49.8672 26.1485 49.7578L26.0672 48.8594V46.3531C26.0407 45.9156 26.1219 45.4813 26.1766 45.0719L26.1782 45.0703Z" fill="#AEAEAE"/>
</g>
<defs>
<clipPath id="clip0_28_33">
<rect width="50" height="50" fill="white"/>
</clipPath>
</defs>
</svg>
