<svg width="51" height="50" viewBox="0 0 51 50" fill="none" xmlns="http://www.w3.org/2000/svg">
<path fill-rule="evenodd" clip-rule="evenodd" d="M12.1094 8.28775C11.6279 8.28621 11.1482 8.34731 10.6825 8.46952V8.53312H10.7516C11.0851 9.03666 11.457 9.51368 11.864 9.96002C12.1439 10.5162 12.3875 11.0706 12.6656 11.6268C12.7001 11.5923 12.7346 11.5559 12.7346 11.5559C12.9929 11.351 13.195 11.0839 13.3221 10.7798C13.4492 10.4756 13.4973 10.1442 13.4617 9.81641C13.3095 9.58168 13.17 9.33898 13.0437 9.08933C12.8346 8.74217 12.382 8.56767 12.1039 8.28955" fill="#E7E7E7"/>
<path fill-rule="evenodd" clip-rule="evenodd" d="M46.6362 38.6213C44.3433 38.4602 42.0426 38.7926 39.889 39.5956C39.3672 39.8047 38.5349 39.8047 38.4622 40.4646C38.742 40.7426 38.7748 41.1916 39.0203 41.5787C39.4964 42.3846 40.1083 43.1024 40.8287 43.7C41.5557 44.2561 42.2828 44.8104 43.0555 45.2976C44.4096 46.1357 45.942 46.6209 47.2615 47.4552C48.0287 47.9424 48.7921 48.5677 49.5591 49.0912C49.9409 49.3692 50.1826 49.8182 50.6697 50V49.8947C50.5266 49.5082 50.3495 49.1354 50.1407 48.7803C49.7935 48.435 49.4445 48.1207 49.0955 47.7734C48.0761 46.4251 46.8561 45.2409 45.4784 44.2616C44.3643 43.4944 41.9286 42.444 41.4795 41.1716L41.4086 41.1006C42.2241 40.9852 43.0273 40.7979 43.8097 40.5408C44.9913 40.2281 46.0691 40.2991 47.2851 39.9955C47.8432 39.8556 48.8521 39.5083 48.8521 39.5083V38.963C48.2303 38.345 47.785 37.5179 47.1306 36.9345C45.3505 35.3806 43.4531 33.9657 41.456 32.7029C40.3889 32.0139 39.013 31.5704 37.8767 30.9835C37.4661 30.7762 36.7861 30.6744 36.5372 30.3292C35.9721 29.5 35.4992 28.6121 35.1266 27.6806C34.1306 25.7902 33.1653 23.6945 32.3074 21.695C31.7996 20.3552 31.2138 19.0459 30.5534 17.7743C27.3659 12.3548 22.7647 7.90394 17.2425 4.89784C15.8491 4.2234 14.3677 3.74857 12.8419 3.48731C11.9803 3.45096 11.1224 3.38372 10.2626 3.351C9.70757 2.98738 9.17969 2.58403 8.68304 2.14406C6.7163 0.898931 1.66314 -1.7767 0.216265 1.76598C-0.710753 4.00354 1.59407 6.20293 2.38475 7.339C3.05148 8.14 3.63889 9.00383 4.13883 9.91828C4.38057 10.5036 4.44964 11.1234 4.68413 11.736C5.18869 13.3085 5.7878 14.849 6.47817 16.3492C6.84741 17.0907 7.27278 17.8029 7.75055 18.4796C8.02867 18.8595 8.50854 19.0249 8.61213 19.6519C8.23094 20.4712 7.96428 21.3393 7.81962 22.2313C7.21877 24.1287 6.99765 26.1261 7.16886 28.109C7.3401 30.0918 7.90033 32.0218 8.81755 33.788C9.36285 34.648 10.6752 36.5401 12.4293 35.8165C13.9761 35.1985 13.6326 33.2375 14.0797 31.5195C14.1815 31.1034 14.1143 30.8308 14.3197 30.5563V30.8908C14.3197 30.8908 15.1976 32.8192 15.6339 33.799C16.8202 35.5967 18.294 37.1872 19.9962 38.5067C20.6695 39.0948 21.2122 39.8175 21.5885 40.628V41.2516H22.3648C22.3485 40.9703 22.2705 40.6964 22.1365 40.4489C22.0024 40.2011 21.8154 39.9862 21.5885 39.8192C20.9522 39.164 20.3691 38.459 19.8453 37.7107C18.4226 35.6842 17.1679 33.5452 16.0937 31.3142C15.5484 30.2236 15.0886 29.0277 14.6523 27.9388C14.4524 27.5189 14.4524 26.8846 14.1161 26.6665C13.4952 27.4011 12.9563 28.2015 12.5092 29.053C11.9665 30.7744 11.6506 32.5592 11.5695 34.3624C11.4368 34.3987 11.5023 34.3624 11.4368 34.4316C10.3662 34.1498 9.99721 32.992 9.59368 32.0104C8.55126 28.9832 8.4461 25.7119 9.29195 22.6239C9.52461 21.8878 10.5334 19.5685 10.1299 18.8649C9.92814 18.1942 9.25743 17.8107 8.89025 17.2817C8.4215 16.5701 8.01814 15.8176 7.68512 15.0332C6.88717 13.0774 6.48364 10.8962 5.61479 8.92583C5.13381 7.97819 4.57379 7.0728 3.94069 6.21931C3.24037 5.36668 2.62262 4.44949 2.09575 3.48004C1.92852 3.09289 1.69403 2.46034 1.96124 2.03863C1.97927 1.92149 2.03497 1.81342 2.11992 1.73076C2.20487 1.64811 2.31443 1.59538 2.43201 1.58058C2.86462 1.19523 4.10611 1.686 4.54052 1.89685C5.70812 2.35651 6.82028 2.94611 7.85598 3.65454C8.32494 4.00717 9.43009 4.89967 9.43009 4.89967H9.75728C10.8697 5.14141 12.1203 4.96691 13.1673 5.28138C14.9301 5.869 16.6124 6.67507 18.175 7.68073C22.7804 10.6166 26.5245 14.7218 29.0248 19.5775C29.4427 20.3755 29.6192 21.1078 30.0008 21.9405C30.7279 23.6491 31.6367 25.3941 32.3638 27.0553C33.0053 28.6991 33.8348 30.2631 34.8358 31.7158C35.3558 32.4429 37.4443 32.8283 38.3839 33.2101C39.2 33.4925 40.001 33.8171 40.7833 34.1827C41.9667 34.9097 43.1463 35.7476 44.2604 36.5456C44.8151 36.9636 46.5545 37.8326 46.6598 38.5285" fill="#E7E7E7"/>
</svg>
