<svg width="99" height="86" viewBox="0 0 99 86" fill="none" xmlns="http://www.w3.org/2000/svg">
<path d="M27.9501 71.3036C28.7767 71.3036 29.4834 71.5236 30.0701 71.9636C30.6567 72.3903 31.0567 73.0303 31.2701 73.8836L30.9901 73.9636L31.1101 73.6036C31.2834 73.2036 31.5701 72.8303 31.9701 72.4836C32.3834 72.1236 32.8501 71.837 33.3701 71.6236C33.8901 71.4103 34.4167 71.3036 34.9501 71.3036C35.7901 71.3036 36.4634 71.4836 36.9701 71.8436C37.4901 72.2036 37.8634 72.6903 38.0901 73.3036C38.3301 73.9036 38.4501 74.5836 38.4501 75.3436V81.0036C38.4501 81.1636 38.3901 81.3036 38.2701 81.4236C38.1634 81.5436 38.0234 81.6036 37.8501 81.6036C37.6767 81.6036 37.5301 81.5436 37.4101 81.4236C37.3034 81.3036 37.2501 81.1636 37.2501 81.0036V75.4036C37.2501 74.857 37.1634 74.357 36.9901 73.9036C36.8167 73.4503 36.5434 73.0903 36.1701 72.8236C35.7967 72.557 35.2967 72.4236 34.6701 72.4236C34.1234 72.4236 33.5967 72.557 33.0901 72.8236C32.5967 73.0903 32.1901 73.4503 31.87 73.9036C31.5634 74.357 31.4101 74.857 31.4101 75.4036V81.0036C31.4101 81.1636 31.3501 81.3036 31.2301 81.4236C31.1234 81.5436 30.9834 81.6036 30.8101 81.6036C30.6367 81.6036 30.4901 81.5436 30.3701 81.4236C30.2634 81.3036 30.2101 81.1636 30.2101 81.0036V75.3436C30.2101 74.797 30.1301 74.3036 29.9701 73.8636C29.8101 73.4236 29.5501 73.077 29.1901 72.8236C28.8301 72.557 28.3434 72.4236 27.7301 72.4236C27.1834 72.4236 26.6634 72.557 26.1701 72.8236C25.6901 73.077 25.2967 73.4236 24.9901 73.8636C24.6967 74.3036 24.5501 74.797 24.5501 75.3436V81.0036C24.5501 81.1636 24.4901 81.3036 24.3701 81.4236C24.2501 81.5436 24.1101 81.6036 23.9501 81.6036C23.7634 81.6036 23.6167 81.5436 23.5101 81.4236C23.4034 81.3036 23.3501 81.1636 23.3501 81.0036V72.0436C23.3501 71.8836 23.4034 71.7436 23.5101 71.6236C23.6301 71.5036 23.7767 71.4436 23.9501 71.4436C24.1234 71.4436 24.2634 71.5036 24.3701 71.6236C24.4901 71.7436 24.5501 71.8836 24.5501 72.0436V73.9036L24.0101 74.6436C24.0501 74.2436 24.1767 73.8436 24.3901 73.4436C24.6167 73.0436 24.9101 72.6836 25.2701 72.3636C25.6301 72.0436 26.0367 71.7903 26.4901 71.6036C26.9567 71.4036 27.4434 71.3036 27.9501 71.3036ZM49.1146 71.2036C49.2879 71.2036 49.4279 71.2636 49.5346 71.3836C49.6546 71.5036 49.7146 71.6436 49.7146 71.8036V80.6236C49.7146 81.7036 49.5012 82.6103 49.0746 83.3436C48.6479 84.0903 48.0746 84.6503 47.3546 85.0236C46.6346 85.4103 45.8146 85.6036 44.8946 85.6036C44.3212 85.6036 43.7879 85.537 43.2946 85.4036C42.8146 85.2836 42.4212 85.1236 42.1146 84.9236C41.9546 84.8303 41.8346 84.717 41.7546 84.5836C41.6746 84.4503 41.6679 84.3103 41.7346 84.1636C41.8012 83.977 41.9012 83.8503 42.0346 83.7836C42.1812 83.7303 42.3279 83.737 42.4746 83.8036C42.7012 83.9236 43.0279 84.0703 43.4546 84.2436C43.8812 84.417 44.3679 84.5036 44.9146 84.5036C45.6479 84.5036 46.2812 84.3503 46.8146 84.0436C47.3612 83.737 47.7812 83.2903 48.0746 82.7036C48.3679 82.1303 48.5146 81.4436 48.5146 80.6436V79.2036L48.6546 79.6836C48.4546 80.097 48.1679 80.4636 47.7946 80.7836C47.4346 81.1036 47.0146 81.357 46.5346 81.5436C46.0679 81.717 45.5679 81.8036 45.0346 81.8036C44.2346 81.8036 43.5679 81.6436 43.0346 81.3236C42.5146 80.9903 42.1279 80.537 41.8746 79.9636C41.6212 79.3903 41.4946 78.717 41.4946 77.9436V71.8036C41.4946 71.6436 41.5479 71.5036 41.6546 71.3836C41.7612 71.2636 41.9079 71.2036 42.0946 71.2036C42.2679 71.2036 42.4079 71.2636 42.5146 71.3836C42.6346 71.5036 42.6946 71.6436 42.6946 71.8036V77.7636C42.6946 78.697 42.8946 79.417 43.2946 79.9236C43.7079 80.4303 44.3746 80.6836 45.2946 80.6836C45.8679 80.6836 46.3946 80.5503 46.8746 80.2836C47.3546 80.0036 47.7479 79.6436 48.0546 79.2036C48.3612 78.7503 48.5146 78.2703 48.5146 77.7636V71.8036C48.5146 71.6436 48.5679 71.5036 48.6746 71.3836C48.7946 71.2636 48.9412 71.2036 49.1146 71.2036ZM52.0865 79.9836C51.9798 79.8236 51.9265 79.6703 51.9265 79.5236C51.9398 79.3636 52.0265 79.237 52.1865 79.1436C52.2931 79.0503 52.4131 79.0103 52.5465 79.0236C52.6931 79.037 52.8265 79.1036 52.9465 79.2236C53.3065 79.6903 53.7398 80.0703 54.2465 80.3636C54.7665 80.6436 55.3798 80.7836 56.0865 80.7836C56.4598 80.7836 56.8265 80.7236 57.1865 80.6036C57.5598 80.4703 57.8665 80.277 58.1065 80.0236C58.3465 79.757 58.4665 79.4236 58.4665 79.0236C58.4665 78.6103 58.3465 78.277 58.1065 78.0236C57.8665 77.7703 57.5531 77.5703 57.1665 77.4236C56.7931 77.277 56.3931 77.1503 55.9665 77.0436C55.5131 76.9236 55.0731 76.7903 54.6465 76.6436C54.2198 76.4836 53.8398 76.2903 53.5065 76.0636C53.1865 75.8236 52.9265 75.537 52.7265 75.2036C52.5265 74.8703 52.4265 74.4636 52.4265 73.9836C52.4265 73.4236 52.5798 72.9303 52.8865 72.5036C53.1931 72.077 53.6065 71.7436 54.1265 71.5036C54.6598 71.2636 55.2598 71.1436 55.9265 71.1436C56.2598 71.1436 56.6198 71.1903 57.0065 71.2836C57.3931 71.3636 57.7731 71.5036 58.1465 71.7036C58.5198 71.9036 58.8531 72.177 59.1465 72.5236C59.2665 72.6436 59.3265 72.7836 59.3265 72.9436C59.3265 73.0903 59.2598 73.2236 59.1265 73.3436C59.0198 73.4236 58.8931 73.4636 58.7465 73.4636C58.6131 73.4636 58.4998 73.4103 58.4065 73.3036C58.0865 72.9436 57.7065 72.6703 57.2665 72.4836C56.8265 72.297 56.3531 72.2036 55.8465 72.2036C55.4598 72.2036 55.0931 72.2703 54.7465 72.4036C54.4131 72.5236 54.1331 72.7103 53.9065 72.9636C53.6798 73.217 53.5665 73.5503 53.5665 73.9636C53.5931 74.3503 53.7265 74.6636 53.9665 74.9036C54.2198 75.1436 54.5465 75.3436 54.9465 75.5036C55.3598 75.6636 55.8198 75.8103 56.3265 75.9436C56.7531 76.0503 57.1598 76.177 57.5465 76.3236C57.9465 76.4703 58.2931 76.657 58.5865 76.8836C58.8931 77.097 59.1331 77.3703 59.3065 77.7036C59.4931 78.037 59.5865 78.457 59.5865 78.9636C59.5865 79.5503 59.4198 80.057 59.0865 80.4836C58.7665 80.9103 58.3331 81.237 57.7865 81.4636C57.2398 81.6903 56.6331 81.8036 55.9665 81.8036C55.2465 81.8036 54.5465 81.6636 53.8665 81.3836C53.1998 81.1036 52.6065 80.637 52.0865 79.9836ZM70.4215 71.3436C70.5948 71.3436 70.7348 71.4036 70.8415 71.5236C70.9615 71.6436 71.0215 71.7903 71.0215 71.9636V85.0036C71.0215 85.1636 70.9615 85.3036 70.8415 85.4236C70.7215 85.5436 70.5815 85.6036 70.4215 85.6036C70.2481 85.6036 70.1015 85.5436 69.9815 85.4236C69.8748 85.3036 69.8215 85.1636 69.8215 85.0036V78.6236L70.1615 78.3436C70.1615 78.717 70.0615 79.1103 69.8615 79.5236C69.6615 79.9236 69.3748 80.297 69.0015 80.6436C68.6415 80.9903 68.2148 81.2703 67.7215 81.4836C67.2415 81.697 66.7215 81.8036 66.1615 81.8036C65.2681 81.8036 64.4615 81.5703 63.7415 81.1036C63.0348 80.637 62.4748 80.0036 62.0615 79.2036C61.6481 78.4036 61.4415 77.4903 61.4415 76.4636C61.4415 75.4503 61.6481 74.5436 62.0615 73.7436C62.4748 72.9303 63.0348 72.297 63.7415 71.8436C64.4481 71.377 65.2481 71.1436 66.1415 71.1436C66.6881 71.1436 67.2081 71.2436 67.7015 71.4436C68.1948 71.6436 68.6281 71.917 69.0015 72.2636C69.3881 72.6103 69.6881 73.0103 69.9015 73.4636C70.1281 73.9036 70.2415 74.3636 70.2415 74.8436L69.8215 74.5436V71.9636C69.8215 71.7903 69.8748 71.6436 69.9815 71.5236C70.1015 71.4036 70.2481 71.3436 70.4215 71.3436ZM66.2615 80.6836C66.9815 80.6836 67.6081 80.5036 68.1415 80.1436C68.6881 79.7703 69.1148 79.2703 69.4215 78.6436C69.7415 78.0036 69.9015 77.277 69.9015 76.4636C69.9015 75.6636 69.7415 74.9503 69.4215 74.3236C69.1148 73.6836 68.6881 73.1836 68.1415 72.8236C67.5948 72.4503 66.9681 72.2636 66.2615 72.2636C65.5681 72.2636 64.9415 72.4503 64.3815 72.8236C63.8348 73.1836 63.4015 73.6836 63.0815 74.3236C62.7748 74.9503 62.6215 75.6636 62.6215 76.4636C62.6215 77.2636 62.7748 77.9836 63.0815 78.6236C63.4015 79.2636 63.8348 79.7703 64.3815 80.1436C64.9415 80.5036 65.5681 80.6836 66.2615 80.6836ZM75.4904 81.0036C75.4904 81.1636 75.4304 81.3036 75.3104 81.4236C75.1904 81.5436 75.0504 81.6036 74.8904 81.6036C74.717 81.6036 74.5704 81.5436 74.4504 81.4236C74.3437 81.3036 74.2904 81.1636 74.2904 81.0036V67.4036C74.2904 67.2436 74.3504 67.1036 74.4704 66.9836C74.5904 66.8636 74.7304 66.8036 74.8904 66.8036C75.0637 66.8036 75.2037 66.8636 75.3104 66.9836C75.4304 67.1036 75.4904 67.2436 75.4904 67.4036V81.0036Z" fill="white"/>
<path fill-rule="evenodd" clip-rule="evenodd" d="M68.6929 37.1906C66.4079 37.0354 64.1151 37.3555 61.969 38.1288C61.449 38.3301 60.6195 38.3301 60.5471 38.9656C60.8259 39.2333 60.8586 39.6657 61.1033 40.0385C61.5777 40.8145 62.1875 41.5057 62.9054 42.0812C63.63 42.6167 64.3545 43.1505 65.1246 43.6196C66.474 44.4267 68.0011 44.8938 69.316 45.6973C70.0806 46.1664 70.8414 46.7685 71.6057 47.2726C71.9862 47.5403 72.227 47.9727 72.7125 48.1478V48.0464C72.5699 47.6742 72.3934 47.3152 72.1853 46.9732C71.8393 46.6408 71.4915 46.3381 71.1437 46.0037C70.1278 44.7053 68.912 43.5649 67.5391 42.622C66.4288 41.8832 64.0015 40.8716 63.554 39.6464L63.4833 39.5781C64.296 39.4669 65.0965 39.2865 65.8761 39.039C67.0537 38.7379 68.1278 38.8062 69.3395 38.5139C69.8957 38.3791 70.9011 38.0448 70.9011 38.0448V37.5197C70.2814 36.9245 69.8377 36.1281 69.1856 35.5663C67.4116 34.0699 65.5208 32.7075 63.5306 31.4915C62.4672 30.828 61.096 30.4009 59.9637 29.8358C59.5544 29.6361 58.8768 29.5381 58.6287 29.2056C58.0656 28.4072 57.5943 27.5522 57.2231 26.6552C56.2304 24.8348 55.2685 22.8167 54.4135 20.8913C53.9075 19.6011 53.3238 18.3404 52.6656 17.1159C49.4891 11.8971 44.9038 7.61114 39.4007 4.7164C38.0121 4.06695 36.5358 3.6097 35.0153 3.35813C34.1567 3.32312 33.3017 3.25837 32.4449 3.22687C31.8918 2.87671 31.3657 2.4883 30.8708 2.06463C28.9108 0.865631 23.8751 -1.71088 22.4332 1.70056C21.5094 3.85523 23.8063 5.97315 24.5942 7.06713C25.2587 7.83846 25.844 8.67028 26.3423 9.55086C26.5832 10.1145 26.652 10.7114 26.8857 11.3012C27.3885 12.8154 27.9855 14.299 28.6735 15.7436C29.0415 16.4576 29.4654 17.1434 29.9415 17.795C30.2187 18.1608 30.6969 18.3201 30.8001 18.9239C30.4202 19.7129 30.1545 20.5488 30.0103 21.4078C29.4116 23.2348 29.1912 25.1583 29.3618 27.0677C29.5325 28.9771 30.0908 30.8356 31.0048 32.5363C31.5482 33.3645 32.8561 35.1865 34.6041 34.4897C36.1456 33.8946 35.8032 32.0062 36.2488 30.3519C36.3503 29.9511 36.2833 29.6887 36.4879 29.4244V29.7464C36.4879 29.7464 37.3629 31.6035 37.7976 32.547C38.9799 34.278 40.4486 35.8096 42.1449 37.0803C42.8159 37.6465 43.3567 38.3425 43.7317 39.123V39.7234H44.5053C44.489 39.4526 44.4114 39.1888 44.2777 38.9505C44.1441 38.7119 43.9578 38.5049 43.7317 38.3441C43.0976 37.7132 42.5165 37.0343 41.9945 36.3137C40.5767 34.3623 39.3263 32.3025 38.2559 30.1542C37.7124 29.104 37.2542 27.9524 36.8194 26.9039C36.6202 26.4995 36.6202 25.8887 36.2851 25.6786C35.6663 26.386 35.1293 27.1567 34.6838 27.9768C34.1429 29.6344 33.8281 31.3531 33.7473 33.0895C33.615 33.1245 33.6803 33.0895 33.615 33.1561C32.5481 32.8847 32.1804 31.7698 31.7783 30.8246C30.7395 27.9095 30.6347 24.7595 31.4776 21.7858C31.7094 21.077 32.7148 18.8436 32.3127 18.1661C32.1116 17.5202 31.4432 17.1509 31.0773 16.6415C30.6101 15.9563 30.2082 15.2316 29.8763 14.4763C29.0811 12.593 28.679 10.4926 27.8131 8.59517C27.3338 7.68264 26.7757 6.8108 26.1448 5.98892C25.4469 5.16788 24.8313 4.28467 24.3062 3.35113C24.1396 2.97832 23.9059 2.36919 24.1722 1.96311C24.1902 1.85031 24.2457 1.74624 24.3303 1.66665C24.415 1.58706 24.5241 1.53628 24.6413 1.52203C25.0724 1.15095 26.3096 1.62355 26.7426 1.82659C27.9061 2.26922 29.0144 2.83697 30.0466 3.51916C30.5139 3.85873 31.6152 4.71816 31.6152 4.71816H31.9413C33.0499 4.95095 34.2961 4.78291 35.3395 5.08574C37.0962 5.65159 38.7728 6.42779 40.3299 7.3962C44.9194 10.2233 48.6506 14.1765 51.1423 18.8522C51.5587 19.6207 51.7347 20.3259 52.1149 21.1277C52.8395 22.773 53.7452 24.4534 54.4697 26.053C55.1091 27.6359 55.9357 29.1421 56.9333 30.5409C57.4515 31.2411 59.5327 31.6122 60.4691 31.9799C61.2824 32.2518 62.0806 32.5643 62.8602 32.9164C64.0395 33.6165 65.215 34.4234 66.3253 35.1918C66.878 35.5943 68.6115 36.4311 68.7164 37.1013" fill="#E7E7E7"/>
</svg>
