<svg width="45" height="50" viewBox="0 0 45 50" fill="none" xmlns="http://www.w3.org/2000/svg">
<path d="M22.155 50C21.4902 50 20.8156 49.8214 20.2302 49.4841L14.1085 45.8627C13.1958 45.3468 13.6422 45.1682 13.9399 45.069C15.1602 44.6423 15.4083 44.553 16.708 43.8089C16.8469 43.7295 17.0255 43.7593 17.1644 43.8486L21.8673 46.6366C22.0359 46.7358 22.274 46.7358 22.4328 46.6366L40.758 36.0601C40.9267 35.9609 41.0358 35.7625 41.0358 35.564V14.4112C41.0358 14.2028 40.9267 14.0143 40.7481 13.9051L22.4328 3.33862C22.2641 3.23941 22.0359 3.23941 21.8673 3.33862L3.56186 13.9151C3.38327 14.0143 3.27413 14.2127 3.27413 14.4211V35.564C3.27413 35.7625 3.38327 35.9609 3.56186 36.0502L8.5822 38.9473C11.3106 40.3066 12.9775 38.7092 12.9775 37.092V16.2169C12.9775 15.9192 13.2156 15.691 13.5132 15.691H15.8349C16.1226 15.691 16.3707 15.9192 16.3707 16.2169V37.1019C16.3707 40.7332 14.3863 42.8167 10.9435 42.8167C9.88193 42.8167 9.04852 42.8167 6.72686 41.6658L1.92479 38.8977C0.7342 38.2131 0 36.9332 0 35.5541V14.4112C0 13.042 0.7342 11.7522 1.92479 11.0676L20.2302 0.49112C21.391 -0.163707 22.9289 -0.163707 24.0798 0.49112L42.405 11.0775C43.5956 11.7621 44.3298 13.042 44.3298 14.4211V35.564C44.3298 36.9332 43.5956 38.2131 42.405 38.9076L24.0798 49.4841C23.4944 49.8214 22.8296 50 22.155 50ZM36.9481 29.1547C36.9481 25.196 34.2693 24.1443 28.6437 23.4001C22.9487 22.6461 22.3733 22.2592 22.3733 20.9297C22.3733 19.8284 22.8594 18.36 27.0761 18.36C30.8364 18.36 32.2254 19.1735 32.8009 21.7135C32.8505 21.9516 33.0688 22.1302 33.3168 22.1302H35.698C35.8468 22.1302 35.9857 22.0706 36.0849 21.9615C36.1841 21.8524 36.2338 21.7035 36.2238 21.5547C35.8567 17.1793 32.9497 15.1454 27.0761 15.1454C21.8474 15.1454 18.732 17.3479 18.732 21.0487C18.732 25.057 21.8375 26.1683 26.8479 26.6644C32.8505 27.2497 33.3168 28.1328 33.3168 29.3134C33.3168 31.3573 31.6698 32.2304 27.8103 32.2304C22.9586 32.2304 21.897 31.01 21.5398 28.5991C21.5002 28.3411 21.2819 28.1526 21.014 28.1526H18.6427C18.3451 28.1526 18.1169 28.3907 18.1169 28.6784C18.1169 31.7641 19.7936 35.445 27.8202 35.445C33.6144 35.4351 36.9481 33.1432 36.9481 29.1547Z" fill="#E7E7E7"/>
</svg>
