<svg width="48" height="86" viewBox="0 0 48 86" fill="none" xmlns="http://www.w3.org/2000/svg">
<path d="M6.4 70.54C7.28 70.54 7.98 70.72 8.5 71.08C9.03333 71.4267 9.41333 71.9067 9.64 72.52C9.88 73.12 10 73.7867 10 74.52V80.4C10 80.56 9.94 80.7 9.82 80.82C9.7 80.94 9.56 81 9.4 81C9.21333 81 9.06667 80.94 8.96 80.82C8.85333 80.7 8.8 80.56 8.8 80.4V74.58C8.8 74.0467 8.71333 73.56 8.54 73.12C8.36667 72.68 8.08 72.3267 7.68 72.06C7.29333 71.7933 6.78 71.66 6.14 71.66C5.56667 71.66 5.02 71.7933 4.5 72.06C3.99333 72.3267 3.58 72.68 3.26 73.12C2.94 73.56 2.78 74.0467 2.78 74.58V80.4C2.78 80.56 2.72 80.7 2.6 80.82C2.48 80.94 2.34 81 2.18 81C1.99333 81 1.84667 80.94 1.74 80.82C1.63333 80.7 1.58 80.56 1.58 80.4V71.44C1.58 71.28 1.63333 71.14 1.74 71.02C1.86 70.9 2.00667 70.84 2.18 70.84C2.35333 70.84 2.49333 70.9 2.6 71.02C2.72 71.14 2.78 71.28 2.78 71.44V73.12L2.32 73.84C2.34667 73.4133 2.48 73.0067 2.72 72.62C2.97333 72.22 3.29333 71.8667 3.68 71.56C4.06667 71.24 4.49333 70.9933 4.96 70.82C5.44 70.6333 5.92 70.54 6.4 70.54ZM22.6625 75.88C22.6625 76.8933 22.4425 77.8067 22.0025 78.62C21.5625 79.42 20.9625 80.0533 20.2025 80.52C19.4425 80.9733 18.5758 81.2 17.6025 81.2C16.6558 81.2 15.7958 80.9733 15.0225 80.52C14.2625 80.0533 13.6558 79.42 13.2025 78.62C12.7625 77.8067 12.5425 76.8933 12.5425 75.88C12.5425 74.8533 12.7625 73.94 13.2025 73.14C13.6558 72.34 14.2625 71.7067 15.0225 71.24C15.7958 70.7733 16.6558 70.54 17.6025 70.54C18.5758 70.54 19.4425 70.7733 20.2025 71.24C20.9625 71.7067 21.5625 72.34 22.0025 73.14C22.4425 73.94 22.6625 74.8533 22.6625 75.88ZM21.4625 75.88C21.4625 75.0667 21.2958 74.3467 20.9625 73.72C20.6292 73.08 20.1692 72.58 19.5825 72.22C19.0092 71.8467 18.3492 71.66 17.6025 71.66C16.8825 71.66 16.2292 71.8467 15.6425 72.22C15.0558 72.58 14.5892 73.08 14.2425 73.72C13.9092 74.3467 13.7425 75.0667 13.7425 75.88C13.7425 76.6933 13.9092 77.4133 14.2425 78.04C14.5892 78.6667 15.0558 79.1667 15.6425 79.54C16.2292 79.9 16.8825 80.08 17.6025 80.08C18.3492 80.08 19.0092 79.9 19.5825 79.54C20.1692 79.1667 20.6292 78.6667 20.9625 78.04C21.2958 77.4133 21.4625 76.6933 21.4625 75.88ZM33.5928 66.2C33.7661 66.2 33.9061 66.26 34.0128 66.38C34.1328 66.4867 34.1928 66.6267 34.1928 66.8V80.4C34.1928 80.56 34.1328 80.7 34.0128 80.82C33.8928 80.94 33.7528 81 33.5928 81C33.4195 81 33.2728 80.94 33.1528 80.82C33.0461 80.7 32.9928 80.56 32.9928 80.4V78.02L33.3328 77.74C33.3328 78.1133 33.2328 78.5067 33.0328 78.92C32.8328 79.32 32.5461 79.6933 32.1728 80.04C31.8128 80.3867 31.3861 80.6667 30.8928 80.88C30.4128 81.0933 29.8928 81.2 29.3328 81.2C28.4395 81.2 27.6328 80.9667 26.9128 80.5C26.2061 80.0333 25.6461 79.4 25.2328 78.6C24.8195 77.8 24.6128 76.8867 24.6128 75.86C24.6128 74.8467 24.8195 73.94 25.2328 73.14C25.6461 72.3267 26.2061 71.6933 26.9128 71.24C27.6195 70.7733 28.4195 70.54 29.3128 70.54C29.8595 70.54 30.3795 70.64 30.8728 70.84C31.3661 71.04 31.7995 71.3133 32.1728 71.66C32.5595 72.0067 32.8595 72.4067 33.0728 72.86C33.2995 73.3 33.4128 73.76 33.4128 74.24L32.9928 73.94V66.8C32.9928 66.64 33.0461 66.5 33.1528 66.38C33.2728 66.26 33.4195 66.2 33.5928 66.2ZM29.4328 80.08C30.1528 80.08 30.7795 79.9 31.3128 79.54C31.8595 79.1667 32.2861 78.6667 32.5928 78.04C32.9128 77.4 33.0728 76.6733 33.0728 75.86C33.0728 75.06 32.9128 74.3467 32.5928 73.72C32.2861 73.08 31.8595 72.58 31.3128 72.22C30.7661 71.8467 30.1395 71.66 29.4328 71.66C28.7395 71.66 28.1128 71.8467 27.5528 72.22C27.0061 72.58 26.5728 73.08 26.2528 73.72C25.9461 74.3467 25.7928 75.06 25.7928 75.86C25.7928 76.66 25.9461 77.38 26.2528 78.02C26.5728 78.66 27.0061 79.1667 27.5528 79.54C28.1128 79.9 28.7395 80.08 29.4328 80.08ZM41.9617 81.2C40.9351 81.2 40.0284 80.98 39.2417 80.54C38.4551 80.1 37.8417 79.4867 37.4017 78.7C36.9617 77.9133 36.7417 76.9933 36.7417 75.94C36.7417 74.8067 36.9617 73.84 37.4017 73.04C37.8551 72.24 38.4351 71.6267 39.1417 71.2C39.8617 70.76 40.6217 70.54 41.4217 70.54C42.0084 70.54 42.5751 70.6467 43.1217 70.86C43.6817 71.06 44.1751 71.3667 44.6017 71.78C45.0417 72.18 45.3884 72.6733 45.6417 73.26C45.9084 73.8467 46.0551 74.5267 46.0817 75.3C46.0684 75.46 46.0017 75.6 45.8817 75.72C45.7617 75.8267 45.6217 75.88 45.4617 75.88H37.4417L37.2017 74.8H45.0817L44.8217 75.04V74.64C44.7684 74.0133 44.5684 73.48 44.2217 73.04C43.8751 72.6 43.4551 72.2667 42.9617 72.04C42.4684 71.8133 41.9551 71.7 41.4217 71.7C41.0217 71.7 40.6084 71.78 40.1817 71.94C39.7684 72.1 39.3884 72.3533 39.0417 72.7C38.7084 73.0333 38.4351 73.4667 38.2217 74C38.0084 74.52 37.9017 75.14 37.9017 75.86C37.9017 76.6467 38.0617 77.36 38.3817 78C38.7017 78.64 39.1617 79.1467 39.7617 79.52C40.3751 79.8933 41.1017 80.08 41.9417 80.08C42.4084 80.08 42.8284 80.0133 43.2017 79.88C43.5751 79.7467 43.9017 79.5733 44.1817 79.36C44.4617 79.1333 44.6951 78.9 44.8817 78.66C45.0284 78.54 45.1751 78.48 45.3217 78.48C45.4551 78.48 45.5684 78.5333 45.6617 78.64C45.7684 78.7467 45.8217 78.8667 45.8217 79C45.8217 79.16 45.7551 79.3 45.6217 79.42C45.2217 79.9 44.7017 80.32 44.0617 80.68C43.4217 81.0267 42.7217 81.2 41.9617 81.2Z" fill="white"/>
<path d="M24.155 50C23.4902 50 22.8156 49.8214 22.2302 49.4841L16.1085 45.8627C15.1958 45.3468 15.6422 45.1682 15.9399 45.069C17.1602 44.6423 17.4083 44.553 18.708 43.8089C18.8469 43.7295 19.0255 43.7593 19.1644 43.8486L23.8673 46.6366C24.0359 46.7358 24.274 46.7358 24.4328 46.6366L42.758 36.0601C42.9267 35.9609 43.0358 35.7625 43.0358 35.564V14.4112C43.0358 14.2028 42.9267 14.0143 42.7481 13.9051L24.4328 3.33863C24.2641 3.23941 24.0359 3.23941 23.8673 3.33863L5.56186 13.9151C5.38327 14.0143 5.27413 14.2127 5.27413 14.4211V35.564C5.27413 35.7625 5.38327 35.9609 5.56186 36.0502L10.5822 38.9473C13.3106 40.3066 14.9775 38.7092 14.9775 37.092V16.2169C14.9775 15.9192 15.2156 15.691 15.5132 15.691H17.8349C18.1226 15.691 18.3707 15.9192 18.3707 16.2169V37.1019C18.3707 40.7332 16.3863 42.8167 12.9435 42.8167C11.8819 42.8167 11.0485 42.8167 8.72686 41.6658L3.92479 38.8977C2.7342 38.2131 2 36.9332 2 35.5541V14.4112C2 13.042 2.7342 11.7522 3.92479 11.0676L22.2302 0.49112C23.391 -0.163707 24.9289 -0.163707 26.0798 0.49112L44.405 11.0775C45.5956 11.7621 46.3298 13.042 46.3298 14.4211V35.564C46.3298 36.9332 45.5956 38.2131 44.405 38.9076L26.0798 49.4841C25.4944 49.8214 24.8296 50 24.155 50ZM38.9481 29.1547C38.9481 25.196 36.2693 24.1443 30.6437 23.4001C24.9487 22.6461 24.3733 22.2592 24.3733 20.9297C24.3733 19.8284 24.8594 18.36 29.0761 18.36C32.8364 18.36 34.2254 19.1735 34.8009 21.7135C34.8505 21.9516 35.0688 22.1302 35.3168 22.1302H37.698C37.8468 22.1302 37.9857 22.0706 38.0849 21.9615C38.1841 21.8524 38.2338 21.7035 38.2238 21.5547C37.8567 17.1793 34.9497 15.1454 29.0761 15.1454C23.8474 15.1454 20.732 17.348 20.732 21.0487C20.732 25.057 23.8375 26.1683 28.8479 26.6644C34.8505 27.2497 35.3168 28.1328 35.3168 29.3134C35.3168 31.3573 33.6698 32.2304 29.8103 32.2304C24.9586 32.2304 23.897 31.01 23.5398 28.5991C23.5002 28.3411 23.2819 28.1526 23.014 28.1526H20.6427C20.3451 28.1526 20.1169 28.3907 20.1169 28.6784C20.1169 31.7641 21.7936 35.445 29.8202 35.445C35.6144 35.4351 38.9481 33.1432 38.9481 29.1547Z" fill="#E7E7E7"/>
</svg>
