<svg width="53" height="86" viewBox="0 0 53 86" fill="none" xmlns="http://www.w3.org/2000/svg">
<path d="M11.1 75.88C11.1 76.8933 10.88 77.8067 10.44 78.62C10 79.42 9.4 80.0533 8.64 80.52C7.88 80.9733 7.01333 81.2 6.04 81.2C5.09333 81.2 4.23333 80.9733 3.46 80.52C2.7 80.0533 2.09333 79.42 1.64 78.62C1.2 77.8067 0.98 76.8933 0.98 75.88C0.98 74.8533 1.2 73.94 1.64 73.14C2.09333 72.34 2.7 71.7067 3.46 71.24C4.23333 70.7733 5.09333 70.54 6.04 70.54C7.01333 70.54 7.88 70.7733 8.64 71.24C9.4 71.7067 10 72.34 10.44 73.14C10.88 73.94 11.1 74.8533 11.1 75.88ZM9.9 75.88C9.9 75.0667 9.73333 74.3467 9.4 73.72C9.06667 73.08 8.60667 72.58 8.02 72.22C7.44667 71.8467 6.78667 71.66 6.04 71.66C5.32 71.66 4.66667 71.8467 4.08 72.22C3.49333 72.58 3.02667 73.08 2.68 73.72C2.34667 74.3467 2.18 75.0667 2.18 75.88C2.18 76.6933 2.34667 77.4133 2.68 78.04C3.02667 78.6667 3.49333 79.1667 4.08 79.54C4.66667 79.9 5.32 80.08 6.04 80.08C6.78667 80.08 7.44667 79.9 8.02 79.54C8.60667 79.1667 9.06667 78.6667 9.4 78.04C9.73333 77.4133 9.9 76.6933 9.9 75.88ZM17.3503 66.28C17.5503 66.28 17.7636 66.3 17.9903 66.34C18.2303 66.38 18.437 66.4533 18.6103 66.56C18.7836 66.6533 18.8703 66.8 18.8703 67C18.8703 67.1467 18.817 67.28 18.7103 67.4C18.6036 67.5067 18.4836 67.56 18.3503 67.56C18.217 67.56 18.0503 67.5267 17.8503 67.46C17.6503 67.38 17.437 67.34 17.2103 67.34C16.9303 67.34 16.6903 67.4067 16.4903 67.54C16.2903 67.66 16.137 67.84 16.0303 68.08C15.9236 68.3067 15.8703 68.5867 15.8703 68.92V80.4C15.8703 80.56 15.8103 80.7 15.6903 80.82C15.5836 80.94 15.4436 81 15.2703 81C15.097 81 14.9503 80.94 14.8303 80.82C14.7236 80.7 14.6703 80.56 14.6703 80.4V68.92C14.6703 68.0667 14.917 67.4133 15.4103 66.96C15.917 66.5067 16.5636 66.28 17.3503 66.28ZM18.1103 70.98C18.2703 70.98 18.4036 71.0333 18.5103 71.14C18.617 71.2467 18.6703 71.38 18.6703 71.54C18.6703 71.7 18.617 71.8333 18.5103 71.94C18.4036 72.0467 18.2703 72.1 18.1103 72.1H13.2103C13.0636 72.1 12.9303 72.0467 12.8103 71.94C12.7036 71.82 12.6503 71.6867 12.6503 71.54C12.6503 71.3667 12.7036 71.2333 12.8103 71.14C12.9303 71.0333 13.0636 70.98 13.2103 70.98H18.1103ZM24.5503 66.28C24.7503 66.28 24.9636 66.3 25.1903 66.34C25.4303 66.38 25.637 66.4533 25.8103 66.56C25.9836 66.6533 26.0703 66.8 26.0703 67C26.0703 67.1467 26.017 67.28 25.9103 67.4C25.8036 67.5067 25.6836 67.56 25.5503 67.56C25.417 67.56 25.2503 67.5267 25.0503 67.46C24.8503 67.38 24.637 67.34 24.4103 67.34C24.1303 67.34 23.8903 67.4067 23.6903 67.54C23.4903 67.66 23.337 67.84 23.2303 68.08C23.1236 68.3067 23.0703 68.5867 23.0703 68.92V80.4C23.0703 80.56 23.0103 80.7 22.8903 80.82C22.7836 80.94 22.6436 81 22.4703 81C22.297 81 22.1503 80.94 22.0303 80.82C21.9236 80.7 21.8703 80.56 21.8703 80.4V68.92C21.8703 68.0667 22.117 67.4133 22.6103 66.96C23.117 66.5067 23.7636 66.28 24.5503 66.28ZM25.3103 70.98C25.4703 70.98 25.6036 71.0333 25.7103 71.14C25.817 71.2467 25.8703 71.38 25.8703 71.54C25.8703 71.7 25.817 71.8333 25.7103 71.94C25.6036 72.0467 25.4703 72.1 25.3103 72.1H20.4103C20.2636 72.1 20.1303 72.0467 20.0103 71.94C19.9036 71.82 19.8503 71.6867 19.8503 71.54C19.8503 71.3667 19.9036 71.2333 20.0103 71.14C20.1303 71.0333 20.2636 70.98 20.4103 70.98H25.3103ZM29.2103 80.4C29.2103 80.56 29.1503 80.7 29.0303 80.82C28.9103 80.94 28.7703 81 28.6103 81C28.437 81 28.2903 80.94 28.1703 80.82C28.0636 80.7 28.0103 80.56 28.0103 80.4V71.2C28.0103 71.04 28.0636 70.9 28.1703 70.78C28.2903 70.66 28.437 70.6 28.6103 70.6C28.7836 70.6 28.9236 70.66 29.0303 70.78C29.1503 70.9 29.2103 71.04 29.2103 71.2V80.4ZM28.5903 69.26C28.3103 69.26 28.097 69.2 27.9503 69.08C27.817 68.9467 27.7503 68.76 27.7503 68.52V68.32C27.7503 68.08 27.8236 67.9 27.9703 67.78C28.1303 67.6467 28.3436 67.58 28.6103 67.58C28.8636 67.58 29.057 67.6467 29.1903 67.78C29.337 67.9 29.4103 68.08 29.4103 68.32V68.52C29.4103 68.76 29.337 68.9467 29.1903 69.08C29.057 69.2 28.857 69.26 28.5903 69.26ZM36.8027 70.54C37.4427 70.54 38.0293 70.6133 38.5627 70.76C39.096 70.8933 39.5227 71.08 39.8427 71.32C40.176 71.56 40.3427 71.82 40.3427 72.1C40.3427 72.2333 40.296 72.3667 40.2027 72.5C40.1093 72.62 39.9827 72.68 39.8227 72.68C39.6627 72.68 39.5293 72.64 39.4227 72.56C39.3293 72.48 39.2293 72.3867 39.1227 72.28C39.0293 72.1733 38.8893 72.0733 38.7027 71.98C38.5293 71.9 38.2827 71.8267 37.9627 71.76C37.6427 71.6933 37.276 71.66 36.8627 71.66C36.116 71.66 35.4427 71.8467 34.8427 72.22C34.2427 72.5933 33.7693 73.1 33.4227 73.74C33.076 74.3667 32.9027 75.0733 32.9027 75.86C32.9027 76.66 33.0693 77.38 33.4027 78.02C33.736 78.66 34.196 79.1667 34.7827 79.54C35.3693 79.9 36.056 80.08 36.8427 80.08C37.376 80.08 37.7893 80.0333 38.0827 79.94C38.376 79.8467 38.6293 79.74 38.8427 79.62C39.096 79.4733 39.276 79.3333 39.3827 79.2C39.5027 79.0533 39.656 78.98 39.8427 78.98C40.016 78.98 40.1427 79.0333 40.2227 79.14C40.316 79.2333 40.3627 79.36 40.3627 79.52C40.3627 79.7333 40.2027 79.9733 39.8827 80.24C39.576 80.4933 39.1493 80.72 38.6027 80.92C38.056 81.1067 37.4293 81.2 36.7227 81.2C35.7227 81.2 34.8427 80.9667 34.0827 80.5C33.336 80.0333 32.7493 79.4 32.3227 78.6C31.9093 77.7867 31.7027 76.8733 31.7027 75.86C31.7027 74.8867 31.916 74 32.3427 73.2C32.7693 72.4 33.3627 71.76 34.1227 71.28C34.896 70.7867 35.7893 70.54 36.8027 70.54ZM47.2742 81.2C46.2476 81.2 45.3409 80.98 44.5542 80.54C43.7676 80.1 43.1542 79.4867 42.7142 78.7C42.2742 77.9133 42.0542 76.9933 42.0542 75.94C42.0542 74.8067 42.2742 73.84 42.7142 73.04C43.1676 72.24 43.7476 71.6267 44.4542 71.2C45.1742 70.76 45.9342 70.54 46.7342 70.54C47.3209 70.54 47.8876 70.6467 48.4342 70.86C48.9942 71.06 49.4876 71.3667 49.9142 71.78C50.3542 72.18 50.7009 72.6733 50.9542 73.26C51.2209 73.8467 51.3676 74.5267 51.3942 75.3C51.3809 75.46 51.3142 75.6 51.1942 75.72C51.0742 75.8267 50.9342 75.88 50.7742 75.88H42.7542L42.5142 74.8H50.3942L50.1342 75.04V74.64C50.0809 74.0133 49.8809 73.48 49.5342 73.04C49.1876 72.6 48.7676 72.2667 48.2742 72.04C47.7809 71.8133 47.2676 71.7 46.7342 71.7C46.3342 71.7 45.9209 71.78 45.4942 71.94C45.0809 72.1 44.7009 72.3533 44.3542 72.7C44.0209 73.0333 43.7476 73.4667 43.5342 74C43.3209 74.52 43.2142 75.14 43.2142 75.86C43.2142 76.6467 43.3742 77.36 43.6942 78C44.0142 78.64 44.4742 79.1467 45.0742 79.52C45.6876 79.8933 46.4142 80.08 47.2542 80.08C47.7209 80.08 48.1409 80.0133 48.5142 79.88C48.8876 79.7467 49.2142 79.5733 49.4942 79.36C49.7742 79.1333 50.0076 78.9 50.1942 78.66C50.3409 78.54 50.4876 78.48 50.6342 78.48C50.7676 78.48 50.8809 78.5333 50.9742 78.64C51.0809 78.7467 51.1342 78.8667 51.1342 79C51.1342 79.16 51.0676 79.3 50.9342 79.42C50.5342 79.9 50.0142 80.32 49.3742 80.68C48.7342 81.0267 48.0342 81.2 47.2742 81.2Z" fill="white"/>
<g style="mix-blend-mode:multiply" opacity="0.2">
<path d="M17.4047 38.8055C16.8327 38.8117 16.2784 39.0052 15.8269 39.3565C15.3754 39.7078 15.0516 40.1975 14.9051 40.7505C14.7585 41.3035 14.7974 41.8893 15.0156 42.418C15.2339 42.9468 15.6196 43.3895 16.1135 43.6781L25.3388 48.9079C26.0987 49.3399 26.9579 49.5666 27.8319 49.5657C28.3022 49.5654 28.7699 49.497 29.2206 49.3627L43.0992 45.4078C44.1344 45.1104 45.045 44.4847 45.6938 43.625C46.3427 42.7652 46.6946 41.718 46.6968 40.6409V38.8055H17.4047Z" fill="white"/>
</g>
<g style="mix-blend-mode:multiply" opacity="0.12">
<path d="M17.4047 38.8055C16.8327 38.8117 16.2784 39.0052 15.8269 39.3565C15.3754 39.7078 15.0516 40.1975 14.9051 40.7505C14.7585 41.3035 14.7974 41.8893 15.0156 42.418C15.2339 42.9468 15.6196 43.3895 16.1135 43.6781L25.3388 48.9079C26.0987 49.3399 26.9579 49.5666 27.8319 49.5657C28.3022 49.5654 28.7699 49.497 29.2206 49.3627L43.0992 45.4078C44.1344 45.1104 45.045 44.4847 45.6938 43.625C46.3427 42.7652 46.6946 41.718 46.6968 40.6409V38.8055H17.4047Z" fill="white"/>
</g>
<path d="M29.1638 0.63739L32.8913 9.16432V38.8056L29.2207 49.3627L43.0993 45.4078C44.1345 45.1104 45.0451 44.4847 45.6939 43.625C46.3427 42.7652 46.6947 41.718 46.6968 40.6409V9.35922C46.6973 8.27936 46.3455 7.22882 45.6947 6.36704C45.044 5.50526 44.1299 4.87929 43.0911 4.58414L29.1638 0.63739Z" fill="#E7E7E7"/>
<path d="M11.5657 38.4888L15.6262 36.2962C16.183 35.9902 16.6473 35.5399 16.9702 34.9926C17.2931 34.4454 17.4628 33.8213 17.4615 33.1859V17.2284C17.4623 16.5015 17.6862 15.7924 18.103 15.1969C18.5199 14.6014 19.1095 14.1483 19.7922 13.8988L32.8912 9.16432V5.56676C32.8897 4.45174 32.5251 3.36753 31.8525 2.47815C31.18 1.58878 30.2361 0.942604 29.1637 0.637384C28.707 0.506236 28.234 0.440613 27.7588 0.442483V0.442483C26.865 0.444527 25.9869 0.676656 25.2088 1.11652L10.2177 9.66781C9.45801 10.1007 8.82645 10.7269 8.38715 11.4828C7.94784 12.2388 7.71643 13.0976 7.71644 13.9719V36.1906C7.7153 36.6429 7.83183 37.0876 8.05457 37.4812C8.27732 37.8747 8.59862 38.2036 8.98691 38.4354C9.3752 38.6673 9.81712 38.7941 10.2693 38.8034C10.7214 38.8128 11.1682 38.7044 11.5657 38.4888V38.4888Z" fill="url(#paint0_linear_2_616)"/>
<path d="M32.8913 38.8055H17.4047C16.8327 38.8117 16.2784 39.0052 15.8269 39.3565C15.3754 39.7078 15.0516 40.1975 14.9051 40.7505C14.7585 41.3035 14.7974 41.8893 15.0156 42.418C15.2339 42.9468 15.6196 43.3895 16.1135 43.6781L25.3388 48.9079C26.0987 49.3399 26.9579 49.5666 27.8319 49.5657V49.5657C28.3022 49.5654 28.77 49.497 29.2206 49.3627C30.28 49.0617 31.2119 48.4228 31.8746 47.5431C32.5372 46.6635 32.8942 45.5914 32.8913 44.4902V38.8055Z" fill="#E7E7E7"/>
<path d="M11.5657 38.4888L15.6262 36.2962C16.183 35.9902 16.6473 35.5399 16.9702 34.9926C17.2931 34.4454 17.4628 33.8213 17.4615 33.1859V17.2284C17.4623 16.5015 17.6862 15.7924 18.103 15.1969C18.5199 14.6014 19.1095 14.1483 19.7922 13.8988L32.8912 9.16432V5.56676C32.8897 4.45174 32.5251 3.36753 31.8525 2.47815C31.18 1.58878 30.2361 0.942604 29.1637 0.637384C28.707 0.506236 28.234 0.440613 27.7588 0.442483V0.442483C26.865 0.444527 25.9869 0.676656 25.2088 1.11652L10.2177 9.66781C9.45801 10.1007 8.82645 10.7269 8.38715 11.4828C7.94784 12.2388 7.71643 13.0976 7.71644 13.9719V36.1906C7.7153 36.6429 7.83183 37.0876 8.05457 37.4812C8.27732 37.8747 8.59862 38.2036 8.98691 38.4354C9.3752 38.6673 9.81712 38.7941 10.2693 38.8034C10.7214 38.8128 11.1682 38.7044 11.5657 38.4888V38.4888Z" fill="url(#paint1_linear_2_616)"/>
<path d="M32.8913 38.8055H17.4047C16.8327 38.8117 16.2784 39.0052 15.8269 39.3565C15.3754 39.7078 15.0516 40.1975 14.9051 40.7505C14.7585 41.3035 14.7974 41.8893 15.0156 42.418C15.2339 42.9468 15.6196 43.3895 16.1135 43.6781L25.3388 48.9079C26.0987 49.3399 26.9579 49.5666 27.8319 49.5657V49.5657C28.3022 49.5654 28.77 49.497 29.2206 49.3627C30.28 49.0617 31.2119 48.4228 31.8746 47.5431C32.5372 46.6635 32.8942 45.5914 32.8913 44.4902V38.8055Z" fill="url(#paint2_linear_2_616)"/>
<defs>
<linearGradient id="paint0_linear_2_616" x1="29.253" y1="-0.442694" x2="3.78593" y2="35.9226" gradientUnits="userSpaceOnUse">
<stop stop-color="#E7E7E7" stop-opacity="0.85"/>
<stop offset="0.6" stop-color="#E7E7E7"/>
<stop offset="0.73" stop-color="#E7E7E7"/>
<stop offset="0.85" stop-color="#E7E7E7"/>
<stop offset="0.94" stop-color="#E7E7E7"/>
<stop offset="1" stop-color="#E7E7E7"/>
</linearGradient>
<linearGradient id="paint1_linear_2_616" x1="29.7728" y1="-1.1817" x2="24.3805" y2="6.51691" gradientUnits="userSpaceOnUse">
<stop stop-opacity="0.72"/>
<stop offset="1" stop-opacity="0"/>
</linearGradient>
<linearGradient id="paint2_linear_2_616" x1="38.8358" y1="44.9368" x2="23.9502" y2="43.6375" gradientUnits="userSpaceOnUse">
<stop stop-opacity="0.9"/>
<stop offset="1" stop-opacity="0"/>
</linearGradient>
</defs>
</svg>
