<svg width="100" height="86" viewBox="0 0 100 86" fill="none" xmlns="http://www.w3.org/2000/svg">
<path d="M6.44 70.7C7.34667 70.7 8.14667 70.9267 8.84 71.38C9.54667 71.82 10.1067 72.4333 10.52 73.22C10.9333 73.9933 11.14 74.8867 11.14 75.9C11.14 76.9133 10.9333 77.8133 10.52 78.6C10.1067 79.3867 9.54667 80.0067 8.84 80.46C8.13333 80.9133 7.34 81.14 6.46 81.14C5.99333 81.14 5.54667 81.0733 5.12 80.94C4.70667 80.7933 4.32667 80.6 3.98 80.36C3.63333 80.12 3.32667 79.84 3.06 79.52C2.79333 79.1867 2.58 78.8267 2.42 78.44L2.78 78.18V84.4C2.78 84.56 2.72 84.7 2.6 84.82C2.49333 84.94 2.35333 85 2.18 85C2.00667 85 1.86 84.94 1.74 84.82C1.63333 84.7 1.58 84.56 1.58 84.4V71.36C1.58 71.1867 1.63333 71.04 1.74 70.92C1.84667 70.8 1.99333 70.74 2.18 70.74C2.35333 70.74 2.49333 70.8 2.6 70.92C2.72 71.04 2.78 71.1867 2.78 71.36V73.52L2.5 73.36C2.63333 72.9467 2.82667 72.58 3.08 72.26C3.34667 71.9267 3.65333 71.6467 4 71.42C4.34667 71.18 4.72667 71 5.14 70.88C5.55333 70.76 5.98667 70.7 6.44 70.7ZM6.34 71.82C5.62 71.82 4.98667 72 4.44 72.36C3.89333 72.7067 3.46 73.1867 3.14 73.8C2.83333 74.4 2.68 75.1 2.68 75.9C2.68 76.6867 2.83333 77.3933 3.14 78.02C3.46 78.6467 3.89333 79.14 4.44 79.5C4.98667 79.8467 5.62 80.02 6.34 80.02C7.04667 80.02 7.66667 79.8467 8.2 79.5C8.74667 79.14 9.18 78.6467 9.5 78.02C9.82 77.3933 9.98 76.6867 9.98 75.9C9.98 75.1133 9.82 74.4133 9.5 73.8C9.18 73.1867 8.74667 72.7067 8.2 72.36C7.66667 72 7.04667 71.82 6.34 71.82ZM18.3689 70.7C19.2089 70.7 19.8889 70.88 20.4089 71.24C20.9289 71.6 21.3089 72.0867 21.5489 72.7C21.8022 73.3133 21.9289 73.9933 21.9289 74.74V80.4C21.9289 80.56 21.8689 80.7 21.7489 80.82C21.6289 80.94 21.4889 81 21.3289 81C21.1422 81 20.9956 80.94 20.8889 80.82C20.7822 80.7 20.7289 80.56 20.7289 80.4V74.74C20.7289 74.1933 20.6422 73.7 20.4689 73.26C20.3089 72.82 20.0422 72.4733 19.6689 72.22C19.2956 71.9533 18.7956 71.82 18.1689 71.82C17.6089 71.82 17.0756 71.9533 16.5689 72.22C16.0756 72.4733 15.6756 72.82 15.3689 73.26C15.0622 73.7 14.9089 74.1933 14.9089 74.74V80.4C14.9089 80.56 14.8489 80.7 14.7289 80.82C14.6089 80.94 14.4689 81 14.3089 81C14.1222 81 13.9756 80.94 13.8689 80.82C13.7622 80.7 13.7089 80.56 13.7089 80.4V66.8C13.7089 66.64 13.7622 66.5 13.8689 66.38C13.9889 66.26 14.1356 66.2 14.3089 66.2C14.4822 66.2 14.6222 66.26 14.7289 66.38C14.8489 66.5 14.9089 66.64 14.9089 66.8V73.28L14.4489 73.98C14.4756 73.5667 14.6022 73.1667 14.8289 72.78C15.0689 72.38 15.3756 72.0267 15.7489 71.72C16.1222 71.4 16.5356 71.1533 16.9889 70.98C17.4422 70.7933 17.9022 70.7 18.3689 70.7ZM34.5961 75.88C34.5961 76.8933 34.3761 77.8067 33.9361 78.62C33.4961 79.42 32.8961 80.0533 32.1361 80.52C31.3761 80.9733 30.5094 81.2 29.5361 81.2C28.5894 81.2 27.7294 80.9733 26.9561 80.52C26.1961 80.0533 25.5894 79.42 25.1361 78.62C24.6961 77.8067 24.4761 76.8933 24.4761 75.88C24.4761 74.8533 24.6961 73.94 25.1361 73.14C25.5894 72.34 26.1961 71.7067 26.9561 71.24C27.7294 70.7733 28.5894 70.54 29.5361 70.54C30.5094 70.54 31.3761 70.7733 32.1361 71.24C32.8961 71.7067 33.4961 72.34 33.9361 73.14C34.3761 73.94 34.5961 74.8533 34.5961 75.88ZM33.3961 75.88C33.3961 75.0667 33.2294 74.3467 32.8961 73.72C32.5628 73.08 32.1028 72.58 31.5161 72.22C30.9428 71.8467 30.2828 71.66 29.5361 71.66C28.8161 71.66 28.1628 71.8467 27.5761 72.22C26.9894 72.58 26.5228 73.08 26.1761 73.72C25.8428 74.3467 25.6761 75.0667 25.6761 75.88C25.6761 76.6933 25.8428 77.4133 26.1761 78.04C26.5228 78.6667 26.9894 79.1667 27.5761 79.54C28.1628 79.9 28.8161 80.08 29.5361 80.08C30.2828 80.08 30.9428 79.9 31.5161 79.54C32.1028 79.1667 32.5628 78.6667 32.8961 78.04C33.2294 77.4133 33.3961 76.6933 33.3961 75.88ZM36.4864 70.82H41.1464C41.3064 70.82 41.4397 70.88 41.5464 71C41.6531 71.1067 41.7064 71.24 41.7064 71.4C41.7064 71.5467 41.6531 71.6733 41.5464 71.78C41.4397 71.8867 41.3064 71.94 41.1464 71.94H36.4864C36.3264 71.94 36.1864 71.8867 36.0664 71.78C35.9597 71.66 35.9064 71.5267 35.9064 71.38C35.9064 71.22 35.9597 71.0867 36.0664 70.98C36.1864 70.8733 36.3264 70.82 36.4864 70.82ZM38.5464 68C38.7197 68 38.8597 68.06 38.9664 68.18C39.0864 68.3 39.1464 68.44 39.1464 68.6V78.64C39.1464 79.0133 39.1931 79.2933 39.2864 79.48C39.3931 79.6667 39.5264 79.7933 39.6864 79.86C39.8464 79.9133 40.0064 79.94 40.1664 79.94C40.2731 79.94 40.3664 79.9267 40.4464 79.9C40.5397 79.86 40.6397 79.84 40.7464 79.84C40.8664 79.84 40.9664 79.8867 41.0464 79.98C41.1397 80.0733 41.1864 80.1933 41.1864 80.34C41.1864 80.5267 41.0797 80.6867 40.8664 80.82C40.6531 80.94 40.3997 81 40.1064 81C39.9864 81 39.8064 80.9933 39.5664 80.98C39.3264 80.9533 39.0797 80.88 38.8264 80.76C38.5731 80.6267 38.3597 80.4 38.1864 80.08C38.0264 79.76 37.9464 79.3 37.9464 78.7V68.6C37.9464 68.44 37.9997 68.3 38.1064 68.18C38.2264 68.06 38.3731 68 38.5464 68ZM53.3461 75.88C53.3461 76.8933 53.1261 77.8067 52.6861 78.62C52.2461 79.42 51.6461 80.0533 50.8861 80.52C50.1261 80.9733 49.2594 81.2 48.2861 81.2C47.3394 81.2 46.4794 80.9733 45.7061 80.52C44.9461 80.0533 44.3394 79.42 43.8861 78.62C43.4461 77.8067 43.2261 76.8933 43.2261 75.88C43.2261 74.8533 43.4461 73.94 43.8861 73.14C44.3394 72.34 44.9461 71.7067 45.7061 71.24C46.4794 70.7733 47.3394 70.54 48.2861 70.54C49.2594 70.54 50.1261 70.7733 50.8861 71.24C51.6461 71.7067 52.2461 72.34 52.6861 73.14C53.1261 73.94 53.3461 74.8533 53.3461 75.88ZM52.1461 75.88C52.1461 75.0667 51.9794 74.3467 51.6461 73.72C51.3128 73.08 50.8528 72.58 50.2661 72.22C49.6928 71.8467 49.0328 71.66 48.2861 71.66C47.5661 71.66 46.9128 71.8467 46.3261 72.22C45.7394 72.58 45.2728 73.08 44.9261 73.72C44.5928 74.3467 44.4261 75.0667 44.4261 75.88C44.4261 76.6933 44.5928 77.4133 44.9261 78.04C45.2728 78.6667 45.7394 79.1667 46.3261 79.54C46.9128 79.9 47.5661 80.08 48.2861 80.08C49.0328 80.08 49.6928 79.9 50.2661 79.54C50.8528 79.1667 51.3128 78.6667 51.6461 78.04C51.9794 77.4133 52.1461 76.6933 52.1461 75.88ZM55.3164 79.38C55.2097 79.22 55.1564 79.0667 55.1564 78.92C55.1697 78.76 55.2564 78.6333 55.4164 78.54C55.5231 78.4467 55.6431 78.4067 55.7764 78.42C55.9231 78.4333 56.0564 78.5 56.1764 78.62C56.5364 79.0867 56.9697 79.4667 57.4764 79.76C57.9964 80.04 58.6097 80.18 59.3164 80.18C59.6897 80.18 60.0564 80.12 60.4164 80C60.7897 79.8667 61.0964 79.6733 61.3364 79.42C61.5764 79.1533 61.6964 78.82 61.6964 78.42C61.6964 78.0067 61.5764 77.6733 61.3364 77.42C61.0964 77.1667 60.7831 76.9667 60.3964 76.82C60.0231 76.6733 59.6231 76.5467 59.1964 76.44C58.7431 76.32 58.3031 76.1867 57.8764 76.04C57.4497 75.88 57.0697 75.6867 56.7364 75.46C56.4164 75.22 56.1564 74.9333 55.9564 74.6C55.7564 74.2667 55.6564 73.86 55.6564 73.38C55.6564 72.82 55.8097 72.3267 56.1164 71.9C56.4231 71.4733 56.8364 71.14 57.3564 70.9C57.8897 70.66 58.4897 70.54 59.1564 70.54C59.4897 70.54 59.8497 70.5867 60.2364 70.68C60.6231 70.76 61.0031 70.9 61.3764 71.1C61.7497 71.3 62.0831 71.5733 62.3764 71.92C62.4964 72.04 62.5564 72.18 62.5564 72.34C62.5564 72.4867 62.4897 72.62 62.3564 72.74C62.2497 72.82 62.1231 72.86 61.9764 72.86C61.8431 72.86 61.7297 72.8067 61.6364 72.7C61.3164 72.34 60.9364 72.0667 60.4964 71.88C60.0564 71.6933 59.5831 71.6 59.0764 71.6C58.6897 71.6 58.3231 71.6667 57.9764 71.8C57.6431 71.92 57.3631 72.1067 57.1364 72.36C56.9097 72.6133 56.7964 72.9467 56.7964 73.36C56.8231 73.7467 56.9564 74.06 57.1964 74.3C57.4497 74.54 57.7764 74.74 58.1764 74.9C58.5897 75.06 59.0497 75.2067 59.5564 75.34C59.9831 75.4467 60.3897 75.5733 60.7764 75.72C61.1764 75.8667 61.5231 76.0533 61.8164 76.28C62.1231 76.4933 62.3631 76.7667 62.5364 77.1C62.7231 77.4333 62.8164 77.8533 62.8164 78.36C62.8164 78.9467 62.6497 79.4533 62.3164 79.88C61.9964 80.3067 61.5631 80.6333 61.0164 80.86C60.4697 81.0867 59.8631 81.2 59.1964 81.2C58.4764 81.2 57.7764 81.06 57.0964 80.78C56.4297 80.5 55.8364 80.0333 55.3164 79.38ZM69.9314 70.7C70.7714 70.7 71.4514 70.88 71.9714 71.24C72.4914 71.6 72.8714 72.0867 73.1114 72.7C73.3647 73.3133 73.4914 73.9933 73.4914 74.74V80.4C73.4914 80.56 73.4314 80.7 73.3114 80.82C73.1914 80.94 73.0514 81 72.8914 81C72.7047 81 72.5581 80.94 72.4514 80.82C72.3447 80.7 72.2914 80.56 72.2914 80.4V74.74C72.2914 74.1933 72.2047 73.7 72.0314 73.26C71.8714 72.82 71.6047 72.4733 71.2314 72.22C70.8581 71.9533 70.3581 71.82 69.7314 71.82C69.1714 71.82 68.6381 71.9533 68.1314 72.22C67.6381 72.4733 67.2381 72.82 66.9314 73.26C66.6247 73.7 66.4714 74.1933 66.4714 74.74V80.4C66.4714 80.56 66.4114 80.7 66.2914 80.82C66.1714 80.94 66.0314 81 65.8714 81C65.6847 81 65.5381 80.94 65.4314 80.82C65.3247 80.7 65.2714 80.56 65.2714 80.4V66.8C65.2714 66.64 65.3247 66.5 65.4314 66.38C65.5514 66.26 65.6981 66.2 65.8714 66.2C66.0447 66.2 66.1847 66.26 66.2914 66.38C66.4114 66.5 66.4714 66.64 66.4714 66.8V73.28L66.0114 73.98C66.0381 73.5667 66.1647 73.1667 66.3914 72.78C66.6314 72.38 66.9381 72.0267 67.3114 71.72C67.6847 71.4 68.0981 71.1533 68.5514 70.98C69.0047 70.7933 69.4647 70.7 69.9314 70.7ZM86.1586 75.88C86.1586 76.8933 85.9386 77.8067 85.4986 78.62C85.0586 79.42 84.4586 80.0533 83.6986 80.52C82.9386 80.9733 82.0719 81.2 81.0986 81.2C80.1519 81.2 79.2919 80.9733 78.5186 80.52C77.7586 80.0533 77.1519 79.42 76.6986 78.62C76.2586 77.8067 76.0386 76.8933 76.0386 75.88C76.0386 74.8533 76.2586 73.94 76.6986 73.14C77.1519 72.34 77.7586 71.7067 78.5186 71.24C79.2919 70.7733 80.1519 70.54 81.0986 70.54C82.0719 70.54 82.9386 70.7733 83.6986 71.24C84.4586 71.7067 85.0586 72.34 85.4986 73.14C85.9386 73.94 86.1586 74.8533 86.1586 75.88ZM84.9586 75.88C84.9586 75.0667 84.7919 74.3467 84.4586 73.72C84.1253 73.08 83.6653 72.58 83.0786 72.22C82.5053 71.8467 81.8453 71.66 81.0986 71.66C80.3786 71.66 79.7253 71.8467 79.1386 72.22C78.5519 72.58 78.0853 73.08 77.7386 73.72C77.4053 74.3467 77.2386 75.0667 77.2386 75.88C77.2386 76.6933 77.4053 77.4133 77.7386 78.04C78.0853 78.6667 78.5519 79.1667 79.1386 79.54C79.7253 79.9 80.3786 80.08 81.0986 80.08C81.8453 80.08 82.5053 79.9 83.0786 79.54C83.6653 79.1667 84.1253 78.6667 84.4586 78.04C84.7919 77.4133 84.9586 76.6933 84.9586 75.88ZM93.5689 70.7C94.4756 70.7 95.2756 70.9267 95.9689 71.38C96.6756 71.82 97.2356 72.4333 97.6489 73.22C98.0622 73.9933 98.2689 74.8867 98.2689 75.9C98.2689 76.9133 98.0622 77.8133 97.6489 78.6C97.2356 79.3867 96.6756 80.0067 95.9689 80.46C95.2622 80.9133 94.4689 81.14 93.5889 81.14C93.1222 81.14 92.6756 81.0733 92.2489 80.94C91.8356 80.7933 91.4556 80.6 91.1089 80.36C90.7622 80.12 90.4556 79.84 90.1889 79.52C89.9222 79.1867 89.7089 78.8267 89.5489 78.44L89.9089 78.18V84.4C89.9089 84.56 89.8489 84.7 89.7289 84.82C89.6222 84.94 89.4822 85 89.3089 85C89.1356 85 88.9889 84.94 88.8689 84.82C88.7622 84.7 88.7089 84.56 88.7089 84.4V71.36C88.7089 71.1867 88.7622 71.04 88.8689 70.92C88.9756 70.8 89.1222 70.74 89.3089 70.74C89.4822 70.74 89.6222 70.8 89.7289 70.92C89.8489 71.04 89.9089 71.1867 89.9089 71.36V73.52L89.6289 73.36C89.7622 72.9467 89.9556 72.58 90.2089 72.26C90.4756 71.9267 90.7822 71.6467 91.1289 71.42C91.4756 71.18 91.8556 71 92.2689 70.88C92.6822 70.76 93.1156 70.7 93.5689 70.7ZM93.4689 71.82C92.7489 71.82 92.1156 72 91.5689 72.36C91.0222 72.7067 90.5889 73.1867 90.2689 73.8C89.9622 74.4 89.8089 75.1 89.8089 75.9C89.8089 76.6867 89.9622 77.3933 90.2689 78.02C90.5889 78.6467 91.0222 79.14 91.5689 79.5C92.1156 79.8467 92.7489 80.02 93.4689 80.02C94.1756 80.02 94.7956 79.8467 95.3289 79.5C95.8756 79.14 96.3089 78.6467 96.6289 78.02C96.9489 77.3933 97.1089 76.6867 97.1089 75.9C97.1089 75.1133 96.9489 74.4133 96.6289 73.8C96.3089 73.1867 95.8756 72.7067 95.3289 72.36C94.7956 72 94.1756 71.82 93.4689 71.82Z" fill="white"/>
<path d="M66.25 0H33.75C28.9175 0 25 3.91751 25 8.75V41.25C25 46.0825 28.9175 50 33.75 50H66.25C71.0825 50 75 46.0825 75 41.25V8.75C75 3.91751 71.0825 0 66.25 0Z" fill="#E7E7E7"/>
<path d="M36.25 35.4484V14.292C36.25 14.1406 36.3258 14.0649 36.4775 14.0649C38.1241 14.0216 40.2148 14 42.7497 14C45.7395 14 47.9277 14.6706 49.3143 16.0118C50.7226 17.353 51.4267 19.0079 51.4267 20.9764C51.4267 23.4208 50.5601 25.238 48.8268 26.4277C47.0936 27.6175 44.9162 28.2124 42.2947 28.2124H40.3773V35.4159C40.3773 35.589 40.2906 35.6755 40.1173 35.6755H36.51C36.3367 35.6755 36.25 35.5998 36.25 35.4484ZM40.3773 17.115V25.0973C40.6806 25.1406 41.3847 25.1622 42.4897 25.1622C43.9413 25.1622 45.1112 24.8486 45.9995 24.2212C46.9094 23.5723 47.3644 22.5231 47.3644 21.0737C47.3644 19.7974 46.9636 18.8132 46.162 18.1209C45.382 17.4287 44.2446 17.0826 42.7497 17.0826C42.3813 17.0826 42.013 17.0934 41.6447 17.115C41.2981 17.115 41.0056 17.115 40.7673 17.115C40.5506 17.115 40.4206 17.115 40.3773 17.115Z" fill="#010000"/>
<path d="M62.7651 23.6047C61.5518 22.8476 60.2844 22.469 58.9628 22.469C58.2045 22.469 57.6412 22.6096 57.2729 22.8909C56.9262 23.1721 56.7529 23.5074 56.7529 23.8968C56.7529 24.2861 56.9045 24.6323 57.2079 24.9351C57.5112 25.2163 58.1503 25.5516 59.1253 25.941C60.9235 26.6332 62.1801 27.3687 62.8951 28.1475C63.6317 28.9046 64 29.8889 64 31.1003C64 32.5713 63.4367 33.7611 62.3101 34.6696C61.2051 35.5565 59.6994 36 57.7928 36C55.8863 36 54.3263 35.6539 53.1131 34.9617C52.9831 34.9184 52.9181 34.8102 52.9181 34.6372V31.6195C52.9181 31.5329 52.9397 31.4789 52.9831 31.4572C53.0481 31.414 53.1022 31.414 53.1456 31.4572C54.5538 32.4956 56.0596 33.0147 57.6628 33.0147C58.4211 33.0147 58.9953 32.885 59.3852 32.6254C59.7969 32.3441 60.0027 31.9872 60.0027 31.5546C60.0027 31.1003 59.8402 30.7217 59.5152 30.4189C59.1903 30.0944 58.5511 29.7483 57.5978 29.3805C55.8646 28.7099 54.6513 27.9961 53.958 27.2389C53.2864 26.4602 52.9506 25.4867 52.9506 24.3186C52.9506 22.9774 53.4597 21.8525 54.478 20.944C55.4963 20.0354 56.9479 19.5811 58.8328 19.5811C60.5877 19.5811 61.9418 19.8191 62.8951 20.295C63.0034 20.3599 63.0576 20.5005 63.0576 20.7168V23.41C63.0576 23.6696 62.9601 23.7345 62.7651 23.6047Z" fill="#010000"/>
</svg>
