<svg width="61" height="33" viewBox="0 0 61 33" fill="none" xmlns="http://www.w3.org/2000/svg">
<g clip-path="url(#clip0_2_559)">
<path d="M-0.173553 16.3636C-0.173553 25.4009 13.7539 32.7272 30.9337 32.7272C48.1135 32.7272 62.0411 25.4009 62.0411 16.3636C62.0411 7.3264 48.1135 -3.43323e-05 30.9337 -3.43323e-05C13.7539 -3.43323e-05 -0.173553 7.3264 -0.173553 16.3636Z" fill="black"/>
<path d="M30.9337 31.5122C47.4424 31.5122 60.8258 24.7299 60.8258 16.3635C60.8258 7.99724 47.4424 1.2148 30.9337 1.2148C14.425 1.2148 1.04156 7.99724 1.04156 16.3635C1.04156 24.7299 14.425 31.5122 30.9337 31.5122Z" fill="#E7E7E7"/>
<path d="M16.7273 18.2417C18.0848 18.2417 19.0982 17.9914 19.7394 17.4979C20.3737 17.0095 20.8118 16.1633 21.0415 14.9829C21.2556 13.8796 21.174 13.1093 20.7991 12.6935C20.4158 12.2689 19.587 12.0536 18.3359 12.0536H16.1666L14.9639 18.2417H16.7273ZM9.632 25.8644C9.5313 25.8644 9.43567 25.8194 9.37165 25.7415C9.30751 25.6638 9.28152 25.5614 9.30076 25.4625L12.488 9.06378C12.5188 8.90525 12.6578 8.79071 12.8193 8.79071H19.6886C21.8475 8.79071 23.4544 9.3769 24.4644 10.5332C25.4798 11.6955 25.7934 13.3203 25.3964 15.3623C25.2348 16.1942 24.9569 16.9668 24.5704 17.6586C24.1835 18.3511 23.6721 18.9918 23.0503 19.5634C22.3059 20.2601 21.4634 20.7652 20.5485 21.0625C19.648 21.3558 18.4916 21.5045 17.1114 21.5045H14.3299L13.5356 25.5912C13.5048 25.7498 13.3659 25.8644 13.2044 25.8644H9.632Z" fill="black"/>
<path d="M16.4448 12.3911H18.3359C19.846 12.3911 20.3705 12.7224 20.5487 12.9199C20.8444 13.2477 20.9002 13.939 20.7102 14.9189C20.4966 16.0159 20.1008 16.7937 19.5335 17.2304C18.9527 17.6776 18.0085 17.9042 16.7274 17.9042H15.3734L16.4448 12.3911ZM19.6887 8.45317H12.8193C12.4961 8.45317 12.2183 8.68224 12.1567 8.99941L8.96945 25.3981C8.93097 25.596 8.98295 25.8007 9.1111 25.9563C9.23936 26.1119 9.43041 26.2019 9.63203 26.2019H13.2043C13.5275 26.2019 13.8053 25.9728 13.867 25.6557L14.6082 21.8421H17.1115C18.5271 21.8421 19.7188 21.6877 20.6532 21.3834C21.6142 21.0711 22.4983 20.5418 23.2808 19.81C23.928 19.2146 24.4611 18.5463 24.865 17.8234C25.269 17.1003 25.5593 16.2939 25.7277 15.4266C26.1457 13.2772 25.8062 11.556 24.7186 10.3112C23.6417 9.07828 21.9493 8.45317 19.6887 8.45317ZM14.5544 18.5792H16.7274C18.1676 18.5792 19.2404 18.308 19.9453 17.7653C20.6503 17.2226 21.1258 16.3167 21.3729 15.0474C21.6093 13.8286 21.5016 12.9686 21.0498 12.4676C20.5975 11.9666 19.6931 11.716 18.3359 11.716H15.8884L14.5544 18.5792ZM19.6887 9.12824C21.7552 9.12824 23.2627 9.67054 24.2103 10.7553C25.1578 11.84 25.4431 13.3541 25.0651 15.2979C24.9094 16.0987 24.6463 16.8308 24.2758 17.4941C23.9048 18.1578 23.4205 18.7646 22.8219 19.3149C22.1086 19.9825 21.3162 20.4582 20.4442 20.7415C19.5722 21.0256 18.4616 21.167 17.1115 21.167H14.0516L13.2043 25.5268H9.63203L12.8193 9.12824H19.6887Z" fill="#E7E7E7"/>
<path d="M33.5871 21.5046C33.4863 21.5046 33.3908 21.4596 33.3267 21.3817C33.2625 21.304 33.2365 21.2017 33.2557 21.1027L34.6656 13.8469C34.7997 13.1569 34.7667 12.6616 34.5726 12.4523C34.4538 12.3244 34.0969 12.1098 33.0416 12.1098H30.4874L28.7148 21.2314C28.6839 21.39 28.545 21.5046 28.3834 21.5046H24.8393C24.7385 21.5046 24.643 21.4596 24.5788 21.3817C24.5147 21.304 24.4887 21.2016 24.5079 21.1027L27.6952 4.70398C27.726 4.54545 27.865 4.43091 28.0265 4.43091H31.5707C31.6715 4.43091 31.767 4.47592 31.8311 4.55366C31.8952 4.63152 31.9212 4.7338 31.902 4.83281L31.1329 8.79074H33.8806C35.9739 8.79074 37.3934 9.15978 38.2201 9.91901C39.0628 10.6935 39.3258 11.932 39.0017 13.6003L37.5188 21.2314C37.488 21.39 37.3491 21.5046 37.1875 21.5046H33.5871Z" fill="black"/>
<path d="M31.5707 4.0933H28.0265C27.7033 4.0933 27.4255 4.32238 27.3638 4.63955L24.1766 21.0383C24.1381 21.2362 24.1901 21.4408 24.3184 21.5964C24.4466 21.752 24.6377 21.842 24.8393 21.842H28.3834C28.7066 21.842 28.9845 21.613 29.0461 21.2958L30.7656 12.4473H33.0416C34.0951 12.4473 34.3162 12.6723 34.3251 12.682C34.389 12.7507 34.473 13.0692 34.3343 13.7825L32.9244 21.0383C32.8859 21.2362 32.9379 21.4408 33.0662 21.5964C33.1944 21.752 33.3855 21.842 33.5871 21.842H37.1875C37.5106 21.842 37.7885 21.613 37.8502 21.2958L39.333 13.6647C39.681 11.8734 39.3832 10.5297 38.4485 9.67051C37.5565 8.85132 36.0623 8.45314 33.8806 8.45314H31.5422L32.2333 4.8972C32.2717 4.69929 32.2198 4.49452 32.0916 4.33903C31.9633 4.18343 31.7723 4.0933 31.5707 4.0933ZM31.5707 4.76837L30.7233 9.12821H33.8806C35.8673 9.12821 37.2375 9.47497 37.9917 10.1676C38.7459 10.8607 38.9718 11.9836 38.6704 13.536L37.1875 21.167H33.5871L34.997 13.9113C35.1574 13.0859 35.0985 12.5229 34.8199 12.2227C34.5412 11.9226 33.9484 11.7722 33.0416 11.7722H30.209L28.3834 21.167H24.8393L28.0265 4.76837H31.5707Z" fill="#E7E7E7"/>
<path d="M44.6095 18.2417C45.9669 18.2417 46.9803 17.9914 47.6215 17.4979C48.2559 17.0096 48.694 16.1634 48.9238 14.9829C49.1379 13.8796 49.0563 13.1093 48.6813 12.6935C48.298 12.2689 47.4692 12.0536 46.2181 12.0536H44.0487L42.8461 18.2417H44.6095ZM37.5143 25.8644C37.4136 25.8644 37.3179 25.8194 37.2539 25.7415C37.1898 25.6638 37.1637 25.5614 37.1829 25.4625L40.3702 9.06378C40.4011 8.90525 40.5399 8.79071 40.7016 8.79071H47.5708C49.7298 8.79071 51.3366 9.3769 52.3467 10.5332C53.3621 11.6954 53.6756 13.3202 53.2786 15.3623C53.1168 16.1942 52.8391 16.9668 52.4526 17.6586C52.0656 18.3511 51.5543 18.9918 50.9324 19.5634C50.188 20.2601 49.3456 20.7652 48.4306 21.0625C47.5302 21.3558 46.3738 21.5045 44.9936 21.5045H42.212L41.418 25.5912C41.387 25.7498 41.2482 25.8644 41.0865 25.8644H37.5143Z" fill="black"/>
<path d="M44.327 12.391H46.2181C47.7281 12.391 48.2526 12.7224 48.4309 12.9198C48.7267 13.2477 48.7825 13.939 48.5923 14.9187C48.3788 16.0158 47.9828 16.7936 47.4157 17.2304C46.8349 17.6775 45.8907 17.9041 44.6095 17.9041H43.2557L44.327 12.391ZM47.5708 8.45311H40.7015C40.3784 8.45311 40.1006 8.68218 40.0389 8.99935L36.8517 25.3981C36.8132 25.596 36.8652 25.8006 36.9934 25.9562C37.1216 26.1118 37.3127 26.2018 37.5143 26.2018H41.0865C41.4097 26.2018 41.6876 25.9728 41.7492 25.6556L42.4904 21.842H44.9936C46.4093 21.842 47.601 21.6876 48.5354 21.3833C49.4964 21.0711 50.3807 20.5416 51.1632 19.8097C51.8104 19.2144 52.3432 18.5462 52.7472 17.8233C53.1512 17.1002 53.4415 16.2938 53.6099 15.4266C54.0279 13.277 53.6883 11.5558 52.6008 10.311C51.5238 9.07822 49.8315 8.45311 47.5708 8.45311ZM42.4367 18.5792H44.6095C46.0498 18.5792 47.1226 18.3079 47.8275 17.7653C48.5326 17.2225 49.0079 16.3167 49.255 15.0473C49.4915 13.8286 49.3838 12.9685 48.932 12.4675C48.4797 11.9665 47.5752 11.7159 46.2181 11.7159H43.7705L42.4367 18.5792ZM47.5708 9.12818C49.6373 9.12818 51.1449 9.67048 52.0924 10.7552C53.04 11.8399 53.3252 13.354 52.9472 15.2979C52.7916 16.0986 52.5284 16.8307 52.1579 17.494C51.787 18.1577 51.3026 18.7646 50.7041 19.3149C49.9907 19.9824 49.1983 20.4581 48.3263 20.7414C47.4544 21.0255 46.3438 21.1669 44.9936 21.1669H41.9338L41.0865 25.5268H37.5143L40.7015 9.12818H47.5708Z" fill="#E7E7E7"/>
</g>
<defs>
<clipPath id="clip0_2_559">
<rect width="60" height="32.7273" fill="white" transform="translate(0.917358)"/>
</clipPath>
</defs>
</svg>
