<svg width="98" height="83" viewBox="0 0 98 83" fill="none" xmlns="http://www.w3.org/2000/svg">
<path d="M6.44 67.7C7.34667 67.7 8.14667 67.9267 8.84 68.38C9.54667 68.82 10.1067 69.4333 10.52 70.22C10.9333 70.9933 11.14 71.8867 11.14 72.9C11.14 73.9133 10.9333 74.8133 10.52 75.6C10.1067 76.3867 9.54667 77.0067 8.84 77.46C8.13333 77.9133 7.34 78.14 6.46 78.14C5.99333 78.14 5.54667 78.0733 5.12 77.94C4.70667 77.7933 4.32667 77.6 3.98 77.36C3.63333 77.12 3.32667 76.84 3.06 76.52C2.79333 76.1867 2.58 75.8267 2.42 75.44L2.78 75.18V81.4C2.78 81.56 2.72 81.7 2.6 81.82C2.49333 81.94 2.35333 82 2.18 82C2.00667 82 1.86 81.94 1.74 81.82C1.63333 81.7 1.58 81.56 1.58 81.4V68.36C1.58 68.1867 1.63333 68.04 1.74 67.92C1.84667 67.8 1.99333 67.74 2.18 67.74C2.35333 67.74 2.49333 67.8 2.6 67.92C2.72 68.04 2.78 68.1867 2.78 68.36V70.52L2.5 70.36C2.63333 69.9467 2.82667 69.58 3.08 69.26C3.34667 68.9267 3.65333 68.6467 4 68.42C4.34667 68.18 4.72667 68 5.14 67.88C5.55333 67.76 5.98667 67.7 6.44 67.7ZM6.34 68.82C5.62 68.82 4.98667 69 4.44 69.36C3.89333 69.7067 3.46 70.1867 3.14 70.8C2.83333 71.4 2.68 72.1 2.68 72.9C2.68 73.6867 2.83333 74.3933 3.14 75.02C3.46 75.6467 3.89333 76.14 4.44 76.5C4.98667 76.8467 5.62 77.02 6.34 77.02C7.04667 77.02 7.66667 76.8467 8.2 76.5C8.74667 76.14 9.18 75.6467 9.5 75.02C9.82 74.3933 9.98 73.6867 9.98 72.9C9.98 72.1133 9.82 71.4133 9.5 70.8C9.18 70.1867 8.74667 69.7067 8.2 69.36C7.66667 69 7.04667 68.82 6.34 68.82ZM23.2289 72.88C23.2289 73.8933 23.0089 74.8067 22.5689 75.62C22.1289 76.42 21.5289 77.0533 20.7689 77.52C20.0089 77.9733 19.1422 78.2 18.1689 78.2C17.2222 78.2 16.3622 77.9733 15.5889 77.52C14.8289 77.0533 14.2222 76.42 13.7689 75.62C13.3289 74.8067 13.1089 73.8933 13.1089 72.88C13.1089 71.8533 13.3289 70.94 13.7689 70.14C14.2222 69.34 14.8289 68.7067 15.5889 68.24C16.3622 67.7733 17.2222 67.54 18.1689 67.54C19.1422 67.54 20.0089 67.7733 20.7689 68.24C21.5289 68.7067 22.1289 69.34 22.5689 70.14C23.0089 70.94 23.2289 71.8533 23.2289 72.88ZM22.0289 72.88C22.0289 72.0667 21.8622 71.3467 21.5289 70.72C21.1956 70.08 20.7356 69.58 20.1489 69.22C19.5756 68.8467 18.9156 68.66 18.1689 68.66C17.4489 68.66 16.7956 68.8467 16.2089 69.22C15.6222 69.58 15.1556 70.08 14.8089 70.72C14.4756 71.3467 14.3089 72.0667 14.3089 72.88C14.3089 73.6933 14.4756 74.4133 14.8089 75.04C15.1556 75.6667 15.6222 76.1667 16.2089 76.54C16.7956 76.9 17.4489 77.08 18.1689 77.08C18.9156 77.08 19.5756 76.9 20.1489 76.54C20.7356 76.1667 21.1956 75.6667 21.5289 75.04C21.8622 74.4133 22.0289 73.6933 22.0289 72.88ZM25.1992 76.38C25.0926 76.22 25.0392 76.0667 25.0392 75.92C25.0526 75.76 25.1392 75.6333 25.2992 75.54C25.4059 75.4467 25.5259 75.4067 25.6592 75.42C25.8059 75.4333 25.9392 75.5 26.0592 75.62C26.4192 76.0867 26.8526 76.4667 27.3592 76.76C27.8792 77.04 28.4926 77.18 29.1992 77.18C29.5726 77.18 29.9392 77.12 30.2992 77C30.6726 76.8667 30.9792 76.6733 31.2192 76.42C31.4592 76.1533 31.5792 75.82 31.5792 75.42C31.5792 75.0067 31.4592 74.6733 31.2192 74.42C30.9792 74.1667 30.6659 73.9667 30.2792 73.82C29.9059 73.6733 29.5059 73.5467 29.0792 73.44C28.6259 73.32 28.1859 73.1867 27.7592 73.04C27.3326 72.88 26.9526 72.6867 26.6192 72.46C26.2992 72.22 26.0392 71.9333 25.8392 71.6C25.6392 71.2667 25.5392 70.86 25.5392 70.38C25.5392 69.82 25.6926 69.3267 25.9992 68.9C26.3059 68.4733 26.7192 68.14 27.2392 67.9C27.7726 67.66 28.3726 67.54 29.0392 67.54C29.3726 67.54 29.7326 67.5867 30.1192 67.68C30.5059 67.76 30.8859 67.9 31.2592 68.1C31.6326 68.3 31.9659 68.5733 32.2592 68.92C32.3792 69.04 32.4392 69.18 32.4392 69.34C32.4392 69.4867 32.3726 69.62 32.2392 69.74C32.1326 69.82 32.0059 69.86 31.8592 69.86C31.7259 69.86 31.6126 69.8067 31.5192 69.7C31.1992 69.34 30.8192 69.0667 30.3792 68.88C29.9392 68.6933 29.4659 68.6 28.9592 68.6C28.5726 68.6 28.2059 68.6667 27.8592 68.8C27.5259 68.92 27.2459 69.1067 27.0192 69.36C26.7926 69.6133 26.6792 69.9467 26.6792 70.36C26.7059 70.7467 26.8392 71.06 27.0792 71.3C27.3326 71.54 27.6592 71.74 28.0592 71.9C28.4726 72.06 28.9326 72.2067 29.4392 72.34C29.8659 72.4467 30.2726 72.5733 30.6592 72.72C31.0592 72.8667 31.4059 73.0533 31.6992 73.28C32.0059 73.4933 32.2459 73.7667 32.4192 74.1C32.6059 74.4333 32.6992 74.8533 32.6992 75.36C32.6992 75.9467 32.5326 76.4533 32.1992 76.88C31.8792 77.3067 31.4459 77.6333 30.8992 77.86C30.3526 78.0867 29.7459 78.2 29.0792 78.2C28.3592 78.2 27.6592 78.06 26.9792 77.78C26.3126 77.5 25.7192 77.0333 25.1992 76.38ZM34.4942 67.82H39.1542C39.3142 67.82 39.4476 67.88 39.5542 68C39.6609 68.1067 39.7142 68.24 39.7142 68.4C39.7142 68.5467 39.6609 68.6733 39.5542 68.78C39.4476 68.8867 39.3142 68.94 39.1542 68.94H34.4942C34.3342 68.94 34.1942 68.8867 34.0742 68.78C33.9676 68.66 33.9142 68.5267 33.9142 68.38C33.9142 68.22 33.9676 68.0867 34.0742 67.98C34.1942 67.8733 34.3342 67.82 34.4942 67.82ZM36.5542 65C36.7276 65 36.8676 65.06 36.9742 65.18C37.0942 65.3 37.1542 65.44 37.1542 65.6V75.64C37.1542 76.0133 37.2009 76.2933 37.2942 76.48C37.4009 76.6667 37.5342 76.7933 37.6942 76.86C37.8542 76.9133 38.0142 76.94 38.1742 76.94C38.2809 76.94 38.3742 76.9267 38.4542 76.9C38.5476 76.86 38.6476 76.84 38.7542 76.84C38.8742 76.84 38.9742 76.8867 39.0542 76.98C39.1476 77.0733 39.1942 77.1933 39.1942 77.34C39.1942 77.5267 39.0876 77.6867 38.8742 77.82C38.6609 77.94 38.4076 78 38.1142 78C37.9942 78 37.8142 77.9933 37.5742 77.98C37.3342 77.9533 37.0876 77.88 36.8342 77.76C36.5809 77.6267 36.3676 77.4 36.1942 77.08C36.0342 76.76 35.9542 76.3 35.9542 75.7V65.6C35.9542 65.44 36.0076 65.3 36.1142 65.18C36.2342 65.06 36.3809 65 36.5542 65ZM46.0939 67.54C46.6939 67.54 47.2472 67.6467 47.7539 67.86C48.2606 68.06 48.7006 68.3267 49.0739 68.66C49.4606 68.98 49.7606 69.3267 49.9739 69.7C50.1872 70.06 50.2939 70.4067 50.2939 70.74L49.9539 70.26V68.4C49.9539 68.2267 50.0072 68.08 50.1139 67.96C50.2339 67.84 50.3806 67.78 50.5539 67.78C50.7406 67.78 50.8872 67.84 50.9939 67.96C51.1006 68.08 51.1539 68.2267 51.1539 68.4V77.06C51.1539 78.1267 50.9339 79.0267 50.4939 79.76C50.0539 80.4933 49.4539 81.0467 48.6939 81.42C47.9472 81.8067 47.0939 82 46.1339 82C45.6672 82 45.1739 81.94 44.6539 81.82C44.1472 81.7 43.7072 81.5467 43.3339 81.36C42.9739 81.1733 42.7739 80.98 42.7339 80.78C42.6272 80.66 42.5739 80.54 42.5739 80.42C42.5872 80.3133 42.6472 80.22 42.7539 80.14C42.8872 80.0467 43.0272 80.0333 43.1739 80.1C43.3206 80.18 43.5406 80.28 43.8339 80.4C43.9672 80.44 44.1472 80.5 44.3739 80.58C44.6006 80.66 44.8672 80.7267 45.1739 80.78C45.4939 80.8467 45.8272 80.88 46.1739 80.88C47.3739 80.88 48.3006 80.5333 48.9539 79.84C49.6206 79.16 49.9539 78.26 49.9539 77.14V75.22L50.1739 75.28C50.0539 75.76 49.8539 76.18 49.5739 76.54C49.3072 76.9 48.9872 77.2067 48.6139 77.46C48.2406 77.7 47.8339 77.88 47.3939 78C46.9672 78.1333 46.5406 78.2 46.1139 78.2C45.1939 78.2 44.3672 77.9667 43.6339 77.5C42.9006 77.0333 42.3139 76.4 41.8739 75.6C41.4472 74.8 41.2339 73.8867 41.2339 72.86C41.2339 71.8467 41.4472 70.94 41.8739 70.14C42.3139 69.3267 42.8939 68.6933 43.6139 68.24C44.3472 67.7733 45.1739 67.54 46.0939 67.54ZM46.2339 68.66C45.5006 68.66 44.8406 68.8467 44.2539 69.22C43.6806 69.58 43.2272 70.08 42.8939 70.72C42.5739 71.3467 42.4139 72.06 42.4139 72.86C42.4139 73.66 42.5739 74.38 42.8939 75.02C43.2272 75.66 43.6806 76.1667 44.2539 76.54C44.8406 76.9 45.5006 77.08 46.2339 77.08C46.9672 77.08 47.6206 76.9 48.1939 76.54C48.7672 76.18 49.2206 75.6867 49.5539 75.06C49.8872 74.42 50.0539 73.6867 50.0539 72.86C50.0539 72.0333 49.8872 71.3067 49.5539 70.68C49.2206 70.04 48.7672 69.5467 48.1939 69.2C47.6206 68.84 46.9672 68.66 46.2339 68.66ZM54.9144 78C54.7277 78 54.581 77.94 54.4744 77.82C54.3677 77.7 54.3144 77.56 54.3144 77.4V68.44C54.3144 68.28 54.3677 68.14 54.4744 68.02C54.5944 67.9 54.741 67.84 54.9144 67.84C55.0877 67.84 55.2277 67.9 55.3344 68.02C55.4544 68.14 55.5144 68.28 55.5144 68.44V71.44L55.2144 71.5C55.2544 71.0333 55.3677 70.5733 55.5544 70.12C55.7544 69.6533 56.021 69.2267 56.3544 68.84C56.6877 68.4533 57.081 68.14 57.5344 67.9C58.001 67.66 58.521 67.54 59.0944 67.54C59.3344 67.54 59.5677 67.5933 59.7944 67.7C60.021 67.7933 60.1344 67.9533 60.1344 68.18C60.1344 68.38 60.081 68.5333 59.9744 68.64C59.8677 68.7467 59.741 68.8 59.5944 68.8C59.4744 68.8 59.341 68.7667 59.1944 68.7C59.061 68.6333 58.881 68.6 58.6544 68.6C58.281 68.6 57.9077 68.7133 57.5344 68.94C57.161 69.1533 56.821 69.4467 56.5144 69.82C56.2077 70.1933 55.961 70.6133 55.7744 71.08C55.601 71.5333 55.5144 71.9933 55.5144 72.46V77.4C55.5144 77.56 55.4544 77.7 55.3344 77.82C55.2144 77.94 55.0744 78 54.9144 78ZM66.1805 78.2C65.1538 78.2 64.2471 77.98 63.4605 77.54C62.6738 77.1 62.0605 76.4867 61.6205 75.7C61.1805 74.9133 60.9605 73.9933 60.9605 72.94C60.9605 71.8067 61.1805 70.84 61.6205 70.04C62.0738 69.24 62.6538 68.6267 63.3605 68.2C64.0805 67.76 64.8405 67.54 65.6405 67.54C66.2271 67.54 66.7938 67.6467 67.3405 67.86C67.9005 68.06 68.3938 68.3667 68.8205 68.78C69.2605 69.18 69.6071 69.6733 69.8605 70.26C70.1271 70.8467 70.2738 71.5267 70.3005 72.3C70.2871 72.46 70.2205 72.6 70.1005 72.72C69.9805 72.8267 69.8405 72.88 69.6805 72.88H61.6605L61.4205 71.8H69.3005L69.0405 72.04V71.64C68.9871 71.0133 68.7871 70.48 68.4405 70.04C68.0938 69.6 67.6738 69.2667 67.1805 69.04C66.6871 68.8133 66.1738 68.7 65.6405 68.7C65.2405 68.7 64.8271 68.78 64.4005 68.94C63.9871 69.1 63.6071 69.3533 63.2605 69.7C62.9271 70.0333 62.6538 70.4667 62.4405 71C62.2271 71.52 62.1205 72.14 62.1205 72.86C62.1205 73.6467 62.2805 74.36 62.6005 75C62.9205 75.64 63.3805 76.1467 63.9805 76.52C64.5938 76.8933 65.3205 77.08 66.1605 77.08C66.6271 77.08 67.0471 77.0133 67.4205 76.88C67.7938 76.7467 68.1205 76.5733 68.4005 76.36C68.6805 76.1333 68.9138 75.9 69.1005 75.66C69.2471 75.54 69.3938 75.48 69.5405 75.48C69.6738 75.48 69.7871 75.5333 69.8805 75.64C69.9871 75.7467 70.0405 75.8667 70.0405 76C70.0405 76.16 69.9738 76.3 69.8405 76.42C69.4405 76.9 68.9205 77.32 68.2805 77.68C67.6405 78.0267 66.9405 78.2 66.1805 78.2ZM72.2891 76.38C72.1824 76.22 72.1291 76.0667 72.1291 75.92C72.1424 75.76 72.2291 75.6333 72.3891 75.54C72.4957 75.4467 72.6157 75.4067 72.7491 75.42C72.8957 75.4333 73.0291 75.5 73.1491 75.62C73.5091 76.0867 73.9424 76.4667 74.4491 76.76C74.9691 77.04 75.5824 77.18 76.2891 77.18C76.6624 77.18 77.0291 77.12 77.3891 77C77.7624 76.8667 78.0691 76.6733 78.3091 76.42C78.5491 76.1533 78.6691 75.82 78.6691 75.42C78.6691 75.0067 78.5491 74.6733 78.3091 74.42C78.0691 74.1667 77.7557 73.9667 77.3691 73.82C76.9957 73.6733 76.5957 73.5467 76.1691 73.44C75.7157 73.32 75.2757 73.1867 74.8491 73.04C74.4224 72.88 74.0424 72.6867 73.7091 72.46C73.3891 72.22 73.1291 71.9333 72.9291 71.6C72.7291 71.2667 72.6291 70.86 72.6291 70.38C72.6291 69.82 72.7824 69.3267 73.0891 68.9C73.3957 68.4733 73.8091 68.14 74.3291 67.9C74.8624 67.66 75.4624 67.54 76.1291 67.54C76.4624 67.54 76.8224 67.5867 77.2091 67.68C77.5957 67.76 77.9757 67.9 78.3491 68.1C78.7224 68.3 79.0557 68.5733 79.3491 68.92C79.4691 69.04 79.5291 69.18 79.5291 69.34C79.5291 69.4867 79.4624 69.62 79.3291 69.74C79.2224 69.82 79.0957 69.86 78.9491 69.86C78.8157 69.86 78.7024 69.8067 78.6091 69.7C78.2891 69.34 77.9091 69.0667 77.4691 68.88C77.0291 68.6933 76.5557 68.6 76.0491 68.6C75.6624 68.6 75.2957 68.6667 74.9491 68.8C74.6157 68.92 74.3357 69.1067 74.1091 69.36C73.8824 69.6133 73.7691 69.9467 73.7691 70.36C73.7957 70.7467 73.9291 71.06 74.1691 71.3C74.4224 71.54 74.7491 71.74 75.1491 71.9C75.5624 72.06 76.0224 72.2067 76.5291 72.34C76.9557 72.4467 77.3624 72.5733 77.7491 72.72C78.1491 72.8667 78.4957 73.0533 78.7891 73.28C79.0957 73.4933 79.3357 73.7667 79.5091 74.1C79.6957 74.4333 79.7891 74.8533 79.7891 75.36C79.7891 75.9467 79.6224 76.4533 79.2891 76.88C78.9691 77.3067 78.5357 77.6333 77.9891 77.86C77.4424 78.0867 76.8357 78.2 76.1691 78.2C75.4491 78.2 74.7491 78.06 74.0691 77.78C73.4024 77.5 72.8091 77.0333 72.2891 76.38ZM90.6241 67.74C90.7974 67.74 90.9374 67.8 91.0441 67.92C91.1641 68.04 91.2241 68.1867 91.2241 68.36V81.4C91.2241 81.56 91.1641 81.7 91.0441 81.82C90.9241 81.94 90.7841 82 90.6241 82C90.4507 82 90.3041 81.94 90.1841 81.82C90.0774 81.7 90.0241 81.56 90.0241 81.4V75.02L90.3641 74.74C90.3641 75.1133 90.2641 75.5067 90.0641 75.92C89.8641 76.32 89.5774 76.6933 89.2041 77.04C88.8441 77.3867 88.4174 77.6667 87.9241 77.88C87.4441 78.0933 86.9241 78.2 86.3641 78.2C85.4707 78.2 84.6641 77.9667 83.9441 77.5C83.2374 77.0333 82.6774 76.4 82.2641 75.6C81.8507 74.8 81.6441 73.8867 81.6441 72.86C81.6441 71.8467 81.8507 70.94 82.2641 70.14C82.6774 69.3267 83.2374 68.6933 83.9441 68.24C84.6507 67.7733 85.4507 67.54 86.3441 67.54C86.8907 67.54 87.4107 67.64 87.9041 67.84C88.3974 68.04 88.8307 68.3133 89.2041 68.66C89.5907 69.0067 89.8907 69.4067 90.1041 69.86C90.3307 70.3 90.4441 70.76 90.4441 71.24L90.0241 70.94V68.36C90.0241 68.1867 90.0774 68.04 90.1841 67.92C90.3041 67.8 90.4507 67.74 90.6241 67.74ZM86.4641 77.08C87.1841 77.08 87.8107 76.9 88.3441 76.54C88.8907 76.1667 89.3174 75.6667 89.6241 75.04C89.9441 74.4 90.1041 73.6733 90.1041 72.86C90.1041 72.06 89.9441 71.3467 89.6241 70.72C89.3174 70.08 88.8907 69.58 88.3441 69.22C87.7974 68.8467 87.1707 68.66 86.4641 68.66C85.7707 68.66 85.1441 68.8467 84.5841 69.22C84.0374 69.58 83.6041 70.08 83.2841 70.72C82.9774 71.3467 82.8241 72.06 82.8241 72.86C82.8241 73.66 82.9774 74.38 83.2841 75.02C83.6041 75.66 84.0374 76.1667 84.5841 76.54C85.1441 76.9 85.7707 77.08 86.4641 77.08ZM95.693 77.4C95.693 77.56 95.633 77.7 95.513 77.82C95.393 77.94 95.253 78 95.093 78C94.9196 78 94.773 77.94 94.653 77.82C94.5463 77.7 94.493 77.56 94.493 77.4V63.8C94.493 63.64 94.553 63.5 94.673 63.38C94.793 63.26 94.933 63.2 95.093 63.2C95.2663 63.2 95.4063 63.26 95.513 63.38C95.633 63.5 95.693 63.64 95.693 63.8V77.4Z" fill="#E7E7E7"/>
<path d="M46.1184 31.1319C45.9622 36.6904 46.1575 42.2881 46.7004 43.6319C47.2434 44.9756 48.4094 47.6358 52.4153 46.7803C55.761 46.0635 56.9797 44.6748 57.5071 41.6104L58.7434 31.8115M41.3176 3.26662C41.3176 3.26662 23.1848 -4.14744 24.0286 12.7061C24.2082 16.292 29.1653 39.8545 35.0832 32.7256C37.2434 30.1221 39.1965 28.085 39.1965 28.085M51.1106 1.91311C50.4856 2.10842 61.1965 -2.00291 67.2864 5.77639C69.4348 8.52443 66.9446 19.7549 60.9817 28.6026" stroke="#E7E7E7" stroke-width="1.79" stroke-linecap="round" stroke-linejoin="round"/>
<path d="M60.9836 28.5986C60.9836 28.5986 61.3743 30.5127 67.0383 29.3447C69.5129 28.833 68.0227 30.7783 65.5149 31.9424C63.4563 32.8994 58.8391 33.1436 58.7629 31.8252C58.5676 28.417 61.1926 29.4521 61.0032 28.5986C60.8313 27.8291 59.6555 27.0752 58.8821 25.1924C58.2044 23.5518 49.5852 10.9541 61.2727 12.8232C61.7024 12.7354 58.2258 1.69043 47.2883 1.53027C36.3508 1.37012 36.6965 14.9775 36.6965 14.9775" stroke="#E7E7E7" stroke-width="1.79" stroke-linecap="round" stroke-linejoin="bevel"/>
<path d="M43.0578 29.7666C41.5344 31.4697 41.9836 31.7685 38.9368 32.3955C35.8547 33.0303 37.6672 34.1611 38.8469 34.458C40.2805 34.8174 43.5969 35.3252 45.8391 32.1865C46.5227 31.2295 45.8352 29.706 44.8977 29.3193C44.4446 29.1318 43.8391 28.8974 43.0618 29.7685L43.0578 29.7666Z" stroke="#E7E7E7" stroke-width="1.79" stroke-linejoin="round"/>
<path d="M42.9582 29.7373C42.802 28.7354 43.2863 27.5459 43.8039 26.1514C44.5813 24.0615 46.3742 21.9717 44.9406 15.3369C43.8723 10.3955 36.6985 14.3076 36.6985 14.9776C36.6985 15.6475 37.0227 18.376 36.5813 21.5498C36.0012 25.6943 39.218 29.1983 42.9211 28.8408" stroke="#E7E7E7" stroke-width="1.79" stroke-linecap="round" stroke-linejoin="round"/>
<path d="M41.2512 14.8779C41.218 15.1065 41.6711 15.7178 42.259 15.7998C42.8469 15.8819 43.3489 15.4053 43.3821 15.1748C43.4153 14.9444 42.9622 14.6944 42.3743 14.6123C41.7864 14.5303 41.2805 14.6514 41.2512 14.8779Z" fill="#E7E7E7" stroke="#E7E7E7" stroke-width="0.5975"/>
<path d="M59.1497 14.4112C59.1809 14.6397 58.7297 15.251 58.1419 15.333C57.554 15.4151 57.0481 14.9385 57.0188 14.708C56.9895 14.4776 57.4387 14.2276 58.0266 14.1455C58.6145 14.0635 59.1204 14.1846 59.1497 14.4112Z" fill="#E7E7E7" stroke="#E7E7E7" stroke-width="0.2975"/>
<path d="M61.2512 12.8271C61.3489 14.624 60.8645 15.8447 60.802 17.7568C60.7122 20.5342 62.1262 23.7139 59.9954 26.8975" stroke="#E7E7E7" stroke-width="1.79" stroke-linecap="round" stroke-linejoin="round"/>
</svg>
