<svg width="51" height="52" viewBox="0 0 51 52" fill="none" xmlns="http://www.w3.org/2000/svg">
<path d="M25.0698 33.7902C24.8997 39.8392 25.1123 45.9307 25.7031 47.393C26.294 48.8553 27.5629 51.7501 31.9222 50.8192C35.563 50.0392 36.8893 48.528 37.4632 45.1932L38.8086 34.5299M19.8454 3.46659C19.8454 3.46659 0.112889 -4.60157 1.03108 13.7388C1.22662 17.6411 6.62098 43.2824 13.0611 35.5246C15.4118 32.6913 17.5372 30.4745 17.5372 30.4745M30.5024 1.99366C29.8222 2.20621 41.4781 -2.26784 48.1053 6.19778C50.4432 9.18827 47.7333 21.4095 41.2443 31.0378" stroke="#E7E7E7" stroke-width="1.79" stroke-linecap="round" stroke-linejoin="round"/>
<path d="M41.2464 31.0335C41.2464 31.0335 41.6715 33.1164 47.8353 31.8454C50.5282 31.2885 48.9065 33.4054 46.1775 34.6722C43.9373 35.7137 38.9127 35.9793 38.8298 34.5447C38.6173 30.8358 41.4739 31.9623 41.2677 31.0335C41.0807 30.196 39.8012 29.3756 38.9595 27.3267C38.222 25.5413 28.8424 11.8323 41.561 13.8663C42.0286 13.7707 38.2453 1.75131 26.3429 1.57703C14.4404 1.40274 14.8166 16.2107 14.8166 16.2107" stroke="#E7E7E7" stroke-width="1.79" stroke-linecap="round" stroke-linejoin="bevel"/>
<path d="M21.7393 32.3045C20.0814 34.1579 20.5703 34.483 17.2546 35.1653C13.9006 35.8561 15.8731 37.0867 17.1568 37.4098C18.7169 37.8009 22.3259 38.3535 24.7659 34.9379C25.5098 33.8964 24.7616 32.2386 23.7414 31.8177C23.2483 31.6137 22.5894 31.3587 21.7435 32.3066L21.7393 32.3045Z" stroke="#E7E7E7" stroke-width="1.79" stroke-linejoin="round"/>
<path d="M21.6309 32.2726C21.4608 31.1823 21.988 29.8879 22.5512 28.3703C23.3971 26.0961 25.3483 23.8219 23.7882 16.6018C22.6256 11.2244 14.8189 15.4817 14.8189 16.2107C14.8189 16.9397 15.1717 19.909 14.6913 23.3628C14.0601 27.873 17.5607 31.686 21.5905 31.2971" stroke="#E7E7E7" stroke-width="1.79" stroke-linecap="round" stroke-linejoin="round"/>
<path d="M19.7732 16.1023C19.7371 16.351 20.2302 17.0163 20.87 17.1055C21.5097 17.1948 22.0559 16.6762 22.0921 16.4254C22.1282 16.1746 21.6351 15.9025 20.9954 15.8133C20.3556 15.724 19.8051 15.8558 19.7732 16.1023Z" fill="#E7E7E7" stroke="#E7E7E7" stroke-width="0.5975"/>
<path d="M39.2507 15.5943C39.2848 15.843 38.7938 16.5083 38.154 16.5975C37.5143 16.6868 36.9638 16.1682 36.9319 15.9174C36.9 15.6666 37.3889 15.3945 38.0286 15.3053C38.6684 15.216 39.2189 15.3478 39.2507 15.5943Z" fill="#E7E7E7" stroke="#E7E7E7" stroke-width="0.2975"/>
<path d="M41.5377 13.8706C41.6439 15.826 41.1168 17.1544 41.0488 19.2352C40.9511 22.2576 42.4899 25.7178 40.171 29.1823" stroke="#E7E7E7" stroke-width="1.79" stroke-linecap="round" stroke-linejoin="round"/>
</svg>
