<svg width="66" height="86" viewBox="0 0 66 86" fill="none" xmlns="http://www.w3.org/2000/svg">
<g clip-path="url(#clip0_2_548)">
<path d="M32.8138 0.367676C20.0687 0.367677 20.8645 5.89472 20.8645 5.89472L20.8788 11.6207H33.0411V13.3399H16.0479C16.0479 13.3399 7.89232 12.415 7.89232 25.2749C7.89232 38.1348 15.0107 37.6788 15.0107 37.6788H19.259V31.7113C19.259 31.7113 19.03 24.5929 26.2637 24.5929C33.4974 24.5929 38.3266 24.5929 38.3266 24.5929C38.3266 24.5929 45.104 24.7025 45.104 18.0429C45.104 11.3833 45.104 7.03139 45.104 7.03139C45.104 7.03139 46.133 0.367676 32.8138 0.367676ZM26.1074 4.21814C27.3175 4.21814 28.2955 5.19616 28.2955 6.40622C28.2955 7.61629 27.3175 8.59431 26.1074 8.59431C24.8974 8.59431 23.9193 7.61629 23.9193 6.40622C23.9193 5.19616 24.8974 4.21814 26.1074 4.21814Z" fill="#E7E7E7"/>
<path d="M33.1757 50.3111C45.9208 50.3111 45.1249 44.7841 45.1249 44.7841L45.1107 39.0581H32.9484V37.3389H49.9416C49.9416 37.3389 58.0972 38.2638 58.0972 25.4039C58.0972 12.5439 50.9788 13 50.9788 13H46.7305V18.9675C46.7305 18.9675 46.9595 26.0859 39.7258 26.0859C32.4921 26.0859 27.6629 26.0859 27.6629 26.0859C27.6629 26.0859 20.8855 25.9763 20.8855 32.6359C20.8855 39.2955 20.8855 43.6474 20.8855 43.6474C20.8855 43.6474 19.8565 50.3111 33.1757 50.3111ZM39.8821 46.4607C38.672 46.4607 37.694 45.4826 37.694 44.2726C37.694 43.0625 38.672 42.0845 39.8821 42.0845C41.0921 42.0845 42.0701 43.0625 42.0701 44.2726C42.0702 45.4826 41.0921 46.4607 39.8821 46.4607Z" fill="#808080"/>
</g>
<path d="M6.44 70.7C7.34667 70.7 8.14667 70.9267 8.84 71.38C9.54667 71.82 10.1067 72.4333 10.52 73.22C10.9333 73.9933 11.14 74.8867 11.14 75.9C11.14 76.9133 10.9333 77.8133 10.52 78.6C10.1067 79.3867 9.54667 80.0067 8.84 80.46C8.13333 80.9133 7.34 81.14 6.46 81.14C5.99333 81.14 5.54667 81.0733 5.12 80.94C4.70667 80.7933 4.32667 80.6 3.98 80.36C3.63333 80.12 3.32667 79.84 3.06 79.52C2.79333 79.1867 2.58 78.8267 2.42 78.44L2.78 78.18V84.4C2.78 84.56 2.72 84.7 2.6 84.82C2.49333 84.94 2.35333 85 2.18 85C2.00667 85 1.86 84.94 1.74 84.82C1.63333 84.7 1.58 84.56 1.58 84.4V71.36C1.58 71.1867 1.63333 71.04 1.74 70.92C1.84667 70.8 1.99333 70.74 2.18 70.74C2.35333 70.74 2.49333 70.8 2.6 70.92C2.72 71.04 2.78 71.1867 2.78 71.36V73.52L2.5 73.36C2.63333 72.9467 2.82667 72.58 3.08 72.26C3.34667 71.9267 3.65333 71.6467 4 71.42C4.34667 71.18 4.72667 71 5.14 70.88C5.55333 70.76 5.98667 70.7 6.44 70.7ZM6.34 71.82C5.62 71.82 4.98667 72 4.44 72.36C3.89333 72.7067 3.46 73.1867 3.14 73.8C2.83333 74.4 2.68 75.1 2.68 75.9C2.68 76.6867 2.83333 77.3933 3.14 78.02C3.46 78.6467 3.89333 79.14 4.44 79.5C4.98667 79.8467 5.62 80.02 6.34 80.02C7.04667 80.02 7.66667 79.8467 8.2 79.5C8.74667 79.14 9.18 78.6467 9.5 78.02C9.82 77.3933 9.98 76.6867 9.98 75.9C9.98 75.1133 9.82 74.4133 9.5 73.8C9.18 73.1867 8.74667 72.7067 8.2 72.36C7.66667 72 7.04667 71.82 6.34 71.82ZM21.3289 70.6C21.5022 70.6 21.6422 70.66 21.7489 70.78C21.8689 70.9 21.9289 71.04 21.9289 71.2V80.02C21.9289 81.1 21.7156 82.0067 21.2889 82.74C20.8622 83.4867 20.2889 84.0467 19.5689 84.42C18.8489 84.8067 18.0289 85 17.1089 85C16.5356 85 16.0022 84.9333 15.5089 84.8C15.0289 84.68 14.6356 84.52 14.3289 84.32C14.1689 84.2267 14.0489 84.1133 13.9689 83.98C13.8889 83.8467 13.8822 83.7067 13.9489 83.56C14.0156 83.3733 14.1156 83.2467 14.2489 83.18C14.3956 83.1267 14.5422 83.1333 14.6889 83.2C14.9156 83.32 15.2422 83.4667 15.6689 83.64C16.0956 83.8133 16.5822 83.9 17.1289 83.9C17.8622 83.9 18.4956 83.7467 19.0289 83.44C19.5756 83.1333 19.9956 82.6867 20.2889 82.1C20.5822 81.5267 20.7289 80.84 20.7289 80.04V78.6L20.8689 79.08C20.6689 79.4933 20.3822 79.86 20.0089 80.18C19.6489 80.5 19.2289 80.7533 18.7489 80.94C18.2822 81.1133 17.7822 81.2 17.2489 81.2C16.4489 81.2 15.7822 81.04 15.2489 80.72C14.7289 80.3867 14.3422 79.9333 14.0889 79.36C13.8356 78.7867 13.7089 78.1133 13.7089 77.34V71.2C13.7089 71.04 13.7622 70.9 13.8689 70.78C13.9756 70.66 14.1222 70.6 14.3089 70.6C14.4822 70.6 14.6222 70.66 14.7289 70.78C14.8489 70.9 14.9089 71.04 14.9089 71.2V77.16C14.9089 78.0933 15.1089 78.8133 15.5089 79.32C15.9222 79.8267 16.5889 80.08 17.5089 80.08C18.0822 80.08 18.6089 79.9467 19.0889 79.68C19.5689 79.4 19.9622 79.04 20.2689 78.6C20.5756 78.1467 20.7289 77.6667 20.7289 77.16V71.2C20.7289 71.04 20.7822 70.9 20.8889 70.78C21.0089 70.66 21.1556 70.6 21.3289 70.6ZM24.4161 70.82H29.0761C29.2361 70.82 29.3694 70.88 29.4761 71C29.5828 71.1067 29.6361 71.24 29.6361 71.4C29.6361 71.5467 29.5828 71.6733 29.4761 71.78C29.3694 71.8867 29.2361 71.94 29.0761 71.94H24.4161C24.2561 71.94 24.1161 71.8867 23.9961 71.78C23.8894 71.66 23.8361 71.5267 23.8361 71.38C23.8361 71.22 23.8894 71.0867 23.9961 70.98C24.1161 70.8733 24.2561 70.82 24.4161 70.82ZM26.4761 68C26.6494 68 26.7894 68.06 26.8961 68.18C27.0161 68.3 27.0761 68.44 27.0761 68.6V78.64C27.0761 79.0133 27.1228 79.2933 27.2161 79.48C27.3228 79.6667 27.4561 79.7933 27.6161 79.86C27.7761 79.9133 27.9361 79.94 28.0961 79.94C28.2028 79.94 28.2961 79.9267 28.3761 79.9C28.4694 79.86 28.5694 79.84 28.6761 79.84C28.7961 79.84 28.8961 79.8867 28.9761 79.98C29.0694 80.0733 29.1161 80.1933 29.1161 80.34C29.1161 80.5267 29.0094 80.6867 28.7961 80.82C28.5828 80.94 28.3294 81 28.0361 81C27.9161 81 27.7361 80.9933 27.4961 80.98C27.2561 80.9533 27.0094 80.88 26.7561 80.76C26.5028 80.6267 26.2894 80.4 26.1161 80.08C25.9561 79.76 25.8761 79.3 25.8761 78.7V68.6C25.8761 68.44 25.9294 68.3 26.0361 68.18C26.1561 68.06 26.3028 68 26.4761 68ZM36.5134 70.7C37.3534 70.7 38.0334 70.88 38.5534 71.24C39.0734 71.6 39.4534 72.0867 39.6934 72.7C39.9468 73.3133 40.0734 73.9933 40.0734 74.74V80.4C40.0734 80.56 40.0134 80.7 39.8934 80.82C39.7734 80.94 39.6334 81 39.4734 81C39.2868 81 39.1401 80.94 39.0334 80.82C38.9268 80.7 38.8734 80.56 38.8734 80.4V74.74C38.8734 74.1933 38.7868 73.7 38.6134 73.26C38.4534 72.82 38.1868 72.4733 37.8134 72.22C37.4401 71.9533 36.9401 71.82 36.3134 71.82C35.7534 71.82 35.2201 71.9533 34.7134 72.22C34.2201 72.4733 33.8201 72.82 33.5134 73.26C33.2068 73.7 33.0534 74.1933 33.0534 74.74V80.4C33.0534 80.56 32.9934 80.7 32.8734 80.82C32.7534 80.94 32.6134 81 32.4534 81C32.2668 81 32.1201 80.94 32.0134 80.82C31.9068 80.7 31.8534 80.56 31.8534 80.4V66.8C31.8534 66.64 31.9068 66.5 32.0134 66.38C32.1334 66.26 32.2801 66.2 32.4534 66.2C32.6268 66.2 32.7668 66.26 32.8734 66.38C32.9934 66.5 33.0534 66.64 33.0534 66.8V73.28L32.5934 73.98C32.6201 73.5667 32.7468 73.1667 32.9734 72.78C33.2134 72.38 33.5201 72.0267 33.8934 71.72C34.2668 71.4 34.6801 71.1533 35.1334 70.98C35.5868 70.7933 36.0468 70.7 36.5134 70.7ZM52.7406 75.88C52.7406 76.8933 52.5206 77.8067 52.0806 78.62C51.6406 79.42 51.0406 80.0533 50.2806 80.52C49.5206 80.9733 48.654 81.2 47.6806 81.2C46.734 81.2 45.874 80.9733 45.1006 80.52C44.3406 80.0533 43.734 79.42 43.2806 78.62C42.8406 77.8067 42.6206 76.8933 42.6206 75.88C42.6206 74.8533 42.8406 73.94 43.2806 73.14C43.734 72.34 44.3406 71.7067 45.1006 71.24C45.874 70.7733 46.734 70.54 47.6806 70.54C48.654 70.54 49.5206 70.7733 50.2806 71.24C51.0406 71.7067 51.6406 72.34 52.0806 73.14C52.5206 73.94 52.7406 74.8533 52.7406 75.88ZM51.5406 75.88C51.5406 75.0667 51.374 74.3467 51.0406 73.72C50.7073 73.08 50.2473 72.58 49.6606 72.22C49.0873 71.8467 48.4273 71.66 47.6806 71.66C46.9606 71.66 46.3073 71.8467 45.7206 72.22C45.134 72.58 44.6673 73.08 44.3206 73.72C43.9873 74.3467 43.8206 75.0667 43.8206 75.88C43.8206 76.6933 43.9873 77.4133 44.3206 78.04C44.6673 78.6667 45.134 79.1667 45.7206 79.54C46.3073 79.9 46.9606 80.08 47.6806 80.08C48.4273 80.08 49.0873 79.9 49.6606 79.54C50.2473 79.1667 50.7073 78.6667 51.0406 78.04C51.374 77.4133 51.5406 76.6933 51.5406 75.88ZM60.1109 70.54C60.9909 70.54 61.6909 70.72 62.2109 71.08C62.7443 71.4267 63.1243 71.9067 63.3509 72.52C63.5909 73.12 63.7109 73.7867 63.7109 74.52V80.4C63.7109 80.56 63.6509 80.7 63.5309 80.82C63.4109 80.94 63.2709 81 63.1109 81C62.9243 81 62.7776 80.94 62.6709 80.82C62.5643 80.7 62.5109 80.56 62.5109 80.4V74.58C62.5109 74.0467 62.4243 73.56 62.2509 73.12C62.0776 72.68 61.7909 72.3267 61.3909 72.06C61.0043 71.7933 60.4909 71.66 59.8509 71.66C59.2776 71.66 58.7309 71.7933 58.2109 72.06C57.7043 72.3267 57.2909 72.68 56.9709 73.12C56.6509 73.56 56.4909 74.0467 56.4909 74.58V80.4C56.4909 80.56 56.4309 80.7 56.3109 80.82C56.1909 80.94 56.0509 81 55.8909 81C55.7043 81 55.5576 80.94 55.4509 80.82C55.3443 80.7 55.2909 80.56 55.2909 80.4V71.44C55.2909 71.28 55.3443 71.14 55.4509 71.02C55.5709 70.9 55.7176 70.84 55.8909 70.84C56.0643 70.84 56.2043 70.9 56.3109 71.02C56.4309 71.14 56.4909 71.28 56.4909 71.44V73.12L56.0309 73.84C56.0576 73.4133 56.1909 73.0067 56.4309 72.62C56.6843 72.22 57.0043 71.8667 57.3909 71.56C57.7776 71.24 58.2043 70.9933 58.6709 70.82C59.1509 70.6333 59.6309 70.54 60.1109 70.54Z" fill="white"/>
<defs>
<clipPath id="clip0_2_548">
<rect width="50" height="50" fill="white" transform="translate(7.91736)"/>
</clipPath>
</defs>
</svg>
