<svg width="58" height="50" viewBox="0 0 58 50" fill="none" xmlns="http://www.w3.org/2000/svg">
<path d="M46.6716 16.2031C46.069 16.0022 45.4663 15.8125 44.8637 15.6339C44.9641 15.221 45.0534 14.8081 45.1427 14.3952C46.5154 7.74373 45.6114 2.39803 42.5647 0.634731C39.6296 -1.05045 34.8419 0.701692 29.9984 4.92022C29.5185 5.33314 29.0498 5.76839 28.6034 6.20363C28.3021 5.91347 27.9896 5.6233 27.6771 5.3443C22.5992 0.835613 17.5102 -1.06161 14.4635 0.712852C11.5396 2.40919 10.6691 7.4424 11.8967 13.7367C12.0194 14.3617 12.1534 14.9755 12.3096 15.6004C11.5954 15.8013 10.8923 16.0245 10.2338 16.2589C4.27432 18.3235 0 21.5823 0 24.9526C0 28.4346 4.55333 31.9277 10.7472 34.0481C11.2494 34.2155 11.7516 34.3829 12.265 34.528C12.0976 35.1976 11.9525 35.8561 11.8186 36.5368C10.6468 42.7307 11.5619 47.6411 14.4858 49.3263C17.4991 51.0673 22.5658 49.2817 27.4985 44.9627C27.8891 44.6168 28.2797 44.2596 28.6703 43.8802C29.1614 44.3601 29.6748 44.8176 30.1881 45.264C34.9647 49.371 39.6854 51.0338 42.5982 49.3486C45.6114 47.6077 46.5935 42.3289 45.3212 35.9007C45.2208 35.4097 45.1092 34.9075 44.9864 34.3941C45.3436 34.2936 45.6895 34.182 46.0355 34.0704C52.4749 31.9389 57.1398 28.4904 57.1398 24.9526C57.1398 21.5711 52.7427 18.29 46.6716 16.2031ZM31.572 6.72816C35.7235 3.11228 39.5961 1.69494 41.3594 2.71051C43.2455 3.79304 43.9709 8.16781 42.7879 13.9153C42.7098 14.2947 42.6317 14.663 42.5312 15.0313C40.0537 14.4733 37.5426 14.0715 35.0205 13.8483C33.5696 11.7725 31.9849 9.78603 30.2662 7.92229C30.7015 7.50936 31.1256 7.11876 31.572 6.72816ZM18.6597 30.7447C19.2289 31.7157 19.8092 32.6866 20.423 33.6352C18.682 33.4455 16.9522 33.1665 15.2447 32.7982C15.7358 31.1911 16.3496 29.5283 17.0638 27.8319C17.5772 28.814 18.1017 29.785 18.6597 30.7447ZM15.2782 17.3191C16.8853 16.962 18.5928 16.6718 20.3672 16.4486C19.7757 17.3749 19.1954 18.3235 18.6486 19.2833C18.1017 20.2319 17.566 21.2028 17.0638 22.1849C16.3607 20.5221 15.7692 18.8927 15.2782 17.3191ZM18.3361 25.0084C19.0726 23.4683 19.8762 21.9617 20.7243 20.4774C21.5725 18.9931 22.4876 17.5535 23.4474 16.1361C25.1214 16.0134 26.8289 15.9464 28.5699 15.9464C30.3109 15.9464 32.0295 16.0134 33.6924 16.1361C34.641 17.5423 35.545 18.982 36.4043 20.4551C37.2636 21.9282 38.0672 23.4349 38.8261 24.9638C38.0783 26.5039 37.2748 28.0217 36.4155 29.5171C35.5673 31.0014 34.6633 32.4411 33.7147 33.8696C32.0519 33.9923 30.322 34.0481 28.5699 34.0481C26.8178 34.0481 25.1214 33.9923 23.4809 33.8919C22.51 32.4745 21.5948 31.0237 20.7355 29.5394C19.8762 28.0551 19.0838 26.5485 18.3361 25.0084ZM38.4912 30.7224C39.0604 29.7403 39.5961 28.7471 40.1206 27.7427C40.8349 29.3609 41.4598 31.0014 42.0067 32.6866C40.2769 33.0772 38.5247 33.3785 36.7614 33.5794C37.3641 32.6419 37.9332 31.6822 38.4912 30.7224ZM40.0983 22.1849C39.5738 21.2028 39.0381 20.2207 38.4801 19.261C37.9332 18.3124 37.3641 17.3749 36.7726 16.4486C38.5694 16.6718 40.288 16.9731 41.8951 17.3414C41.3817 18.9931 40.7791 20.6002 40.0983 22.1849ZM28.5922 9.62979C29.764 10.902 30.8689 12.2413 31.8956 13.6251C29.6859 13.5247 27.4651 13.5247 25.2554 13.6251C26.349 12.1855 27.4762 10.8462 28.5922 9.62979ZM15.6465 2.78863C17.5214 1.69494 21.6841 3.25736 26.07 7.14108C26.349 7.3866 26.628 7.65445 26.9182 7.92229C25.1884 9.78603 23.5925 11.7725 22.1305 13.8483C19.6083 14.0715 17.1085 14.4621 14.6309 15.009C14.4858 14.4398 14.3631 13.8595 14.2403 13.2791C13.1913 7.87765 13.8832 3.8042 15.6465 2.78863ZM12.9123 32.2067C12.4435 32.0728 11.986 31.9277 11.5284 31.7715C9.1513 31.0237 6.45055 29.8408 4.49753 28.2895C3.37036 27.5083 2.61147 26.303 2.39943 24.9526C2.39943 22.9103 5.92602 20.2989 11.015 18.5244C11.6512 18.3012 12.2985 18.1003 12.9457 17.9106C13.7046 20.3323 14.6198 22.7094 15.68 25.0084C14.6086 27.3409 13.6823 29.7515 12.9123 32.2067ZM25.925 43.1436C24.0835 44.8288 21.952 46.168 19.6306 47.0831C18.3919 47.6746 16.9634 47.7304 15.6911 47.2282C13.9167 46.2015 13.1801 42.262 14.1845 36.9609C14.3073 36.3359 14.4412 35.711 14.5974 35.0972C17.0973 35.6329 19.6195 36.0011 22.1752 36.1909C23.6483 38.2778 25.2665 40.2755 26.9963 42.1504C26.6392 42.4963 26.2821 42.8311 25.925 43.1436ZM28.6592 40.4317C27.5209 39.2041 26.3825 37.8426 25.2777 36.3806C26.349 36.4252 27.4539 36.4476 28.5699 36.4476C29.7194 36.4476 30.8466 36.4252 31.9626 36.3694C30.9358 37.7868 29.831 39.1371 28.6592 40.4317ZM43.2455 43.7797C43.145 45.1413 42.4754 46.4135 41.404 47.2729C39.6296 48.2996 35.8463 46.9604 31.7617 43.4561C31.293 43.0543 30.8242 42.6191 30.3444 42.1727C32.0519 40.2866 33.6254 38.289 35.0539 36.1909C37.6096 35.9788 40.1541 35.5882 42.6651 35.0191C42.7767 35.4766 42.8772 35.9342 42.9665 36.3806C43.5133 38.7912 43.6026 41.3022 43.2455 43.7797ZM45.2766 31.7826C44.9641 31.8831 44.6516 31.9835 44.328 32.0728C43.5468 29.6399 42.587 27.2628 41.4822 24.9526C42.5535 22.676 43.4575 20.3323 44.2164 17.9329C44.7967 18.1003 45.3547 18.2789 45.8904 18.4574C51.091 20.2431 54.7404 22.8992 54.7404 24.9303C54.7404 27.1177 50.8455 29.9412 45.2766 31.7826ZM28.5699 30.1086C31.3934 30.1086 33.6812 27.8208 33.6812 24.9973C33.6812 22.1738 31.3934 19.8859 28.5699 19.8859C25.7464 19.8859 23.4586 22.1738 23.4586 24.9973C23.4586 27.8208 25.7464 30.1086 28.5699 30.1086Z" fill="#E7E7E7"/>
</svg>
