<svg width="58" height="86" viewBox="0 0 58 86" fill="none" xmlns="http://www.w3.org/2000/svg">
<path d="M46.6716 16.2031C46.069 16.0022 45.4663 15.8125 44.8637 15.6339C44.9641 15.221 45.0534 14.8081 45.1427 14.3952C46.5154 7.74373 45.6114 2.39803 42.5647 0.634731C39.6296 -1.05045 34.8419 0.701692 29.9984 4.92022C29.5185 5.33314 29.0498 5.76839 28.6034 6.20363C28.3021 5.91347 27.9896 5.6233 27.6771 5.3443C22.5992 0.835613 17.5102 -1.06161 14.4635 0.712852C11.5396 2.40919 10.6691 7.4424 11.8967 13.7367C12.0194 14.3617 12.1534 14.9755 12.3096 15.6004C11.5954 15.8013 10.8923 16.0245 10.2338 16.2589C4.27433 18.3235 0 21.5823 0 24.9526C0 28.4346 4.55333 31.9277 10.7472 34.0481C11.2494 34.2155 11.7516 34.3829 12.265 34.528C12.0976 35.1976 11.9525 35.8561 11.8186 36.5368C10.6468 42.7307 11.5619 47.6411 14.4858 49.3263C17.4991 51.0673 22.5658 49.2817 27.4985 44.9627C27.8891 44.6168 28.2797 44.2596 28.6703 43.8802C29.1614 44.3601 29.6748 44.8176 30.1881 45.264C34.9647 49.371 39.6854 51.0338 42.5982 49.3486C45.6114 47.6077 46.5935 42.3289 45.3212 35.9007C45.2208 35.4097 45.1092 34.9075 44.9864 34.3941C45.3436 34.2936 45.6895 34.182 46.0355 34.0704C52.4749 31.9389 57.1398 28.4904 57.1398 24.9526C57.1398 21.5711 52.7427 18.29 46.6716 16.2031ZM31.572 6.72816C35.7235 3.11228 39.5961 1.69494 41.3594 2.71051C43.2455 3.79304 43.9709 8.16781 42.7879 13.9153C42.7098 14.2947 42.6317 14.663 42.5312 15.0313C40.0537 14.4733 37.5426 14.0715 35.0205 13.8483C33.5696 11.7725 31.9849 9.78603 30.2662 7.92229C30.7015 7.50936 31.1256 7.11876 31.572 6.72816ZM18.6597 30.7447C19.2289 31.7157 19.8092 32.6866 20.423 33.6352C18.682 33.4455 16.9522 33.1665 15.2447 32.7982C15.7358 31.1911 16.3496 29.5283 17.0638 27.8319C17.5772 28.814 18.1017 29.785 18.6597 30.7447ZM15.2782 17.3191C16.8853 16.962 18.5928 16.6718 20.3672 16.4486C19.7757 17.3749 19.1954 18.3235 18.6486 19.2833C18.1017 20.2319 17.566 21.2028 17.0638 22.1849C16.3607 20.5221 15.7692 18.8927 15.2782 17.3191ZM18.3361 25.0084C19.0726 23.4683 19.8762 21.9617 20.7243 20.4774C21.5725 18.9931 22.4876 17.5535 23.4474 16.1361C25.1214 16.0134 26.8289 15.9464 28.5699 15.9464C30.3109 15.9464 32.0295 16.0134 33.6924 16.1361C34.641 17.5423 35.545 18.982 36.4043 20.4551C37.2636 21.9282 38.0672 23.4349 38.8261 24.9638C38.0783 26.5039 37.2748 28.0217 36.4155 29.5171C35.5673 31.0014 34.6633 32.4411 33.7147 33.8696C32.0519 33.9923 30.322 34.0481 28.5699 34.0481C26.8178 34.0481 25.1214 33.9923 23.4809 33.8919C22.51 32.4745 21.5948 31.0237 20.7355 29.5394C19.8762 28.0551 19.0838 26.5485 18.3361 25.0084ZM38.4912 30.7224C39.0604 29.7403 39.5961 28.7471 40.1206 27.7427C40.8349 29.3609 41.4598 31.0014 42.0067 32.6866C40.2769 33.0772 38.5247 33.3785 36.7614 33.5794C37.3641 32.6419 37.9332 31.6822 38.4912 30.7224ZM40.0983 22.1849C39.5738 21.2028 39.0381 20.2207 38.4801 19.261C37.9332 18.3124 37.3641 17.3749 36.7726 16.4486C38.5694 16.6718 40.288 16.9731 41.8951 17.3414C41.3817 18.9931 40.7791 20.6002 40.0983 22.1849ZM28.5922 9.62979C29.764 10.902 30.8689 12.2413 31.8956 13.6251C29.6859 13.5247 27.4651 13.5247 25.2553 13.6251C26.349 12.1855 27.4762 10.8462 28.5922 9.62979ZM15.6465 2.78863C17.5214 1.69494 21.6841 3.25736 26.07 7.14108C26.349 7.3866 26.628 7.65445 26.9182 7.92229C25.1884 9.78603 23.5925 11.7725 22.1305 13.8483C19.6083 14.0715 17.1085 14.4621 14.6309 15.009C14.4858 14.4398 14.3631 13.8595 14.2403 13.2791C13.1913 7.87765 13.8832 3.8042 15.6465 2.78863ZM12.9123 32.2067C12.4435 32.0728 11.986 31.9277 11.5284 31.7715C9.1513 31.0237 6.45055 29.8408 4.49753 28.2895C3.37036 27.5083 2.61147 26.303 2.39943 24.9526C2.39943 22.9103 5.92602 20.2989 11.015 18.5244C11.6512 18.3012 12.2985 18.1003 12.9457 17.9106C13.7046 20.3323 14.6198 22.7094 15.68 25.0084C14.6086 27.3409 13.6823 29.7515 12.9123 32.2067ZM25.925 43.1436C24.0835 44.8288 21.952 46.168 19.6306 47.0831C18.3919 47.6746 16.9634 47.7304 15.6911 47.2282C13.9167 46.2015 13.1801 42.262 14.1845 36.9609C14.3073 36.3359 14.4412 35.711 14.5974 35.0972C17.0973 35.6329 19.6195 36.0011 22.1752 36.1909C23.6483 38.2778 25.2665 40.2755 26.9963 42.1504C26.6392 42.4963 26.2821 42.8311 25.925 43.1436ZM28.6592 40.4317C27.5209 39.2041 26.3825 37.8426 25.2777 36.3806C26.349 36.4252 27.4539 36.4476 28.5699 36.4476C29.7194 36.4476 30.8466 36.4252 31.9626 36.3694C30.9358 37.7868 29.831 39.1371 28.6592 40.4317ZM43.2455 43.7797C43.145 45.1413 42.4754 46.4135 41.404 47.2729C39.6296 48.2996 35.8463 46.9604 31.7617 43.4561C31.293 43.0543 30.8242 42.6191 30.3444 42.1727C32.0519 40.2866 33.6254 38.289 35.0539 36.1909C37.6096 35.9788 40.1541 35.5882 42.6651 35.0191C42.7767 35.4766 42.8772 35.9342 42.9665 36.3806C43.5133 38.7912 43.6026 41.3022 43.2455 43.7797ZM45.2766 31.7826C44.9641 31.8831 44.6516 31.9835 44.328 32.0728C43.5468 29.6399 42.587 27.2628 41.4822 24.9526C42.5535 22.676 43.4575 20.3323 44.2164 17.9329C44.7967 18.1003 45.3547 18.2789 45.8904 18.4574C51.091 20.2431 54.7404 22.8992 54.7404 24.9303C54.7404 27.1177 50.8455 29.9412 45.2766 31.7826ZM28.5699 30.1086C31.3934 30.1086 33.6812 27.8208 33.6812 24.9973C33.6812 22.1738 31.3934 19.8859 28.5699 19.8859C25.7464 19.8859 23.4586 22.1738 23.4586 24.9973C23.4586 27.8208 25.7464 30.1086 28.5699 30.1086Z" fill="#E7E7E7"/>
<path d="M7.12287 81C6.9362 81 6.78954 80.94 6.68287 80.82C6.5762 80.7 6.52287 80.56 6.52287 80.4V71.44C6.52287 71.28 6.5762 71.14 6.68287 71.02C6.80287 70.9 6.94954 70.84 7.12287 70.84C7.2962 70.84 7.4362 70.9 7.54287 71.02C7.66287 71.14 7.72287 71.28 7.72287 71.44V74.44L7.42287 74.5C7.46287 74.0333 7.5762 73.5733 7.76287 73.12C7.96287 72.6533 8.22954 72.2267 8.56287 71.84C8.8962 71.4533 9.28954 71.14 9.74287 70.9C10.2095 70.66 10.7295 70.54 11.3029 70.54C11.5429 70.54 11.7762 70.5933 12.0029 70.7C12.2295 70.7933 12.3429 70.9533 12.3429 71.18C12.3429 71.38 12.2895 71.5333 12.1829 71.64C12.0762 71.7467 11.9495 71.8 11.8029 71.8C11.6829 71.8 11.5495 71.7667 11.4029 71.7C11.2695 71.6333 11.0895 71.6 10.8629 71.6C10.4895 71.6 10.1162 71.7133 9.74287 71.94C9.36954 72.1533 9.02954 72.4467 8.72287 72.82C8.4162 73.1933 8.16954 73.6133 7.98287 74.08C7.80954 74.5333 7.72287 74.9933 7.72287 75.46V80.4C7.72287 80.56 7.66287 80.7 7.54287 80.82C7.42287 80.94 7.28287 81 7.12287 81ZM18.389 81.2C17.3623 81.2 16.4556 80.98 15.669 80.54C14.8823 80.1 14.269 79.4867 13.829 78.7C13.389 77.9133 13.169 76.9933 13.169 75.94C13.169 74.8067 13.389 73.84 13.829 73.04C14.2823 72.24 14.8623 71.6267 15.569 71.2C16.289 70.76 17.049 70.54 17.849 70.54C18.4356 70.54 19.0023 70.6467 19.549 70.86C20.109 71.06 20.6023 71.3667 21.029 71.78C21.469 72.18 21.8156 72.6733 22.069 73.26C22.3356 73.8467 22.4823 74.5267 22.509 75.3C22.4956 75.46 22.429 75.6 22.309 75.72C22.189 75.8267 22.049 75.88 21.889 75.88H13.869L13.629 74.8H21.509L21.249 75.04V74.64C21.1956 74.0133 20.9956 73.48 20.649 73.04C20.3023 72.6 19.8823 72.2667 19.389 72.04C18.8956 71.8133 18.3823 71.7 17.849 71.7C17.449 71.7 17.0356 71.78 16.609 71.94C16.1956 72.1 15.8156 72.3533 15.469 72.7C15.1356 73.0333 14.8623 73.4667 14.649 74C14.4356 74.52 14.329 75.14 14.329 75.86C14.329 76.6467 14.489 77.36 14.809 78C15.129 78.64 15.589 79.1467 16.189 79.52C16.8023 79.8933 17.529 80.08 18.369 80.08C18.8356 80.08 19.2556 80.0133 19.629 79.88C20.0023 79.7467 20.329 79.5733 20.609 79.36C20.889 79.1333 21.1223 78.9 21.309 78.66C21.4556 78.54 21.6023 78.48 21.749 78.48C21.8823 78.48 21.9956 78.5333 22.089 78.64C22.1956 78.7467 22.249 78.8667 22.249 79C22.249 79.16 22.1823 79.3 22.049 79.42C21.649 79.9 21.129 80.32 20.489 80.68C19.849 81.0267 19.149 81.2 18.389 81.2ZM33.5357 70.78C33.709 70.78 33.849 70.84 33.9557 70.96C34.0757 71.08 34.1357 71.2267 34.1357 71.4V80.4C34.1357 80.56 34.0757 80.7 33.9557 80.82C33.8357 80.94 33.6957 81 33.5357 81C33.3624 81 33.2157 80.94 33.0957 80.82C32.989 80.7 32.9357 80.56 32.9357 80.4V78.02L33.2757 77.86C33.2757 78.2333 33.169 78.6133 32.9557 79C32.7557 79.3867 32.4757 79.7467 32.1157 80.08C31.7557 80.4133 31.329 80.6867 30.8357 80.9C30.3557 81.1 29.8357 81.2 29.2757 81.2C28.369 81.2 27.5557 80.9667 26.8357 80.5C26.129 80.0333 25.569 79.3933 25.1557 78.58C24.7557 77.7667 24.5557 76.8533 24.5557 75.84C24.5557 74.8 24.7624 73.8867 25.1757 73.1C25.589 72.3 26.149 71.6733 26.8557 71.22C27.5624 70.7667 28.3624 70.54 29.2557 70.54C29.829 70.54 30.3624 70.64 30.8557 70.84C31.3624 71.04 31.8024 71.3133 32.1757 71.66C32.549 72.0067 32.8357 72.4067 33.0357 72.86C33.249 73.3 33.3557 73.76 33.3557 74.24L32.9357 73.94V71.4C32.9357 71.2267 32.989 71.08 33.0957 70.96C33.2157 70.84 33.3624 70.78 33.5357 70.78ZM29.3757 80.08C30.0824 80.08 30.709 79.9 31.2557 79.54C31.8024 79.1667 32.229 78.66 32.5357 78.02C32.8557 77.3667 33.0157 76.64 33.0157 75.84C33.0157 75.0533 32.8557 74.3467 32.5357 73.72C32.229 73.0933 31.8024 72.5933 31.2557 72.22C30.709 71.8467 30.0824 71.66 29.3757 71.66C28.6824 71.66 28.0557 71.84 27.4957 72.2C26.949 72.56 26.5157 73.0533 26.1957 73.68C25.889 74.3067 25.7357 75.0267 25.7357 75.84C25.7357 76.64 25.889 77.3667 26.1957 78.02C26.5157 78.66 26.949 79.1667 27.4957 79.54C28.0424 79.9 28.669 80.08 29.3757 80.08ZM41.7846 70.54C42.4246 70.54 43.0113 70.6133 43.5446 70.76C44.0779 70.8933 44.5046 71.08 44.8246 71.32C45.1579 71.56 45.3246 71.82 45.3246 72.1C45.3246 72.2333 45.2779 72.3667 45.1846 72.5C45.0913 72.62 44.9646 72.68 44.8046 72.68C44.6446 72.68 44.5113 72.64 44.4046 72.56C44.3113 72.48 44.2113 72.3867 44.1046 72.28C44.0113 72.1733 43.8713 72.0733 43.6846 71.98C43.5113 71.9 43.2646 71.8267 42.9446 71.76C42.6246 71.6933 42.2579 71.66 41.8446 71.66C41.0979 71.66 40.4246 71.8467 39.8246 72.22C39.2246 72.5933 38.7513 73.1 38.4046 73.74C38.0579 74.3667 37.8846 75.0733 37.8846 75.86C37.8846 76.66 38.0513 77.38 38.3846 78.02C38.7179 78.66 39.1779 79.1667 39.7646 79.54C40.3513 79.9 41.0379 80.08 41.8246 80.08C42.3579 80.08 42.7713 80.0333 43.0646 79.94C43.3579 79.8467 43.6113 79.74 43.8246 79.62C44.0779 79.4733 44.2579 79.3333 44.3646 79.2C44.4846 79.0533 44.6379 78.98 44.8246 78.98C44.9979 78.98 45.1246 79.0333 45.2046 79.14C45.2979 79.2333 45.3446 79.36 45.3446 79.52C45.3446 79.7333 45.1846 79.9733 44.8646 80.24C44.5579 80.4933 44.1313 80.72 43.5846 80.92C43.0379 81.1067 42.4113 81.2 41.7046 81.2C40.7046 81.2 39.8246 80.9667 39.0646 80.5C38.3179 80.0333 37.7313 79.4 37.3046 78.6C36.8913 77.7867 36.6846 76.8733 36.6846 75.86C36.6846 74.8867 36.8979 74 37.3246 73.2C37.7513 72.4 38.3446 71.76 39.1046 71.28C39.8779 70.7867 40.7713 70.54 41.7846 70.54ZM46.9762 70.82H51.6362C51.7962 70.82 51.9295 70.88 52.0362 71C52.1428 71.1067 52.1962 71.24 52.1962 71.4C52.1962 71.5467 52.1428 71.6733 52.0362 71.78C51.9295 71.8867 51.7962 71.94 51.6362 71.94H46.9762C46.8162 71.94 46.6762 71.8867 46.5562 71.78C46.4495 71.66 46.3962 71.5267 46.3962 71.38C46.3962 71.22 46.4495 71.0867 46.5562 70.98C46.6762 70.8733 46.8162 70.82 46.9762 70.82ZM49.0362 68C49.2095 68 49.3495 68.06 49.4562 68.18C49.5762 68.3 49.6362 68.44 49.6362 68.6V78.64C49.6362 79.0133 49.6828 79.2933 49.7762 79.48C49.8828 79.6667 50.0162 79.7933 50.1762 79.86C50.3362 79.9133 50.4962 79.94 50.6562 79.94C50.7628 79.94 50.8562 79.9267 50.9362 79.9C51.0295 79.86 51.1295 79.84 51.2362 79.84C51.3562 79.84 51.4562 79.8867 51.5362 79.98C51.6295 80.0733 51.6762 80.1933 51.6762 80.34C51.6762 80.5267 51.5695 80.6867 51.3562 80.82C51.1428 80.94 50.8895 81 50.5962 81C50.4762 81 50.2962 80.9933 50.0562 80.98C49.8162 80.9533 49.5695 80.88 49.3162 80.76C49.0628 80.6267 48.8495 80.4 48.6762 80.08C48.5162 79.76 48.4362 79.3 48.4362 78.7V68.6C48.4362 68.44 48.4895 68.3 48.5962 68.18C48.7162 68.06 48.8628 68 49.0362 68Z" fill="white"/>
</svg>
