<svg width="99" height="86" viewBox="0 0 99 86" fill="none" xmlns="http://www.w3.org/2000/svg">
<path d="M21.7251 79.9836C21.6185 79.8236 21.5651 79.6703 21.5651 79.5236C21.5785 79.3636 21.6651 79.237 21.8251 79.1436C21.9318 79.0503 22.0518 79.0103 22.1851 79.0236C22.3318 79.037 22.4651 79.1036 22.5851 79.2236C22.9451 79.6903 23.3785 80.0703 23.8851 80.3636C24.4051 80.6436 25.0185 80.7836 25.7251 80.7836C26.0985 80.7836 26.4651 80.7236 26.8251 80.6036C27.1985 80.4703 27.5051 80.277 27.7451 80.0236C27.9851 79.757 28.1051 79.4236 28.1051 79.0236C28.1051 78.6103 27.9851 78.277 27.7451 78.0236C27.5051 77.7703 27.1918 77.5703 26.8051 77.4236C26.4318 77.277 26.0318 77.1503 25.6051 77.0436C25.1518 76.9236 24.7118 76.7903 24.2851 76.6436C23.8585 76.4836 23.4785 76.2903 23.1451 76.0636C22.8251 75.8236 22.5651 75.537 22.3651 75.2036C22.1651 74.8703 22.0651 74.4636 22.0651 73.9836C22.0651 73.4236 22.2185 72.9303 22.5251 72.5036C22.8318 72.077 23.2451 71.7436 23.7651 71.5036C24.2985 71.2636 24.8985 71.1436 25.5651 71.1436C25.8985 71.1436 26.2585 71.1903 26.6451 71.2836C27.0318 71.3636 27.4118 71.5036 27.7851 71.7036C28.1585 71.9036 28.4918 72.177 28.7851 72.5236C28.9051 72.6436 28.9651 72.7836 28.9651 72.9436C28.9651 73.0903 28.8985 73.2236 28.7651 73.3436C28.6585 73.4236 28.5318 73.4636 28.3851 73.4636C28.2518 73.4636 28.1385 73.4103 28.0451 73.3036C27.7251 72.9436 27.3451 72.6703 26.9051 72.4836C26.4651 72.297 25.9918 72.2036 25.4851 72.2036C25.0985 72.2036 24.7318 72.2703 24.3851 72.4036C24.0518 72.5236 23.7718 72.7103 23.5451 72.9636C23.3185 73.217 23.2051 73.5503 23.2051 73.9636C23.2318 74.3503 23.3651 74.6636 23.6051 74.9036C23.8585 75.1436 24.1851 75.3436 24.5851 75.5036C24.9985 75.6636 25.4585 75.8103 25.9651 75.9436C26.3918 76.0503 26.7985 76.177 27.1851 76.3236C27.5851 76.4703 27.9318 76.657 28.2251 76.8836C28.5318 77.097 28.7718 77.3703 28.9451 77.7036C29.1318 78.037 29.2251 78.457 29.2251 78.9636C29.2251 79.5503 29.0585 80.057 28.7251 80.4836C28.4051 80.9103 27.9718 81.237 27.4251 81.4636C26.8785 81.6903 26.2718 81.8036 25.6051 81.8036C24.8851 81.8036 24.1851 81.6636 23.5051 81.3836C22.8385 81.1036 22.2451 80.637 21.7251 79.9836ZM36.5401 71.3036C37.4468 71.3036 38.2468 71.5303 38.9401 71.9836C39.6468 72.4236 40.2068 73.037 40.6201 73.8236C41.0335 74.597 41.2401 75.4903 41.2401 76.5036C41.2401 77.517 41.0335 78.417 40.6201 79.2036C40.2068 79.9903 39.6468 80.6103 38.9401 81.0636C38.2335 81.517 37.4401 81.7436 36.5601 81.7436C36.0935 81.7436 35.6468 81.677 35.2201 81.5436C34.8068 81.397 34.4268 81.2036 34.0801 80.9636C33.7335 80.7236 33.4268 80.4436 33.1601 80.1236C32.8935 79.7903 32.6801 79.4303 32.5201 79.0436L32.8801 78.7836V85.0036C32.8801 85.1636 32.8201 85.3036 32.7001 85.4236C32.5935 85.5436 32.4535 85.6036 32.2801 85.6036C32.1068 85.6036 31.9601 85.5436 31.8401 85.4236C31.7335 85.3036 31.6801 85.1636 31.6801 85.0036V71.9636C31.6801 71.7903 31.7335 71.6436 31.8401 71.5236C31.9468 71.4036 32.0935 71.3436 32.2801 71.3436C32.4535 71.3436 32.5935 71.4036 32.7001 71.5236C32.8201 71.6436 32.8801 71.7903 32.8801 71.9636V74.1236L32.6001 73.9636C32.7335 73.5503 32.9268 73.1836 33.1801 72.8636C33.4468 72.5303 33.7535 72.2503 34.1001 72.0236C34.4468 71.7836 34.8268 71.6036 35.2401 71.4836C35.6535 71.3636 36.0868 71.3036 36.5401 71.3036ZM36.4401 72.4236C35.7201 72.4236 35.0868 72.6036 34.5401 72.9636C33.9935 73.3103 33.5601 73.7903 33.2401 74.4036C32.9335 75.0036 32.7801 75.7036 32.7801 76.5036C32.7801 77.2903 32.9335 77.997 33.2401 78.6236C33.5601 79.2503 33.9935 79.7436 34.5401 80.1036C35.0868 80.4503 35.7201 80.6236 36.4401 80.6236C37.1468 80.6236 37.7668 80.4503 38.3001 80.1036C38.8468 79.7436 39.2801 79.2503 39.6001 78.6236C39.9201 77.997 40.0801 77.2903 40.0801 76.5036C40.0801 75.717 39.9201 75.017 39.6001 74.4036C39.2801 73.7903 38.8468 73.3103 38.3001 72.9636C37.7668 72.6036 37.1468 72.4236 36.4401 72.4236ZM44.409 81.6036C44.2224 81.6036 44.0757 81.5436 43.969 81.4236C43.8624 81.3036 43.809 81.1636 43.809 81.0036V72.0436C43.809 71.8836 43.8624 71.7436 43.969 71.6236C44.089 71.5036 44.2357 71.4436 44.409 71.4436C44.5824 71.4436 44.7224 71.5036 44.829 71.6236C44.949 71.7436 45.009 71.8836 45.009 72.0436V75.0436L44.709 75.1036C44.749 74.637 44.8624 74.177 45.049 73.7236C45.249 73.257 45.5157 72.8303 45.849 72.4436C46.1824 72.057 46.5757 71.7436 47.029 71.5036C47.4957 71.2636 48.0157 71.1436 48.589 71.1436C48.829 71.1436 49.0624 71.197 49.289 71.3036C49.5157 71.397 49.629 71.557 49.629 71.7836C49.629 71.9836 49.5757 72.137 49.469 72.2436C49.3624 72.3503 49.2357 72.4036 49.089 72.4036C48.969 72.4036 48.8357 72.3703 48.689 72.3036C48.5557 72.237 48.3757 72.2036 48.149 72.2036C47.7757 72.2036 47.4024 72.317 47.029 72.5436C46.6557 72.757 46.3157 73.0503 46.009 73.4236C45.7024 73.797 45.4557 74.217 45.269 74.6836C45.0957 75.137 45.009 75.597 45.009 76.0636V81.0036C45.009 81.1636 44.949 81.3036 44.829 81.4236C44.709 81.5436 44.569 81.6036 44.409 81.6036ZM52.6643 81.0036C52.6643 81.1636 52.6043 81.3036 52.4843 81.4236C52.3643 81.5436 52.2243 81.6036 52.0643 81.6036C51.891 81.6036 51.7443 81.5436 51.6243 81.4236C51.5177 81.3036 51.4643 81.1636 51.4643 81.0036V71.8036C51.4643 71.6436 51.5177 71.5036 51.6243 71.3836C51.7443 71.2636 51.891 71.2036 52.0643 71.2036C52.2377 71.2036 52.3777 71.2636 52.4843 71.3836C52.6043 71.5036 52.6643 71.6436 52.6643 71.8036V81.0036ZM52.0643 69.8636C51.7843 69.8636 51.571 69.8036 51.4243 69.6836C51.291 69.5503 51.2243 69.3636 51.2243 69.1236V68.9236C51.2243 68.6836 51.2977 68.5036 51.4443 68.3836C51.6043 68.2503 51.8177 68.1836 52.0843 68.1836C52.3377 68.1836 52.531 68.2503 52.6643 68.3836C52.811 68.5036 52.8843 68.6836 52.8843 68.9236V69.1236C52.8843 69.3636 52.811 69.5503 52.6643 69.6836C52.531 69.8036 52.331 69.8636 52.0643 69.8636ZM60.6017 71.1436C61.4817 71.1436 62.1817 71.3236 62.7017 71.6836C63.235 72.0303 63.615 72.5103 63.8417 73.1236C64.0817 73.7236 64.2017 74.3903 64.2017 75.1236V81.0036C64.2017 81.1636 64.1417 81.3036 64.0217 81.4236C63.9017 81.5436 63.7617 81.6036 63.6017 81.6036C63.415 81.6036 63.2684 81.5436 63.1617 81.4236C63.055 81.3036 63.0017 81.1636 63.0017 81.0036V75.1836C63.0017 74.6503 62.915 74.1636 62.7417 73.7236C62.5684 73.2836 62.2817 72.9303 61.8817 72.6636C61.495 72.397 60.9817 72.2636 60.3417 72.2636C59.7684 72.2636 59.2217 72.397 58.7017 72.6636C58.195 72.9303 57.7817 73.2836 57.4617 73.7236C57.1417 74.1636 56.9817 74.6503 56.9817 75.1836V81.0036C56.9817 81.1636 56.9217 81.3036 56.8017 81.4236C56.6817 81.5436 56.5417 81.6036 56.3817 81.6036C56.195 81.6036 56.0484 81.5436 55.9417 81.4236C55.835 81.3036 55.7817 81.1636 55.7817 81.0036V72.0436C55.7817 71.8836 55.835 71.7436 55.9417 71.6236C56.0617 71.5036 56.2084 71.4436 56.3817 71.4436C56.555 71.4436 56.695 71.5036 56.8017 71.6236C56.9217 71.7436 56.9817 71.8836 56.9817 72.0436V73.7236L56.5217 74.4436C56.5484 74.017 56.6817 73.6103 56.9217 73.2236C57.175 72.8236 57.495 72.4703 57.8817 72.1636C58.2684 71.8436 58.695 71.597 59.1617 71.4236C59.6417 71.237 60.1217 71.1436 60.6017 71.1436ZM71.6042 71.1436C72.2042 71.1436 72.7575 71.2503 73.2642 71.4636C73.7709 71.6636 74.2109 71.9303 74.5842 72.2636C74.9709 72.5836 75.2709 72.9303 75.4842 73.3036C75.6975 73.6636 75.8042 74.0103 75.8042 74.3436L75.4642 73.8636V72.0036C75.4642 71.8303 75.5175 71.6836 75.6242 71.5636C75.7442 71.4436 75.8909 71.3836 76.0642 71.3836C76.2509 71.3836 76.3975 71.4436 76.5042 71.5636C76.6109 71.6836 76.6642 71.8303 76.6642 72.0036V80.6636C76.6642 81.7303 76.4442 82.6303 76.0042 83.3636C75.5642 84.097 74.9642 84.6503 74.2042 85.0236C73.4575 85.4103 72.6042 85.6036 71.6442 85.6036C71.1775 85.6036 70.6842 85.5436 70.1642 85.4236C69.6575 85.3036 69.2175 85.1503 68.8442 84.9636C68.4842 84.777 68.2842 84.5836 68.2442 84.3836C68.1375 84.2636 68.0842 84.1436 68.0842 84.0236C68.0975 83.917 68.1575 83.8236 68.2642 83.7436C68.3975 83.6503 68.5375 83.637 68.6842 83.7036C68.8309 83.7836 69.0509 83.8836 69.3442 84.0036C69.4775 84.0436 69.6575 84.1036 69.8842 84.1836C70.1109 84.2636 70.3775 84.3303 70.6842 84.3836C71.0042 84.4503 71.3375 84.4836 71.6842 84.4836C72.8842 84.4836 73.8109 84.137 74.4642 83.4436C75.1309 82.7636 75.4642 81.8636 75.4642 80.7436V78.8236L75.6842 78.8836C75.5642 79.3636 75.3642 79.7836 75.0842 80.1436C74.8175 80.5036 74.4975 80.8103 74.1242 81.0636C73.7509 81.3036 73.3442 81.4836 72.9042 81.6036C72.4775 81.737 72.0509 81.8036 71.6242 81.8036C70.7042 81.8036 69.8775 81.5703 69.1442 81.1036C68.4109 80.637 67.8242 80.0036 67.3842 79.2036C66.9575 78.4036 66.7442 77.4903 66.7442 76.4636C66.7442 75.4503 66.9575 74.5436 67.3842 73.7436C67.8242 72.9303 68.4042 72.297 69.1242 71.8436C69.8575 71.377 70.6842 71.1436 71.6042 71.1436ZM71.7442 72.2636C71.0109 72.2636 70.3509 72.4503 69.7642 72.8236C69.1909 73.1836 68.7375 73.6836 68.4042 74.3236C68.0842 74.9503 67.9242 75.6636 67.9242 76.4636C67.9242 77.2636 68.0842 77.9836 68.4042 78.6236C68.7375 79.2636 69.1909 79.7703 69.7642 80.1436C70.3509 80.5036 71.0109 80.6836 71.7442 80.6836C72.4775 80.6836 73.1309 80.5036 73.7042 80.1436C74.2775 79.7836 74.7309 79.2903 75.0642 78.6636C75.3975 78.0236 75.5642 77.2903 75.5642 76.4636C75.5642 75.637 75.3975 74.9103 75.0642 74.2836C74.7309 73.6436 74.2775 73.1503 73.7042 72.8036C73.1309 72.4436 72.4775 72.2636 71.7442 72.2636Z" fill="white"/>
<mask id="mask0_21_198" style="mask-type:alpha" maskUnits="userSpaceOnUse" x="21" y="0" width="56" height="50">
<rect x="21" width="55.5556" height="50" fill="#D9D9D9"/>
</mask>
<g mask="url(#mask0_21_198)">
<path d="M68.8117 35.9903C62.6518 44.1976 49.4934 41.4272 41.0571 41.8257C41.0571 41.8257 39.5636 41.9088 38.0594 42.1564C38.0594 42.1564 38.6282 41.9138 39.3536 41.6637C45.2788 39.6147 48.0789 39.2029 51.6792 37.3536C58.4438 33.8884 65.1762 26.3404 66.5461 18.4994C63.9712 26.0407 56.1401 32.5313 49.0097 35.1669C44.1291 36.9679 35.3031 38.7206 35.3018 38.7213C35.306 38.7276 34.9501 38.5366 34.9451 38.5325C28.9427 35.6121 28.7695 22.6119 39.671 18.4213C44.4507 16.5827 49.0226 17.5926 54.1896 16.3627C59.7005 15.0525 66.0831 10.9217 68.6774 5.52113C71.5857 14.1476 75.0795 27.6438 68.8117 35.9903ZM68.9188 2.848C68.1854 4.59023 67.2905 6.16017 66.2588 7.56441C61.7176 2.90377 55.3792 -3.74735e-05 48.3731 -3.74735e-05C34.5917 -3.74735e-05 23.381 11.2119 23.381 24.9909C23.381 32.2142 26.4642 38.7289 31.3799 43.2952L31.9272 43.7801C31.0133 43.0348 30.8727 41.6926 31.6135 40.7779C32.3587 39.8627 33.7022 39.7209 34.6165 40.462C35.5334 41.2049 35.673 42.5503 34.9307 43.4668C34.1911 44.3836 32.8453 44.5221 31.9297 43.7822L32.3021 44.112C36.6503 47.7731 42.2554 49.9846 48.3731 49.9846C61.5461 49.9846 72.3629 39.7333 73.2888 26.7944C73.9745 20.4591 72.1033 12.4148 68.9188 2.848Z" fill="#E7E7E7"/>
</g>
</svg>
