<svg width="56" height="50" viewBox="0 0 56 50" fill="none" xmlns="http://www.w3.org/2000/svg">
<mask id="mask0_21_231" style="mask-type:alpha" maskUnits="userSpaceOnUse" x="0" y="0" width="56" height="50">
<rect width="55.5556" height="50" fill="#D9D9D9"/>
</mask>
<g mask="url(#mask0_21_231)">
<path d="M47.8117 35.9903C41.6518 44.1976 28.4934 41.4272 20.0571 41.8257C20.0571 41.8257 18.5636 41.9088 17.0594 42.1564C17.0594 42.1564 17.6282 41.9138 18.3536 41.6637C24.2788 39.6147 27.0789 39.2029 30.6792 37.3536C37.4438 33.8884 44.1762 26.3404 45.5461 18.4994C42.9712 26.0407 35.1401 32.5313 28.0097 35.1669C23.1291 36.9679 14.3031 38.7206 14.3018 38.7213C14.306 38.7276 13.9501 38.5366 13.9451 38.5324C7.94274 35.6121 7.76954 22.6119 18.671 18.4213C23.4507 16.5827 28.0226 17.5926 33.1896 16.3627C38.7005 15.0525 45.0831 10.9217 47.6774 5.52113C50.5857 14.1476 54.0795 27.6438 47.8117 35.9903ZM47.9188 2.848C47.1854 4.59023 46.2905 6.16018 45.2588 7.56441C40.7176 2.90377 34.3792 -3.8147e-05 27.3731 -3.8147e-05C13.5917 -3.8147e-05 2.38098 11.2119 2.38098 24.9909C2.38098 32.2143 5.46423 38.7289 10.3799 43.2952L10.9272 43.7801C10.0133 43.0348 9.87272 41.6926 10.6135 40.7779C11.3587 39.8627 12.7022 39.7209 13.6165 40.462C14.5334 41.2049 14.673 42.5503 13.9307 43.4668C13.1911 44.3836 11.8453 44.5221 10.9297 43.7822L11.3021 44.112C15.6503 47.7731 21.2554 49.9846 27.3731 49.9846C40.5461 49.9846 51.3629 39.7333 52.2888 26.7944C52.9745 20.4591 51.1033 12.4148 47.9188 2.848Z" fill="#E7E7E7"/>
</g>
</svg>
