<svg width="51" height="86" viewBox="0 0 51 86" fill="none" xmlns="http://www.w3.org/2000/svg">
<path d="M1.92006 70.82H6.58006C6.74006 70.82 6.87339 70.88 6.98006 71C7.08673 71.1067 7.14006 71.24 7.14006 71.4C7.14006 71.5467 7.08673 71.6733 6.98006 71.78C6.87339 71.8867 6.74006 71.94 6.58006 71.94H1.92006C1.76006 71.94 1.62006 71.8867 1.50006 71.78C1.39339 71.66 1.34006 71.5267 1.34006 71.38C1.34006 71.22 1.39339 71.0867 1.50006 70.98C1.62006 70.8733 1.76006 70.82 1.92006 70.82ZM3.98006 68C4.15339 68 4.29339 68.06 4.40006 68.18C4.52006 68.3 4.58006 68.44 4.58006 68.6V78.64C4.58006 79.0133 4.62673 79.2933 4.72006 79.48C4.82673 79.6667 4.96006 79.7933 5.12006 79.86C5.28006 79.9133 5.44006 79.94 5.60006 79.94C5.70673 79.94 5.80006 79.9267 5.88006 79.9C5.97339 79.86 6.07339 79.84 6.18006 79.84C6.30006 79.84 6.40006 79.8867 6.48006 79.98C6.57339 80.0733 6.62006 80.1933 6.62006 80.34C6.62006 80.5267 6.51339 80.6867 6.30006 80.82C6.08673 80.94 5.83339 81 5.54006 81C5.42006 81 5.24006 80.9933 5.00006 80.98C4.76006 80.9533 4.51339 80.88 4.26006 80.76C4.00673 80.6267 3.79339 80.4 3.62006 80.08C3.46006 79.76 3.38006 79.3 3.38006 78.7V68.6C3.38006 68.44 3.43339 68.3 3.54006 68.18C3.66006 68.06 3.80673 68 3.98006 68ZM9.9574 81C9.77074 81 9.62407 80.94 9.5174 80.82C9.41074 80.7 9.3574 80.56 9.3574 80.4V71.44C9.3574 71.28 9.41074 71.14 9.5174 71.02C9.6374 70.9 9.78407 70.84 9.9574 70.84C10.1307 70.84 10.2707 70.9 10.3774 71.02C10.4974 71.14 10.5574 71.28 10.5574 71.44V74.44L10.2574 74.5C10.2974 74.0333 10.4107 73.5733 10.5974 73.12C10.7974 72.6533 11.0641 72.2267 11.3974 71.84C11.7307 71.4533 12.1241 71.14 12.5774 70.9C13.0441 70.66 13.5641 70.54 14.1374 70.54C14.3774 70.54 14.6107 70.5933 14.8374 70.7C15.0641 70.7933 15.1774 70.9533 15.1774 71.18C15.1774 71.38 15.1241 71.5333 15.0174 71.64C14.9107 71.7467 14.7841 71.8 14.6374 71.8C14.5174 71.8 14.3841 71.7667 14.2374 71.7C14.1041 71.6333 13.9241 71.6 13.6974 71.6C13.3241 71.6 12.9507 71.7133 12.5774 71.94C12.2041 72.1533 11.8641 72.4467 11.5574 72.82C11.2507 73.1933 11.0041 73.6133 10.8174 74.08C10.6441 74.5333 10.5574 74.9933 10.5574 75.46V80.4C10.5574 80.56 10.4974 80.7 10.3774 80.82C10.2574 80.94 10.1174 81 9.9574 81ZM21.2235 81.2C20.1968 81.2 19.2902 80.98 18.5035 80.54C17.7168 80.1 17.1035 79.4867 16.6635 78.7C16.2235 77.9133 16.0035 76.9933 16.0035 75.94C16.0035 74.8067 16.2235 73.84 16.6635 73.04C17.1168 72.24 17.6968 71.6267 18.4035 71.2C19.1235 70.76 19.8835 70.54 20.6835 70.54C21.2702 70.54 21.8368 70.6467 22.3835 70.86C22.9435 71.06 23.4368 71.3667 23.8635 71.78C24.3035 72.18 24.6502 72.6733 24.9035 73.26C25.1702 73.8467 25.3168 74.5267 25.3435 75.3C25.3302 75.46 25.2635 75.6 25.1435 75.72C25.0235 75.8267 24.8835 75.88 24.7235 75.88H16.7035L16.4635 74.8H24.3435L24.0835 75.04V74.64C24.0302 74.0133 23.8302 73.48 23.4835 73.04C23.1368 72.6 22.7168 72.2667 22.2235 72.04C21.7302 71.8133 21.2168 71.7 20.6835 71.7C20.2835 71.7 19.8702 71.78 19.4435 71.94C19.0302 72.1 18.6502 72.3533 18.3035 72.7C17.9702 73.0333 17.6968 73.4667 17.4835 74C17.2702 74.52 17.1635 75.14 17.1635 75.86C17.1635 76.6467 17.3235 77.36 17.6435 78C17.9635 78.64 18.4235 79.1467 19.0235 79.52C19.6368 79.8933 20.3635 80.08 21.2035 80.08C21.6702 80.08 22.0902 80.0133 22.4635 79.88C22.8368 79.7467 23.1635 79.5733 23.4435 79.36C23.7235 79.1333 23.9568 78.9 24.1435 78.66C24.2902 78.54 24.4368 78.48 24.5835 78.48C24.7168 78.48 24.8302 78.5333 24.9235 78.64C25.0302 78.7467 25.0835 78.8667 25.0835 79C25.0835 79.16 25.0168 79.3 24.8835 79.42C24.4835 79.9 23.9635 80.32 23.3235 80.68C22.6835 81.0267 21.9835 81.2 21.2235 81.2ZM29.2321 80.4C29.2321 80.56 29.1721 80.7 29.0521 80.82C28.9321 80.94 28.7921 81 28.6321 81C28.4588 81 28.3121 80.94 28.1921 80.82C28.0854 80.7 28.0321 80.56 28.0321 80.4V66.8C28.0321 66.64 28.0921 66.5 28.2121 66.38C28.3321 66.26 28.4721 66.2 28.6321 66.2C28.8054 66.2 28.9454 66.26 29.0521 66.38C29.1721 66.5 29.2321 66.64 29.2321 66.8V80.4ZM33.8415 80.4C33.8415 80.56 33.7815 80.7 33.6615 80.82C33.5415 80.94 33.4015 81 33.2415 81C33.0681 81 32.9215 80.94 32.8015 80.82C32.6948 80.7 32.6415 80.56 32.6415 80.4V66.8C32.6415 66.64 32.7015 66.5 32.8215 66.38C32.9415 66.26 33.0815 66.2 33.2415 66.2C33.4148 66.2 33.5548 66.26 33.6615 66.38C33.7815 66.5 33.8415 66.64 33.8415 66.8V80.4ZM46.4555 75.88C46.4555 76.8933 46.2355 77.8067 45.7955 78.62C45.3555 79.42 44.7555 80.0533 43.9955 80.52C43.2355 80.9733 42.3689 81.2 41.3955 81.2C40.4489 81.2 39.5889 80.9733 38.8155 80.52C38.0555 80.0533 37.4489 79.42 36.9955 78.62C36.5555 77.8067 36.3355 76.8933 36.3355 75.88C36.3355 74.8533 36.5555 73.94 36.9955 73.14C37.4489 72.34 38.0555 71.7067 38.8155 71.24C39.5889 70.7733 40.4489 70.54 41.3955 70.54C42.3689 70.54 43.2355 70.7733 43.9955 71.24C44.7555 71.7067 45.3555 72.34 45.7955 73.14C46.2355 73.94 46.4555 74.8533 46.4555 75.88ZM45.2555 75.88C45.2555 75.0667 45.0889 74.3467 44.7555 73.72C44.4222 73.08 43.9622 72.58 43.3755 72.22C42.8022 71.8467 42.1422 71.66 41.3955 71.66C40.6755 71.66 40.0222 71.8467 39.4355 72.22C38.8489 72.58 38.3822 73.08 38.0355 73.72C37.7022 74.3467 37.5355 75.0667 37.5355 75.88C37.5355 76.6933 37.7022 77.4133 38.0355 78.04C38.3822 78.6667 38.8489 79.1667 39.4355 79.54C40.0222 79.9 40.6755 80.08 41.3955 80.08C42.1422 80.08 42.8022 79.9 43.3755 79.54C43.9622 79.1667 44.4222 78.6667 44.7555 78.04C45.0889 77.4133 45.2555 76.6933 45.2555 75.88Z" fill="white"/>
<g opacity="0.7">
<path fill-rule="evenodd" clip-rule="evenodd" d="M44.5341 0H6.41347C3.13404 0 0.474304 2.65787 0.469836 5.9394V44.0285C0.463494 45.6101 1.08687 47.129 2.2022 48.2495C3.31753 49.3701 4.83296 50 6.41347 50H44.5341C46.1132 49.9979 47.6266 49.367 48.7402 48.2467C49.8538 47.1264 50.4761 45.6087 50.4697 44.0285V5.9394C50.4653 2.66099 47.8104 0.00441537 44.5341 0V0ZM22.0334 36.0131C22.0313 36.5417 21.8189 37.0477 21.4431 37.4193C21.0673 37.7908 20.5591 37.9972 20.0308 37.993H11.7002C10.6106 37.9885 9.7297 37.1034 9.7297 36.0131V11.2055C9.7297 10.1152 10.6106 9.23013 11.7002 9.22571H20.0308C21.1217 9.23011 22.005 10.1139 22.0094 11.2055L22.0334 36.0131ZM41.2579 24.6233C41.2579 25.1525 41.0462 25.6598 40.67 26.0318C40.2937 26.4038 39.7843 26.6095 39.2554 26.6032H30.9247C29.8339 26.5987 28.9506 25.7149 28.9462 24.6233V11.2055C28.9506 10.1139 29.8339 9.23011 30.9247 9.22571H39.2554C40.345 9.23013 41.2259 10.1152 41.2259 11.2055L41.2579 24.6233Z" fill="#E7E7E7"/>
</g>
</svg>
