<svg width="68" height="95" viewBox="0 0 68 95" fill="none" xmlns="http://www.w3.org/2000/svg">
<path d="M19.4226 79.56C19.5293 79.56 19.636 79.5933 19.7426 79.66C19.8493 79.7267 19.9293 79.8267 19.9826 79.96L23.4826 88.28L23.2226 88.44L26.8026 79.96C26.9093 79.6933 27.1026 79.5667 27.3826 79.58C27.516 79.58 27.6426 79.6267 27.7626 79.72C27.8826 79.8 27.9426 79.92 27.9426 80.08C27.9426 80.16 27.9293 80.2267 27.9026 80.28C27.8893 80.32 27.876 80.3667 27.8626 80.42L23.9426 89.62C23.836 89.86 23.656 89.9867 23.4026 90C23.2826 90.0133 23.1626 89.9867 23.0426 89.92C22.936 89.84 22.856 89.74 22.8026 89.62L18.8626 80.42C18.8493 80.3933 18.836 80.3533 18.8226 80.3C18.8093 80.2467 18.8026 80.1933 18.8026 80.14C18.8026 79.9933 18.856 79.86 18.9626 79.74C19.0693 79.62 19.2226 79.56 19.4226 79.56ZM29.5709 88.38C29.4643 88.22 29.4109 88.0667 29.4109 87.92C29.4243 87.76 29.5109 87.6333 29.6709 87.54C29.7776 87.4467 29.8976 87.4067 30.0309 87.42C30.1776 87.4333 30.3109 87.5 30.4309 87.62C30.7909 88.0867 31.2243 88.4667 31.7309 88.76C32.2509 89.04 32.8643 89.18 33.5709 89.18C33.9443 89.18 34.3109 89.12 34.6709 89C35.0443 88.8667 35.3509 88.6733 35.5909 88.42C35.8309 88.1533 35.9509 87.82 35.9509 87.42C35.9509 87.0067 35.8309 86.6733 35.5909 86.42C35.3509 86.1667 35.0376 85.9667 34.6509 85.82C34.2776 85.6733 33.8776 85.5467 33.4509 85.44C32.9976 85.32 32.5576 85.1867 32.1309 85.04C31.7043 84.88 31.3243 84.6867 30.9909 84.46C30.6709 84.22 30.4109 83.9333 30.2109 83.6C30.0109 83.2667 29.9109 82.86 29.9109 82.38C29.9109 81.82 30.0643 81.3267 30.3709 80.9C30.6776 80.4733 31.0909 80.14 31.6109 79.9C32.1443 79.66 32.7443 79.54 33.4109 79.54C33.7443 79.54 34.1043 79.5867 34.4909 79.68C34.8776 79.76 35.2576 79.9 35.6309 80.1C36.0043 80.3 36.3376 80.5733 36.6309 80.92C36.7509 81.04 36.8109 81.18 36.8109 81.34C36.8109 81.4867 36.7443 81.62 36.6109 81.74C36.5043 81.82 36.3776 81.86 36.2309 81.86C36.0976 81.86 35.9843 81.8067 35.8909 81.7C35.5709 81.34 35.1909 81.0667 34.7509 80.88C34.3109 80.6933 33.8376 80.6 33.3309 80.6C32.9443 80.6 32.5776 80.6667 32.2309 80.8C31.8976 80.92 31.6176 81.1067 31.3909 81.36C31.1643 81.6133 31.0509 81.9467 31.0509 82.36C31.0776 82.7467 31.2109 83.06 31.4509 83.3C31.7043 83.54 32.0309 83.74 32.4309 83.9C32.8443 84.06 33.3043 84.2067 33.8109 84.34C34.2376 84.4467 34.6443 84.5733 35.0309 84.72C35.4309 84.8667 35.7776 85.0533 36.0709 85.28C36.3776 85.4933 36.6176 85.7667 36.7909 86.1C36.9776 86.4333 37.0709 86.8533 37.0709 87.36C37.0709 87.9467 36.9043 88.4533 36.5709 88.88C36.2509 89.3067 35.8176 89.6333 35.2709 89.86C34.7243 90.0867 34.1176 90.2 33.4509 90.2C32.7309 90.2 32.0309 90.06 31.3509 89.78C30.6843 89.5 30.0909 89.0333 29.5709 88.38ZM44.0259 79.54C44.6659 79.54 45.2526 79.6133 45.7859 79.76C46.3193 79.8933 46.7459 80.08 47.0659 80.32C47.3993 80.56 47.5659 80.82 47.5659 81.1C47.5659 81.2333 47.5193 81.3667 47.4259 81.5C47.3326 81.62 47.2059 81.68 47.0459 81.68C46.8859 81.68 46.7526 81.64 46.6459 81.56C46.5526 81.48 46.4526 81.3867 46.3459 81.28C46.2526 81.1733 46.1126 81.0733 45.9259 80.98C45.7526 80.9 45.5059 80.8267 45.1859 80.76C44.8659 80.6933 44.4993 80.66 44.0859 80.66C43.3393 80.66 42.6659 80.8467 42.0659 81.22C41.4659 81.5933 40.9926 82.1 40.6459 82.74C40.2993 83.3667 40.1259 84.0733 40.1259 84.86C40.1259 85.66 40.2926 86.38 40.6259 87.02C40.9593 87.66 41.4193 88.1667 42.0059 88.54C42.5926 88.9 43.2793 89.08 44.0659 89.08C44.5993 89.08 45.0126 89.0333 45.3059 88.94C45.5993 88.8467 45.8526 88.74 46.0659 88.62C46.3193 88.4733 46.4993 88.3333 46.6059 88.2C46.7259 88.0533 46.8793 87.98 47.0659 87.98C47.2393 87.98 47.3659 88.0333 47.4459 88.14C47.5393 88.2333 47.5859 88.36 47.5859 88.52C47.5859 88.7333 47.4259 88.9733 47.1059 89.24C46.7993 89.4933 46.3726 89.72 45.8259 89.92C45.2793 90.1067 44.6526 90.2 43.9459 90.2C42.9459 90.2 42.0659 89.9667 41.3059 89.5C40.5593 89.0333 39.9726 88.4 39.5459 87.6C39.1326 86.7867 38.9259 85.8733 38.9259 84.86C38.9259 83.8867 39.1393 83 39.5659 82.2C39.9926 81.4 40.5859 80.76 41.3459 80.28C42.1193 79.7867 43.0126 79.54 44.0259 79.54Z" fill="white"/>
<path d="M57.3511 14.2965L46.9955 9.31045C45.7968 8.73331 44.3643 8.97676 43.4236 9.91747L9.52311 40.8268C8.61127 41.6581 8.61232 43.0937 9.52537 43.9237L12.2945 46.4411C13.0409 47.1197 14.1651 47.1697 14.9688 46.56L55.7928 15.59C57.1624 14.551 59.1296 15.5278 59.1296 17.2469V17.1267C59.1296 15.92 58.4383 14.82 57.3511 14.2965Z" fill="#ADADAD"/>
<g filter="url(#filter0_d_2_594)">
<path d="M57.3511 53.7035L46.9954 58.6895C45.7968 59.2668 44.3643 59.0232 43.4236 58.0825L9.52308 27.1732C8.61124 26.3418 8.61229 24.9062 9.52534 24.0762L12.2944 21.5588C13.0409 20.8802 14.1651 20.8303 14.9688 21.44L55.7928 52.41C57.1624 53.449 59.1296 52.4721 59.1296 50.7531V50.8733C59.1296 52.08 58.4383 53.18 57.3511 53.7035Z" fill="#C5C5C5"/>
</g>
<g filter="url(#filter1_d_2_594)">
<path d="M46.9959 58.6905C45.7969 59.2673 44.3644 59.0233 43.4236 58.0825C44.5828 59.2417 46.5648 58.4207 46.5648 56.7814V11.2186C46.5648 9.57931 44.5828 8.75833 43.4236 9.9175C44.3644 8.97671 45.7969 8.73291 46.9959 9.30954L57.3497 14.2887C58.4377 14.8119 59.1296 15.9124 59.1296 17.1196V50.8806C59.1296 52.0878 58.4377 53.1883 57.3497 53.7115L46.9959 58.6905Z" fill="#E7E7E7"/>
</g>
<g style="mix-blend-mode:overlay" opacity="0.25">
<path style="mix-blend-mode:overlay" fill-rule="evenodd" clip-rule="evenodd" d="M44.4796 58.7864C45.2712 59.0947 46.1738 59.075 46.9727 58.6906L57.3202 53.7115C58.4076 53.1883 59.099 52.0879 59.099 50.8806V17.1197C59.099 15.9124 58.4076 14.812 57.3203 14.2888L46.9727 9.3096C45.9242 8.80505 44.6971 8.92864 43.7768 9.59768C43.6453 9.69325 43.5201 9.79996 43.4026 9.91756L23.5935 27.9898L14.9651 21.4401C14.1619 20.8304 13.0384 20.8804 12.2924 21.5589L9.52494 24.0763C8.61244 24.9064 8.61139 26.3419 9.52268 27.1733L17.0055 34.0001L9.52268 40.8269C8.61139 41.6582 8.61244 43.0938 9.52494 43.9238L12.2924 46.4412C13.0384 47.1198 14.1619 47.1698 14.9651 46.5601L23.5935 40.0103L43.4026 58.0826C43.716 58.3961 44.0839 58.6323 44.4796 58.7864ZM46.5419 22.5907L31.5113 34.0001L46.5419 45.4095V22.5907Z" fill="url(#paint0_linear_2_594)"/>
</g>
<defs>
<filter id="filter0_d_2_594" x="0.506535" y="12.6809" width="66.9564" height="54.652" filterUnits="userSpaceOnUse" color-interpolation-filters="sRGB">
<feFlood flood-opacity="0" result="BackgroundImageFix"/>
<feColorMatrix in="SourceAlpha" type="matrix" values="0 0 0 0 0 0 0 0 0 0 0 0 0 0 0 0 0 0 127 0" result="hardAlpha"/>
<feOffset/>
<feGaussianBlur stdDeviation="4.16667"/>
<feColorMatrix type="matrix" values="0 0 0 0 0 0 0 0 0 0 0 0 0 0 0 0 0 0 0.25 0"/>
<feBlend mode="overlay" in2="BackgroundImageFix" result="effect1_dropShadow_2_594"/>
<feBlend mode="normal" in="SourceGraphic" in2="effect1_dropShadow_2_594" result="shape"/>
</filter>
<filter id="filter1_d_2_594" x="35.0902" y="0.66666" width="32.3727" height="66.6668" filterUnits="userSpaceOnUse" color-interpolation-filters="sRGB">
<feFlood flood-opacity="0" result="BackgroundImageFix"/>
<feColorMatrix in="SourceAlpha" type="matrix" values="0 0 0 0 0 0 0 0 0 0 0 0 0 0 0 0 0 0 127 0" result="hardAlpha"/>
<feOffset/>
<feGaussianBlur stdDeviation="4.16667"/>
<feColorMatrix type="matrix" values="0 0 0 0 0 0 0 0 0 0 0 0 0 0 0 0 0 0 0.25 0"/>
<feBlend mode="overlay" in2="BackgroundImageFix" result="effect1_dropShadow_2_594"/>
<feBlend mode="normal" in="SourceGraphic" in2="effect1_dropShadow_2_594" result="shape"/>
</filter>
<linearGradient id="paint0_linear_2_594" x1="33.9695" y1="9.00006" x2="33.9695" y2="59.0001" gradientUnits="userSpaceOnUse">
<stop stop-color="white"/>
<stop offset="1" stop-color="white" stop-opacity="0"/>
</linearGradient>
</defs>
</svg>
